<svg width="1440" height="805" viewBox="0 0 1440 805" fill="none" xmlns="http://www.w3.org/2000/svg">
<g clip-path="url(#clip0_1254_29396)">
<rect width="1440" height="805" fill="#E7F3BC"/>
<ellipse cx="1298.4" cy="812.54" rx="72.6863" ry="65.3588" transform="rotate(90 1298.4 812.54)" fill="white" fill-opacity="0.41"/>
<ellipse cx="1431.17" cy="665.19" rx="73.0912" ry="65.7229" transform="rotate(90 1431.17 665.19)" fill="white" fill-opacity="0.41"/>
<path opacity="0.1" d="M1233.04 519.008C1233.04 528.606 1234.74 538.111 1238.04 546.979C1241.34 555.847 1246.19 563.904 1252.29 570.691C1258.39 577.478 1265.64 582.862 1273.61 586.535C1281.58 590.209 1290.13 592.099 1298.76 592.099C1307.39 592.099 1315.94 590.209 1323.91 586.535C1331.89 582.862 1339.13 577.478 1345.24 570.691C1351.34 563.904 1356.18 555.847 1359.48 546.979C1362.78 538.111 1364.48 528.606 1364.48 519.008L1298.76 519.008L1233.04 519.008Z" fill="white"/>
<path opacity="0.1" d="M1167 738.412C1175.66 738.412 1184.24 736.514 1192.25 732.826C1200.25 729.139 1207.53 723.734 1213.65 716.92C1219.78 710.107 1224.64 702.018 1227.96 693.115C1231.27 684.213 1232.98 674.671 1232.98 665.035C1232.98 655.399 1231.27 645.858 1227.96 636.955C1224.64 628.053 1219.78 619.964 1213.65 613.15C1207.53 606.337 1200.25 600.932 1192.25 597.244C1184.24 593.557 1175.66 591.659 1167 591.659L1167 665.035L1167 738.412Z" fill="white"/>
<rect opacity="0.2" x="1364.96" y="591.704" width="146.704" height="131.916" transform="rotate(90 1364.96 591.704)" fill="white"/>
<path d="M1496.88 738.407L1426.6 814.424L1364.96 885.111L1364.96 738.407L1496.88 738.407Z" fill="white" fill-opacity="0.41"/>
<path d="M1364.96 591.704L1435.23 515.687L1496.87 445L1496.87 591.704L1364.96 591.704Z" fill="white" fill-opacity="0.41"/>
<g opacity="0.5">
<ellipse cx="23.4005" cy="149.298" rx="46.929" ry="46.955" transform="rotate(90 23.4005 149.298)" fill="white" fill-opacity="0.41"/>
<ellipse cx="118.784" cy="54.163" rx="47.1904" ry="47.2165" transform="rotate(90 118.784 54.163)" fill="white" fill-opacity="0.41"/>
<path opacity="0.1" d="M-23.5566 -40.2177C-23.5566 -34.0206 -22.3354 -27.8841 -19.9625 -22.1587C-17.5896 -16.4333 -14.1117 -11.2311 -9.72725 -6.84908C-5.34279 -2.46705 -0.137682 1.00897 5.59089 3.3805C11.3195 5.75204 17.4593 6.97266 23.6599 6.97265C29.8604 6.97265 36.0003 5.75204 41.7288 3.3805C47.4574 1.00896 52.6625 -2.46706 57.047 -6.84909C61.4314 -11.2311 64.9094 -16.4334 67.2822 -22.1588C69.6551 -27.8842 70.8763 -34.0206 70.8763 -40.2177L23.6598 -40.2177L-23.5566 -40.2177Z" fill="white"/>
<rect opacity="0.2" x="71.2148" y="6.71777" width="94.7174" height="94.7711" transform="rotate(90 71.2148 6.71777)" fill="white"/>
<path d="M165.986 101.435L115.498 150.514L71.2165 196.152L71.2165 101.435L165.986 101.435Z" fill="white" fill-opacity="0.41"/>
<path d="M71.2148 6.71777L121.703 -42.3615L165.985 -87.9996L165.985 6.71777L71.2148 6.71777Z" fill="white" fill-opacity="0.41"/>
</g>
</g>
<defs>
<clipPath id="clip0_1254_29396">
<rect width="1440" height="805" fill="white"/>
</clipPath>
</defs>
</svg>
