<svg width="661" height="542" viewBox="0 0 661 542" fill="none" xmlns="http://www.w3.org/2000/svg">
<path d="M643.575 391.276C678.996 453.442 660.415 484.234 587.831 483.653C515.248 483.072 461.245 490.625 425.825 506.312C390.404 521.998 348.596 533.037 300.4 539.428C252.205 545.819 194.719 540.3 127.942 522.87C61.165 505.44 20.8086 463.609 6.87257 397.376C-7.06347 331.143 0.194881 268.977 28.6476 210.878C57.1004 152.779 104.715 123.439 171.492 122.858C238.269 122.277 288.497 100.49 322.175 57.497C355.854 14.5037 400.566 -4.37842 456.31 0.850485C512.054 6.07939 557.056 31.062 591.315 75.7982C625.575 120.534 633.994 168.757 616.574 220.465C599.154 272.173 608.154 329.11 643.575 391.276Z" fill="#F6F9ED"/>
</svg>
