<svg width="409" height="380" viewBox="0 0 409 380" fill="none" xmlns="http://www.w3.org/2000/svg">
<path d="M404.056 255.008C415.389 290.008 403.222 312.674 367.556 323.008C331.889 333.341 301.889 344.341 277.556 356.008C253.222 367.674 226.056 375.174 196.056 378.508C166.056 381.841 133.222 379.341 97.5556 371.008C61.8889 362.674 35.8889 341.674 19.5556 308.008C3.22222 274.341 -2.61111 239.674 2.05556 204.008C6.72222 168.341 24.2222 141.341 54.5556 123.008C84.8889 104.674 108.222 82.1742 124.556 55.5076C140.889 28.8409 165.056 11.6742 197.056 4.00758C229.056 -3.65909 260.056 -0.325757 290.056 14.0076C320.056 28.3409 349.056 46.0076 377.056 67.0076C405.056 88.0076 413.722 115.841 403.056 150.508C392.389 185.174 392.722 220.008 404.056 255.008Z" fill="#F6F9ED"/>
</svg>
