<svg width="55" height="55" viewBox="0 0 55 55" fill="none" xmlns="http://www.w3.org/2000/svg">
<path fill-rule="evenodd" clip-rule="evenodd" d="M24.1798 48.7511C24.1798 48.7511 20.5995 48.1231 17.4307 46.3826L11.1086 48.1726C11.1086 48.1726 10.2404 48.4266 9.34994 48.1988C9.34994 48.1988 8.45946 47.971 7.80953 47.3211C7.80953 47.3211 7.1596 46.6711 6.93182 45.7807C6.93182 45.7807 6.70404 44.8902 6.96205 44.008L8.74802 37.6999C8.74802 37.6999 7.00752 34.5311 6.3795 30.9508C6.3795 30.9508 5.68773 27.0069 6.43513 23.0733C6.43513 23.0733 7.18254 19.1396 9.27255 15.7244C9.27255 15.7244 11.3626 12.3091 14.5252 9.85346C14.5252 9.85346 17.6878 7.39783 21.5144 6.21908C21.5144 6.21908 25.341 5.04034 29.3371 5.29078C29.3371 5.29078 33.3333 5.54122 36.9828 7.18849C36.9828 7.18849 40.6323 8.83576 43.4636 11.667C43.4636 11.667 46.2948 14.4983 47.9421 18.1478C47.9421 18.1478 49.5894 21.7973 49.8398 25.7935C49.8398 25.7935 50.0903 29.7896 48.9115 33.6162C48.9115 33.6162 47.7328 37.4428 45.2771 40.6054C45.2771 40.6054 42.8215 43.768 39.4062 45.8581C39.4062 45.8581 35.991 47.9481 32.0573 48.6955C32.0573 48.6955 28.1237 49.4429 24.1798 48.7511ZM31.4273 45.3798C31.4273 45.3798 24.5424 46.688 18.5136 43.1151C18.1157 42.8793 17.6373 42.8164 17.1923 42.9424L10.2117 44.9189L12.1882 37.9383C12.3142 37.4933 12.252 37.0161 12.0162 36.6182C12.0162 36.6182 8.44253 30.5889 9.75081 23.7033C9.75081 23.7033 11.0591 16.8177 16.595 12.5192C16.595 12.5192 22.131 8.22079 29.1261 8.65917C29.1261 8.65917 36.1211 9.09755 41.0771 14.0535C41.0771 14.0535 46.0331 19.0095 46.4714 26.0046C46.4714 26.0046 46.9098 32.9996 42.6114 38.5356C42.6114 38.5356 38.3129 44.0715 31.4273 45.3798Z" fill="#C06EF3"/>
<path d="M30.5193 27.1427C30.5193 28.5407 29.386 29.6739 27.988 29.6739C26.59 29.6739 25.4568 28.5407 25.4568 27.1427C25.4568 25.7447 26.59 24.6114 27.988 24.6114C29.386 24.6114 30.5193 25.7447 30.5193 27.1427Z" fill="#C06EF3"/>
<path d="M20.3943 27.1427C20.3943 28.5407 19.261 29.6739 17.863 29.6739C16.465 29.6739 15.3318 28.5407 15.3318 27.1427C15.3318 25.7447 16.465 24.6114 17.863 24.6114C19.261 24.6114 20.3943 25.7447 20.3943 27.1427Z" fill="#C06EF3"/>
<path d="M40.6443 27.1427C40.6443 28.5407 39.511 29.6739 38.113 29.6739C36.715 29.6739 35.5818 28.5407 35.5818 27.1427C35.5818 25.7447 36.715 24.6114 38.113 24.6114C39.511 24.6114 40.6443 25.7447 40.6443 27.1427Z" fill="#C06EF3"/>
</svg>
