<svg width="1280" height="32" viewBox="0 0 1280 32" fill="none" xmlns="http://www.w3.org/2000/svg">
<path fill-rule="evenodd" clip-rule="evenodd" d="M190.906 19.9347C192.218 23.1789 195.117 25.5017 198.609 26.1147C200.651 26.4692 203.705 25.9297 205.728 24.8544C207.41 23.9584 207.679 23.6216 207.391 22.7882C207.253 22.3848 207.162 20.4772 207.162 17.9263V13.7224L198.471 13.6039V18.1789L201.678 18.1544L201.747 18.9603C201.829 19.9435 201.604 20.1139 200.233 20.1139C198.91 20.1139 197.768 19.4852 196.931 18.2935C196.389 17.5258 196.303 17.2183 196.31 16.1235C196.323 14.4333 196.923 13.2797 198.222 12.4415C199.131 11.8579 199.297 11.8226 200.747 11.9009C201.765 11.9568 202.742 12.1663 203.591 12.513L204.882 13.0379V6L201.521 6.10674C197.768 6.22523 196.35 6.54838 194.556 7.69802C192.534 8.99846 190.982 11.2331 190.405 13.6832C190.002 15.4018 190.231 18.2651 190.906 19.9347ZM103.694 18.2856C103.657 21.9666 103.547 25.1433 103.453 25.3402C103.29 25.676 103.5 25.7035 106.502 25.6995H109.729V6.04309L100.115 6.15374L100.055 8.94754L100 11.7394L101.88 11.664L103.757 11.5935L103.694 18.2856ZM110.974 15.8757V6.0519H119.451V11.7717L117.175 11.5807V13.6988H120.691V6.04309H126.901V25.6917H120.292L120.494 25.1619C120.604 24.8701 120.696 23.2416 120.696 21.5436V18.4541H117.156L117.219 21.714C117.255 23.507 117.361 25.1345 117.456 25.3323C117.618 25.6682 117.4 25.6946 114.3 25.6946H110.97V15.8757H110.974ZM208.13 6.51313C208.355 7.13691 208.346 24.877 208.122 25.3402C207.956 25.68 208.3 25.7035 213.964 25.7123H219.984V19.873L219.518 20.016C218.914 20.2011 214.916 20.4185 214.564 20.2833C214.374 20.2128 214.315 19.8524 214.367 19.0906L214.443 18.0007L215.817 18.1143C216.575 18.1789 217.357 18.2935 217.555 18.3718C217.887 18.503 217.918 18.3082 217.918 16.0451V13.5764L214.403 13.7576V11.2214L216.007 11.2262C217.504 11.2331 218.384 11.3565 219.53 11.7237L220 11.8735L219.882 6.15374L207.959 6.04309L208.13 6.51313ZM151.242 25.0285C148.378 18.1786 143.456 7.08178 143.081 6.63524L142.588 6.04671H149.535C153.356 6.04671 156.484 6.1182 156.484 6.20045C156.484 6.28761 156.077 7.42549 155.583 8.73279L154.683 11.1114L153.103 11.1711C152.233 11.2025 151.522 11.2651 151.522 11.3082C151.522 11.505 153.462 16.7137 153.589 16.8586C153.668 16.9497 154.643 14.5525 155.762 11.5344L157.792 6.04671H173.869V9.06965C173.869 11.8732 173.841 12.0789 173.506 11.9251C173.309 11.8341 172.051 11.7234 170.713 11.6793L168.283 11.601V13.7573L171.8 13.5771V18.4195L170.883 18.2256C170.381 18.1189 169.611 18.0601 169.176 18.0954L168.386 18.1581L168.26 20.5366H170.105C171.218 20.5366 172.301 20.4133 172.83 20.2252C173.312 20.0549 173.743 19.9119 173.786 19.9119C173.829 19.9119 173.865 21.2153 173.865 22.8075V25.7032H167.842C162.907 25.7032 161.856 25.6571 162.042 25.4348C162.287 25.1381 162.493 10.8108 162.248 10.8108C162.173 10.8108 160.683 14.1608 158.941 18.257L155.773 25.7032H151.522L151.242 25.0285ZM174.655 6.04691L174.825 6.51401C175.05 7.13289 175.046 24.8749 174.818 25.3352C174.651 25.672 174.877 25.6994 178.186 25.6994C181.627 25.6994 181.73 25.6887 181.521 25.3009C181.402 25.0796 181.307 23.7723 181.307 22.3925C181.307 19.8886 181.307 19.8856 181.773 20.0188C182.643 20.2764 183.78 21.1528 184.333 21.9812C184.953 22.9223 185.206 24.5664 184.838 25.2607L184.598 25.6994H188.134C190.204 25.6994 191.621 25.6201 191.554 25.5144C191.491 25.4106 191.27 24.305 191.057 23.0564C190.587 20.3116 189.749 18.5607 188.414 17.5423L187.529 16.8627L188.035 16.1831C189.721 13.8966 189.453 10.0687 187.466 8.08472C185.85 6.46994 184.009 6.05866 178.447 6.05572L174.655 6.04691ZM127.865 6.90443C128.284 8.12947 128.184 24.8394 127.754 25.3593C127.494 25.6756 127.917 25.704 133.499 25.704H139.514V19.8658L139.048 20.0156C138.791 20.0978 137.531 20.2124 136.243 20.2682L133.905 20.3701L133.968 19.2596L134.031 18.1521L134.821 18.0874C135.256 18.0512 136.026 18.1119 136.527 18.2187L137.444 18.4106V13.5682L135.674 13.6642L133.905 13.7543L134.031 11.3199L135.687 11.265C136.622 11.2327 137.816 11.3336 138.428 11.4942L139.514 11.7782V6.05151H127.569L127.865 6.90443ZM182.655 11.5229C182.243 11.3515 181.955 11.2379 181.758 11.2261C181.319 11.1978 181.307 11.66 181.307 13.0789V14.9395H181.94C182.366 14.9395 182.773 14.7456 183.18 14.3392C184.135 13.3825 183.887 12.035 182.655 11.5229Z" fill="#DB0E31"/>
<path d="M334.647 22.4416L335.817 19.8106C337.081 20.7241 338.761 21.1992 340.421 21.1992C341.648 21.1992 342.422 20.7424 342.422 20.0481C342.403 18.1114 335.081 19.6279 335.025 14.7678C335.006 12.3012 337.27 10.4011 340.478 10.4011C342.384 10.4011 344.29 10.8579 345.648 11.8993L344.554 14.5851C343.308 13.8177 341.761 13.2696 340.289 13.2696C339.289 13.2696 338.629 13.7264 338.629 14.311C338.648 16.2112 346.026 15.1698 346.101 19.8106C346.101 22.3319 343.893 24.1042 340.723 24.1042C338.402 24.1042 336.27 23.5744 334.647 22.4416Z" fill="black"/>
<path d="M379.538 18.8605C378.953 19.8472 377.858 20.5231 376.594 20.5231C374.726 20.5231 373.216 19.0615 373.216 17.2527C373.216 15.4439 374.726 13.9822 376.594 13.9822C377.858 13.9822 378.953 14.6582 379.538 15.6449L382.764 13.9091C381.557 11.8262 379.236 10.4011 376.594 10.4011C372.688 10.4011 369.518 13.4706 369.518 17.2527C369.518 21.0347 372.688 24.1042 376.594 24.1042C379.255 24.1042 381.557 22.6974 382.764 20.5962L379.538 18.8605Z" fill="black"/>
<path d="M347.724 4.71887H351.762V23.8484H347.724V4.71887Z" fill="black"/>
<path d="M384.349 4.71887V23.8484H388.387V18.1114L393.18 23.8484H398.35L392.256 17.0335L397.898 10.6752H392.954L388.387 15.9555V4.71887H384.349Z" fill="black"/>
<path d="M363.763 18.897C363.178 19.8288 361.97 20.5231 360.612 20.5231C358.744 20.5231 357.234 19.0615 357.234 17.2527C357.234 15.4439 358.744 13.9822 360.612 13.9822C361.97 13.9822 363.178 14.713 363.763 15.6631V18.897ZM363.763 10.6752V12.2282C363.102 11.1502 361.461 10.4011 359.744 10.4011C356.196 10.4011 353.404 13.4341 353.404 17.2344C353.404 21.0347 356.196 24.1042 359.744 24.1042C361.461 24.1042 363.102 23.3551 363.763 22.2772V23.8302H367.801V10.6752H363.763Z" fill="black"/>
<path d="M310.064 19.172C310.064 20.5669 308.936 21.6943 307.541 21.6943C306.146 21.6943 305.019 20.5669 305.019 19.172C305.019 17.7771 306.146 16.6497 307.541 16.6497H310.064V19.172Z" fill="#E01E5A"/>
<path d="M311.325 19.172C311.325 17.7771 312.452 16.6497 313.847 16.6497C315.242 16.6497 316.369 17.7771 316.369 19.172V25.4777C316.369 26.8726 315.242 28 313.847 28C312.452 28 311.325 26.8726 311.325 25.4777V19.172Z" fill="#E01E5A"/>
<path d="M313.847 9.04459C312.452 9.04459 311.325 7.9172 311.325 6.5223C311.325 5.12739 312.452 4 313.847 4C315.242 4 316.369 5.12739 316.369 6.5223V9.04459H313.847Z" fill="#36C5F0"/>
<path d="M313.847 10.3248C315.242 10.3248 316.369 11.4523 316.369 12.8472C316.369 14.2421 315.242 15.3694 313.847 15.3694H307.522C306.127 15.3694 305 14.2421 305 12.8472C305 11.4523 306.127 10.3248 307.522 10.3248H313.847Z" fill="#36C5F0"/>
<path d="M323.955 12.8472C323.955 11.4523 325.083 10.3248 326.478 10.3248C327.873 10.3248 329 11.4523 329 12.8472C329 14.2421 327.873 15.3694 326.478 15.3694H323.955V12.8472Z" fill="#2EB67D"/>
<path d="M322.694 12.8472C322.694 14.2421 321.567 15.3694 320.172 15.3694C318.777 15.3694 317.65 14.2421 317.65 12.8472V6.5223C317.65 5.12739 318.777 4 320.172 4C321.567 4 322.694 5.12739 322.694 6.5223V12.8472Z" fill="#2EB67D"/>
<path d="M320.172 22.9554C321.567 22.9554 322.694 24.0828 322.694 25.4777C322.694 26.8726 321.567 28 320.172 28C318.777 28 317.65 26.8726 317.65 25.4777V22.9554H320.172Z" fill="#ECB22E"/>
<path d="M320.172 21.6943C318.777 21.6943 317.65 20.5669 317.65 19.172C317.65 17.7771 318.777 16.6497 320.172 16.6497H326.497C327.892 16.6497 329.019 17.7771 329.019 19.172C329.019 20.5669 327.892 21.6943 326.497 21.6943H320.172Z" fill="#ECB22E"/>
<path d="M525.002 12.4774H516.459V15.0123H522.518C522.218 18.5605 519.262 20.0835 516.47 20.0835C515.585 20.0874 514.709 19.915 513.891 19.5764C513.074 19.2379 512.333 18.7399 511.71 18.1116C511.087 17.4834 510.596 16.7373 510.265 15.9171C509.934 15.0969 509.769 14.2189 509.781 13.3344C509.781 9.49694 512.752 6.5424 516.478 6.5424C519.352 6.5424 521.045 8.37449 521.045 8.37449L522.819 6.53626C522.819 6.53626 520.54 4 516.385 4C511.093 4 507 8.46593 507 13.2894C507 18.016 510.85 22.6252 516.519 22.6252C521.505 22.6252 525.154 19.2094 525.154 14.1587C525.154 13.0929 524.999 12.4774 524.999 12.4774H525.002Z" fill="#4885ED"/>
<path d="M532.001 10.6412C528.495 10.6412 525.983 13.3822 525.983 16.5776C525.983 19.8215 528.419 22.6129 532.042 22.6129C535.321 22.6129 538.008 20.1067 538.008 16.6472C538.008 12.6896 534.883 10.6412 532.001 10.6412ZM532.035 12.9926C533.759 12.9926 535.392 14.3866 535.392 16.6322C535.392 18.8293 533.766 20.2636 532.027 20.2636C530.116 20.2636 528.615 18.7338 528.615 16.6144C528.615 14.5401 530.103 12.9926 532.041 12.9926H532.035Z" fill="#DB3236"/>
<path d="M545.089 10.6412C541.583 10.6412 539.071 13.3822 539.071 16.5776C539.071 19.8215 541.507 22.6129 545.13 22.6129C548.409 22.6129 551.096 20.1067 551.096 16.6472C551.096 12.6896 547.971 10.6412 545.089 10.6412ZM545.123 12.9926C546.847 12.9926 548.48 14.3866 548.48 16.6322C548.48 18.8293 546.854 20.2636 545.115 20.2636C543.204 20.2636 541.703 18.7338 541.703 16.6144C541.703 14.5401 543.191 12.9926 545.129 12.9926H545.123Z" fill="#F4C20D"/>
<path d="M557.926 10.6481C554.708 10.6481 552.179 13.4661 552.179 16.6295C552.179 20.2322 555.111 22.6218 557.87 22.6218C559.576 22.6218 560.483 21.9442 561.145 21.167V22.3475C561.145 24.4129 559.891 25.65 557.998 25.65C556.17 25.65 555.252 24.2901 554.928 23.5191L552.627 24.4743C553.443 26.2007 555.086 28 558.017 28C561.224 28 563.655 25.985 563.655 21.7586V11.0076H561.155V12.0216C560.384 11.1891 559.327 10.6481 557.927 10.6481H557.926ZM558.158 12.9953C559.735 12.9953 561.355 14.3422 561.355 16.6424C561.355 18.9808 559.738 20.2691 558.123 20.2691C556.408 20.2691 554.812 18.8771 554.812 16.6643C554.812 14.3661 556.47 12.9953 558.158 12.9953Z" fill="#4885ED"/>
<path d="M574.829 10.6337C571.794 10.6337 569.245 13.0492 569.245 16.611C569.245 20.3817 572.086 22.6177 575.113 22.6177C577.646 22.6177 579.207 21.2325 580.129 19.9907L578.059 18.6137C577.522 19.4462 576.624 20.2616 575.126 20.2616C573.444 20.2616 572.67 19.3404 572.19 18.4465L580.217 15.1167L579.807 14.141C579.032 12.2304 577.223 10.6337 574.829 10.6337ZM574.933 12.9359C576.027 12.9359 576.814 13.5173 577.148 14.2147L571.788 16.4548C571.556 14.7203 573.2 12.9359 574.926 12.9359H574.933Z" fill="#DB3236"/>
<path d="M565.413 22.2629H568.049V4.61957H565.413V22.2629Z" fill="#3CBA54"/>
<path d="M706.202 5.16481C705.076 4.38908 703.607 4.00027 701.795 4.00027H694.779C694.224 4.00027 693.917 4.27878 693.859 4.83525L691.009 22.7682C690.979 22.9443 691.023 23.1054 691.14 23.2518C691.257 23.3985 691.403 23.4715 691.579 23.4715H694.911C695.496 23.4715 695.817 23.1937 695.876 22.6365L696.665 17.8018C696.694 17.5675 696.796 17.377 696.972 17.2303C697.147 17.0839 697.366 16.9881 697.63 16.9443C697.893 16.9007 698.141 16.8787 698.375 16.8787C698.609 16.8787 698.886 16.8936 699.208 16.9228C699.529 16.9519 699.734 16.9663 699.822 16.9663C702.336 16.9663 704.309 16.2563 705.741 14.8346C707.173 13.4137 707.89 11.4433 707.89 8.92269C707.89 7.19388 707.327 5.94135 706.202 5.16441V5.16481ZM702.584 10.5495C702.438 11.5753 702.058 12.2489 701.444 12.5713C700.831 12.8942 699.954 13.0549 698.814 13.0549L697.367 13.0987L698.112 8.3955C698.17 8.07347 698.36 7.91225 698.682 7.91225H699.516C700.684 7.91225 701.532 8.08113 702.059 8.41754C702.584 8.75475 702.76 9.46559 702.584 10.5495Z" fill="#003087"/>
<path d="M780.236 4H776.992C776.669 4 776.479 4.16122 776.422 4.48379L773.571 22.7687L773.528 22.8566C773.528 23.0038 773.586 23.1423 773.703 23.2743C773.819 23.4059 773.966 23.4719 774.141 23.4719H777.036C777.59 23.4719 777.897 23.1941 777.957 22.6369L780.806 4.65965V4.61599C780.806 4.20556 780.616 4.00054 780.236 4.00054V4Z" fill="#009CDE"/>
<path d="M741.038 11.0775C741.038 10.9313 740.979 10.7919 740.863 10.6604C740.745 10.5286 740.614 10.4622 740.468 10.4622H737.092C736.77 10.4622 736.507 10.6094 736.302 10.9017L731.655 17.7587L729.726 11.1656C729.579 10.6972 729.258 10.4622 728.761 10.4622H725.472C725.325 10.4622 725.194 10.5283 725.078 10.6604C724.961 10.7919 724.902 10.9316 724.902 11.0775C724.902 11.1365 725.187 12.0006 725.757 13.6709C726.327 15.3416 726.941 17.1438 727.599 19.0779C728.257 21.0116 728.6 22.0377 728.629 22.1539C726.232 25.4363 725.034 27.1944 725.034 27.4285C725.034 27.8098 725.224 28 725.604 28H728.98C729.301 28 729.564 27.8538 729.769 27.5607L740.95 11.385C741.008 11.327 741.038 11.2249 741.038 11.0774V11.0775Z" fill="#003087"/>
<path d="M772.476 10.4622H769.144C768.734 10.4622 768.486 10.9459 768.399 11.913C767.638 10.7412 766.25 10.1545 764.233 10.1545C762.128 10.1545 760.338 10.9459 758.862 12.5282C757.385 14.1106 756.648 15.9719 756.648 18.1107C756.648 19.8399 757.152 21.217 758.16 22.2422C759.169 23.2685 760.52 23.7806 762.216 23.7806C763.064 23.7806 763.926 23.6045 764.803 23.2532C765.68 22.9016 766.366 22.433 766.864 21.8467C766.864 21.8761 766.834 22.0075 766.776 22.2418C766.717 22.4766 766.689 22.653 766.689 22.7693C766.689 23.2387 766.878 23.4724 767.259 23.4724H770.284C770.839 23.4724 771.161 23.1946 771.248 22.6375L773.046 11.1654C773.075 10.9894 773.032 10.8286 772.915 10.6819C772.797 10.5357 772.651 10.4622 772.476 10.4622ZM766.754 19.1215C766.009 19.8541 765.11 20.2202 764.058 20.2202C763.21 20.2202 762.523 19.9862 761.997 19.5171C761.47 19.0493 761.207 18.4045 761.207 17.5831C761.207 16.4997 761.573 15.5832 762.304 14.8361C763.034 14.0888 763.941 13.7153 765.022 13.7153C765.84 13.7153 766.52 13.957 767.061 14.4403C767.601 14.9239 767.873 15.5906 767.873 16.4406C767.872 17.4954 767.5 18.3893 766.754 19.1215Z" fill="#009CDE"/>
<path d="M722.666 10.4622H719.334C718.924 10.4622 718.676 10.9459 718.588 11.913C717.799 10.7412 716.41 10.1545 714.422 10.1545C712.318 10.1545 710.527 10.9459 709.051 12.5282C707.575 14.1106 706.837 15.9719 706.837 18.1107C706.837 19.8399 707.341 21.217 708.35 22.2422C709.358 23.2685 710.71 23.7806 712.406 23.7806C713.224 23.7806 714.072 23.6045 714.949 23.2532C715.826 22.9016 716.527 22.433 717.053 21.8467C716.936 22.198 716.878 22.5058 716.878 22.7693C716.878 23.2387 717.068 23.4724 717.448 23.4724H720.473C721.028 23.4724 721.35 23.1946 721.438 22.6375L723.236 11.1654C723.264 10.9894 723.221 10.8286 723.104 10.6819C722.987 10.5357 722.841 10.4622 722.666 10.4622ZM716.944 19.1433C716.198 19.8621 715.285 20.2202 714.204 20.2202C713.355 20.2202 712.676 19.9862 712.165 19.5171C711.653 19.0493 711.397 18.4045 711.397 17.5831C711.397 16.4997 711.762 15.5832 712.494 14.8361C713.224 14.0888 714.13 13.7152 715.212 13.7152C716.03 13.7152 716.71 13.957 717.251 14.4403C717.791 14.9239 718.062 15.5906 718.062 16.4406C718.062 17.5248 717.689 18.4261 716.944 19.1433Z" fill="#003087"/>
<path d="M756.012 5.16481C754.886 4.38908 753.418 4.00027 751.605 4.00027H744.633C744.049 4.00027 743.727 4.27878 743.669 4.83525L740.819 22.7682C740.789 22.9443 740.833 23.1054 740.95 23.2518C741.066 23.3985 741.213 23.4715 741.389 23.4715H744.984C745.335 23.4715 745.568 23.2813 745.686 22.9002L746.475 17.8018C746.504 17.5675 746.606 17.377 746.782 17.2303C746.957 17.0839 747.176 16.9881 747.44 16.9443C747.703 16.9007 747.951 16.8787 748.185 16.8787C748.419 16.8787 748.696 16.8936 749.018 16.9228C749.339 16.9519 749.545 16.9663 749.632 16.9663C752.146 16.9663 754.119 16.2563 755.551 14.8346C756.984 13.4137 757.7 11.4433 757.7 8.92269C757.7 7.19388 757.137 5.94121 756.012 5.16441V5.16481ZM751.518 12.3953C750.874 12.8348 749.91 13.0545 748.624 13.0545L747.22 13.0985L747.966 8.39523C748.024 8.07333 748.214 7.91184 748.536 7.91184H749.325C749.968 7.91184 750.479 7.94127 750.86 7.99971C751.239 8.05856 751.605 8.2414 751.956 8.54893C752.307 8.85672 752.482 9.30384 752.482 9.8896C752.482 11.1208 752.16 11.9555 751.518 12.3953Z" fill="#009CDE"/>
<path d="M917.349 12.5683H920.521V22.5518H917.349V12.5683Z" fill="#E60023"/>
<path d="M921.183 12.5682H924.238V13.9332H924.296C925.035 12.8607 925.989 12.2758 927.37 12.2758C929.549 12.2758 930.833 13.8357 930.833 16.0586V22.5518H927.662V16.7021C927.662 15.6491 927.137 14.9276 926.105 14.9276C925.055 14.9276 924.354 15.8051 924.354 17.0335V22.5518H921.183V12.5682Z" fill="#E60023"/>
<path d="M920.837 9.89724C920.837 8.84422 919.985 7.99069 918.935 7.99069C917.884 7.99069 917.032 8.84422 917.032 9.89724C917.032 10.9502 917.884 11.8037 918.935 11.8037C919.985 11.8037 920.837 10.9502 920.837 9.89724Z" fill="#E60023"/>
<path d="M953.139 12.4241C953.048 12.4159 952.944 12.4122 952.823 12.4122C951.617 12.4122 950.8 12.9387 950.099 14.1282H950.041V12.5683H947.005V22.5517H950.177V18.067C950.177 15.989 951.325 15.0261 953.139 15.1941V12.4241Z" fill="#E60023"/>
<path d="M968.702 16.2535C967.437 16.0196 966.309 15.9221 966.309 15.2202C966.309 14.5961 966.912 14.3037 967.69 14.3037C968.566 14.3037 969.169 14.5766 969.286 15.4736H972.204C972.049 13.5042 970.531 12.2757 967.71 12.2757C965.356 12.2757 963.41 13.3677 963.41 15.4736C963.41 17.8134 965.258 18.2814 966.99 18.574C968.313 18.808 969.519 18.9055 969.519 19.8024C969.519 20.4459 968.916 20.7969 967.963 20.7969C967.006 20.7969 966.374 20.3913 966.18 19.5685H963.158C963.38 21.6208 965.178 22.8638 967.982 22.8638C970.589 22.8638 972.516 21.7328 972.516 19.549C972.516 16.9945 970.453 16.546 968.702 16.2535Z" fill="#E60023"/>
<path d="M958.058 14.5376C959.09 14.5376 959.829 15.2981 959.946 16.4876H956.015C956.229 15.2981 956.852 14.5376 958.058 14.5376ZM958.233 20.5628C956.93 20.5628 956.19 19.7244 955.996 18.3789H963.156C963.175 16.3511 962.592 14.6156 961.405 13.5237C960.549 12.7438 959.42 12.2758 958 12.2758C954.965 12.2758 952.883 14.5571 952.883 17.5406C952.883 20.5628 954.906 22.8443 958.194 22.8443C959.459 22.8443 960.471 22.5128 961.308 21.9278C962.183 21.3234 962.767 20.4654 962.981 19.5685H959.887C959.615 20.1924 959.07 20.5628 958.233 20.5628Z" fill="#E60023"/>
<path d="M978.101 20.1976C977.954 20.2034 977.757 20.212 977.576 20.212C976.895 20.212 976.467 20.0169 976.467 19.2369V14.5571H978.101V12.5682H976.467V9.40938H973.373V12.5682H972.4V14.5571H973.373V19.9194C973.373 22.0644 974.696 22.6688 976.544 22.6688C977.25 22.6688 977.783 22.6159 978.101 22.5536V20.1976Z" fill="#E60023"/>
<path d="M936.497 20.2021C936.37 20.207 936.224 20.212 936.088 20.212C935.407 20.212 934.979 20.0169 934.979 19.2369V14.5571H936.497V12.5682H934.979V9.40938H931.885V12.5682H930.854V14.5571H931.885V19.9194C931.885 22.0644 933.208 22.6688 935.057 22.6688C935.682 22.6688 936.172 22.6271 936.497 22.5742V20.2021Z" fill="#E60023"/>
<path d="M943.405 16.4876C943.288 15.2981 942.549 14.5376 941.518 14.5376C940.311 14.5376 939.689 15.2981 939.475 16.4876H943.405ZM936.342 17.5405C936.342 14.5571 938.424 12.2758 941.459 12.2758C942.88 12.2758 944.008 12.7438 944.864 13.5237C946.051 14.6157 946.635 16.3511 946.615 18.379H939.455C939.65 19.7244 940.389 20.5629 941.693 20.5629C942.529 20.5629 943.074 20.1924 943.347 19.5685H946.44C946.226 20.4654 945.642 21.3233 944.767 21.9279C943.93 22.5128 942.919 22.8443 941.654 22.8443C938.366 22.8443 936.342 20.5629 936.342 17.5405Z" fill="#E60023"/>
<path d="M911.841 15.1617C913.087 15.1617 913.787 14.4207 913.787 13.3091C913.787 12.1978 913.067 11.5153 911.841 11.5153H909.409V15.1617H911.841ZM906.198 8.60992H911.706C913.398 8.60992 914.644 9.07786 915.5 9.89686C916.395 10.7352 916.901 11.9248 916.901 13.3287C916.901 16 915.052 17.8915 912.192 17.8915H909.409V22.5518H906.198V8.60992Z" fill="#E60023"/>
<path d="M901.846 16C901.846 22.6274 896.485 28 889.872 28C883.259 28 877.898 22.6274 877.898 16C877.898 9.37252 883.259 4 889.872 4C896.485 4 901.846 9.37252 901.846 16Z" fill="white"/>
<path d="M889.872 4C883.259 4 877.898 9.37252 877.898 16C877.898 21.0838 881.053 25.4283 885.507 27.1767C885.403 26.2273 885.308 24.7671 885.549 23.7306C885.766 22.7941 886.953 17.7659 886.953 17.7659C886.953 17.7659 886.595 17.047 886.595 15.9842C886.595 14.3156 887.56 13.0699 888.761 13.0699C889.783 13.0699 890.276 13.8386 890.276 14.7603C890.276 15.7899 889.622 17.3292 889.285 18.7557C889.003 19.9501 889.882 20.9241 891.058 20.9241C893.186 20.9241 894.822 18.6753 894.822 15.4291C894.822 12.5558 892.762 10.547 889.82 10.547C886.413 10.547 884.414 13.108 884.414 15.7546C884.414 16.786 884.81 17.892 885.305 18.4932C885.403 18.612 885.417 18.7161 885.388 18.8374C885.297 19.2164 885.095 20.0315 885.055 20.1983C885.003 20.4179 884.882 20.4646 884.655 20.3587C883.159 19.6611 882.224 17.4699 882.224 15.7099C882.224 11.9245 884.969 8.44813 890.136 8.44813C894.29 8.44813 897.518 11.4145 897.518 15.3788C897.518 19.5144 894.916 22.8428 891.304 22.8428C890.091 22.8428 888.95 22.2111 888.56 21.4649C888.56 21.4649 887.959 23.756 887.814 24.3175C887.543 25.3598 886.814 26.6663 886.326 27.4634C887.446 27.811 888.638 28 889.872 28C896.485 28 901.846 22.6274 901.846 16C901.846 9.37252 896.485 4 889.872 4Z" fill="#E60023"/>
<path fill-rule="evenodd" clip-rule="evenodd" d="M1110.06 13.2112C1108.92 13.2112 1108.39 14.1208 1108.09 14.6513C1107.94 14.9545 1107.94 15.2577 1107.79 15.2577C1107.64 15.2577 1107.71 15.0303 1107.64 14.5755C1107.48 13.8934 1106.95 13.2112 1105.82 13.2112C1104.6 13.2112 1104.07 14.1966 1103.85 14.8029C1103.69 15.1819 1103.69 15.2577 1103.54 15.2577C1103.39 15.2577 1103.54 14.9545 1103.62 14.5755C1103.77 13.8934 1103.69 13.3628 1103.69 13.3628H1101.8V20.4877H1104.38C1104.38 20.4877 1104.38 17.5316 1104.38 16.9252C1104.38 16.2431 1104.68 15.3335 1105.13 15.3335C1105.74 15.3335 1105.82 15.7883 1105.82 16.6221V20.4877H1108.39C1108.39 20.4877 1108.39 17.4558 1108.39 16.9252C1108.39 16.3189 1108.62 15.3335 1109.23 15.3335C1109.83 15.3335 1109.91 15.9399 1109.91 16.6221V20.4877H1112.49C1112.49 20.4877 1112.49 17.6832 1112.49 16.3189C1112.41 14.4997 1111.73 13.2112 1110.06 13.2112Z" fill="#101828"/>
<path fill-rule="evenodd" clip-rule="evenodd" d="M1154.02 13.2112C1152.89 13.2112 1152.36 14.1208 1152.05 14.6513C1151.9 14.9545 1151.9 15.2577 1151.75 15.2577C1151.6 15.2577 1151.67 14.9545 1151.6 14.5755C1151.37 13.8934 1150.92 13.2112 1149.78 13.2112C1148.57 13.2112 1148.04 14.1966 1147.81 14.8029C1147.66 15.1819 1147.66 15.2577 1147.5 15.2577C1147.35 15.2577 1147.5 14.9545 1147.58 14.5755C1147.73 13.8934 1147.66 13.3628 1147.66 13.3628H1145.76V20.4877H1148.34C1148.34 20.4877 1148.34 17.5316 1148.34 16.9252C1148.34 16.2431 1148.64 15.3335 1149.1 15.3335C1149.7 15.3335 1149.78 15.7883 1149.78 16.6221V20.4877H1152.36C1152.36 20.4877 1152.36 17.4558 1152.36 16.9252C1152.36 16.3189 1152.58 15.3335 1153.19 15.3335C1153.8 15.3335 1153.87 15.9399 1153.87 16.6221V20.4877H1156.45C1156.45 20.4877 1156.45 17.6832 1156.45 16.3189C1156.37 14.4997 1155.77 13.2112 1154.02 13.2112Z" fill="#101828"/>
<path d="M1116.81 13.2112C1114.84 13.2112 1113.4 13.9692 1113.4 13.9692V16.0915C1113.4 16.0915 1114.99 15.1819 1116.28 15.1819C1117.26 15.1819 1117.41 15.7125 1117.34 16.1673C1117.34 16.1673 1117.03 16.0915 1116.12 16.0915C1114 16.0915 1112.94 17.0768 1112.94 18.5928C1112.94 20.0329 1114.15 20.6393 1115.14 20.6393C1116.58 20.6393 1117.26 19.6539 1117.49 19.1991C1117.64 18.896 1117.64 18.6686 1117.79 18.6686C1117.94 18.6686 1117.87 18.8202 1117.87 19.1233C1117.87 19.6539 1117.87 20.1087 1117.94 20.4877H1119.91V17.001C1119.99 14.8029 1119.16 13.2112 1116.81 13.2112ZM1116.2 18.896C1115.59 19.0475 1115.29 18.8202 1115.29 18.4412C1115.29 17.9106 1115.9 17.6832 1116.73 17.6832H1117.41C1117.41 17.9106 1116.88 18.7444 1116.2 18.896Z" fill="#101828"/>
<path fill-rule="evenodd" clip-rule="evenodd" d="M1124.24 11.2405H1126.81V20.5635H1124.24V11.2405Z" fill="#101828"/>
<path fill-rule="evenodd" clip-rule="evenodd" d="M1129.69 17.001C1129.69 16.3947 1130.3 15.7883 1131.36 15.7883C1132.57 15.7883 1133.48 16.3947 1133.71 16.4705V13.9692C1133.71 13.9692 1132.95 13.2112 1131.06 13.2112C1129.09 13.2112 1127.49 14.3482 1127.49 16.8494C1127.49 19.3507 1129.01 20.7151 1131.06 20.7151C1132.72 20.7151 1133.71 19.8055 1133.71 19.8055V17.4558C1133.41 17.6074 1132.5 18.2138 1131.36 18.2138C1130.15 18.2138 1129.69 17.6832 1129.69 17.001Z" fill="#101828"/>
<path fill-rule="evenodd" clip-rule="evenodd" d="M1138.94 13.2112C1137.42 13.2112 1136.89 14.6513 1136.74 14.8787C1136.59 15.1061 1136.59 15.2577 1136.44 15.2577C1136.29 15.2577 1136.36 14.9545 1136.44 14.7271C1136.59 14.3482 1136.82 13.4386 1136.82 12.2258C1136.82 11.3921 1136.74 11.1647 1136.74 11.1647H1134.47V20.4877H1137.04C1137.04 20.4877 1137.04 17.5316 1137.04 16.9252C1137.04 16.3189 1137.27 15.3335 1137.95 15.3335C1138.48 15.3335 1138.64 15.7125 1138.64 16.5463V20.4877H1141.21C1141.21 20.4877 1141.21 18.2896 1141.21 16.6978C1141.37 14.9545 1141.06 13.2112 1138.94 13.2112Z" fill="#101828"/>
<path fill-rule="evenodd" clip-rule="evenodd" d="M1142.2 13.4386V20.5635H1144.78V13.4386C1144.78 13.4386 1144.32 13.666 1143.49 13.666C1142.65 13.666 1142.2 13.4386 1142.2 13.4386Z" fill="#101828"/>
<path fill-rule="evenodd" clip-rule="evenodd" d="M1143.49 13.287C1144.37 13.287 1145.08 12.8119 1145.08 12.2258C1145.08 11.6398 1144.37 11.1647 1143.49 11.1647C1142.61 11.1647 1141.9 11.6398 1141.9 12.2258C1141.9 12.8119 1142.61 13.287 1143.49 13.287Z" fill="#101828"/>
<path fill-rule="evenodd" clip-rule="evenodd" d="M1120.82 20.5635H1123.4V13.4386C1123.4 13.4386 1122.95 13.666 1122.11 13.666C1121.28 13.666 1120.82 13.4386 1120.82 13.4386V20.5635Z" fill="#101828"/>
<path fill-rule="evenodd" clip-rule="evenodd" d="M1122.11 13.287C1122.99 13.287 1123.7 12.8119 1123.7 12.2258C1123.7 11.6398 1122.99 11.1647 1122.11 11.1647C1121.23 11.1647 1120.52 11.6398 1120.52 12.2258C1120.52 12.8119 1121.23 13.287 1122.11 13.287Z" fill="#101828"/>
<path d="M1161.53 13.2112C1160.16 13.2112 1159.56 14.1966 1159.33 14.8029C1159.18 15.1819 1159.18 15.2577 1159.03 15.2577C1158.87 15.2577 1159.03 14.9545 1159.1 14.5755C1159.25 13.8934 1159.18 13.3628 1159.18 13.3628H1157.28V22.4584H1159.86C1159.86 22.4584 1159.86 20.9425 1159.86 19.5781C1160.16 20.1087 1160.77 20.6393 1161.6 20.6393C1163.5 20.6393 1164.41 19.0475 1164.41 16.9252C1164.41 14.5755 1163.27 13.2112 1161.53 13.2112ZM1160.84 19.0475C1160.24 19.0475 1159.78 18.2896 1159.78 17.2284C1159.78 16.2431 1160.24 15.4093 1160.77 15.4093C1161.53 15.4093 1161.83 16.0915 1161.83 17.2284C1161.83 18.3654 1161.53 19.0475 1160.84 19.0475Z" fill="#101828"/>
<path fill-rule="evenodd" clip-rule="evenodd" d="M1092.48 15.4093H1093.01C1093.08 15.1819 1093.08 14.8787 1093.01 14.4997C1092.86 13.9692 1092.7 13.5902 1092.4 13.666C1092.1 13.7418 1092.02 14.1208 1092.17 14.7271C1092.25 14.9545 1092.4 15.2577 1092.48 15.4093Z" fill="#101828"/>
<path fill-rule="evenodd" clip-rule="evenodd" d="M1089.67 15.8641C1089.9 15.9399 1090.05 16.0157 1090.13 15.9399C1090.13 15.9399 1090.13 15.8641 1090.13 15.7125C1089.98 15.4851 1089.75 15.3335 1089.52 15.1819C1088.99 14.9545 1088.38 15.0303 1087.93 15.4093C1087.78 15.5609 1087.63 15.7125 1087.63 15.7883C1087.63 15.7883 1087.63 15.8641 1087.7 15.8641C1087.85 15.8641 1088.31 15.6367 1088.84 15.6367C1089.14 15.6367 1089.44 15.7125 1089.67 15.8641Z" fill="#101828"/>
<path fill-rule="evenodd" clip-rule="evenodd" d="M1089.22 16.0915C1088.91 16.1673 1088.76 16.2431 1088.61 16.3189C1088.53 16.3947 1088.46 16.4705 1088.46 16.5463V16.6221H1088.53C1088.61 16.6221 1088.76 16.5463 1088.76 16.5463C1089.22 16.3947 1089.44 16.3947 1089.75 16.4705H1089.98V16.3947C1089.9 16.2431 1089.6 16.0915 1089.22 16.0915Z" fill="#101828"/>
<path fill-rule="evenodd" clip-rule="evenodd" d="M1091.57 17.1526C1091.79 17.2284 1092.02 17.2284 1092.1 17.0768C1092.17 16.9252 1092.1 16.6978 1091.87 16.6221C1091.64 16.5463 1091.42 16.5463 1091.34 16.6978C1091.26 16.7736 1091.34 17.001 1091.57 17.1526Z" fill="#101828"/>
<path fill-rule="evenodd" clip-rule="evenodd" d="M1092.93 15.9399C1092.78 15.9399 1092.63 16.0915 1092.63 16.3947C1092.63 16.6221 1092.78 16.8494 1092.93 16.8494C1093.08 16.8494 1093.23 16.6978 1093.23 16.3947C1093.23 16.1673 1093.08 15.9399 1092.93 15.9399Z" fill="#101828"/>
<path fill-rule="evenodd" clip-rule="evenodd" d="M1081.41 20.1845C1081.33 20.1087 1081.33 20.1845 1081.26 20.1845C1081.18 20.1845 1081.18 20.1845 1081.11 20.1845C1080.96 20.1845 1080.88 20.1087 1080.8 20.0329C1080.73 19.8813 1080.73 19.7297 1080.8 19.5023C1080.8 19.5023 1080.8 19.4265 1080.88 19.4265C1081.03 19.1233 1081.26 18.5928 1080.96 18.138C1080.73 17.759 1080.42 17.5316 1080.05 17.4558C1079.67 17.38 1079.29 17.5316 1079.06 17.8348C1078.68 18.2138 1078.61 18.8202 1078.68 19.0475C1078.68 19.1233 1078.76 19.1233 1078.76 19.1233C1078.83 19.1233 1078.91 19.0475 1078.98 18.896C1078.98 18.896 1078.98 18.896 1078.98 18.8202C1078.98 18.7444 1079.06 18.5928 1079.14 18.4412C1079.21 18.2896 1079.36 18.2138 1079.59 18.138C1079.74 18.0622 1079.97 18.138 1080.12 18.2138C1080.35 18.3654 1080.5 18.7444 1080.35 19.0475C1080.27 19.1991 1080.2 19.5023 1080.2 19.7297C1080.27 20.2603 1080.58 20.4119 1080.8 20.4877C1081.11 20.4877 1081.26 20.3361 1081.33 20.2603C1081.49 20.1845 1081.49 20.1845 1081.41 20.1845Z" fill="#101828"/>
<path d="M1097.18 19.1991C1097.18 19.1991 1097.1 18.896 1097.02 18.5928C1096.95 18.2896 1096.87 18.0622 1096.87 18.0622C1097.25 17.5316 1097.25 17.001 1097.18 16.6978C1097.1 16.3189 1096.95 16.0157 1096.65 15.7125C1096.34 15.4093 1095.74 15.1061 1094.9 14.8787C1094.83 14.8787 1094.52 14.7271 1094.45 14.7271C1094.45 14.7271 1094.45 13.666 1094.37 13.2112C1094.37 12.908 1094.3 12.3774 1094.14 11.9227C1093.99 11.2405 1093.61 10.7099 1093.23 10.3309C1094.37 9.19398 1095.05 7.90543 1095.05 6.84428C1095.05 4.79777 1092.48 4.1156 1089.37 5.40414L1088.69 5.70733L1087.47 4.49458C1083.91 1.38692 1072.62 13.8176 1076.26 16.9252L1077.01 17.6074C1076.79 18.138 1076.71 18.7444 1076.79 19.4265C1076.86 20.2603 1077.32 21.0941 1078 21.7004C1078.68 22.3068 1079.52 22.6858 1080.35 22.6858C1081.71 25.945 1084.97 27.9158 1088.69 27.9916C1092.7 28.1431 1096.11 26.2482 1097.48 22.8374C1097.55 22.61 1097.93 21.5488 1097.93 20.5635C1098.09 19.6539 1097.55 19.1991 1097.18 19.1991ZM1080.73 21.7762C1080.58 21.7762 1080.5 21.7762 1080.35 21.7762C1079.14 21.7762 1077.85 20.6393 1077.7 19.3507C1077.54 17.9106 1078.3 16.8494 1079.59 16.5463C1079.74 16.5463 1079.97 16.4705 1080.12 16.4705C1080.88 16.5463 1081.94 17.0768 1082.17 18.6686C1082.4 20.1087 1082.09 21.5488 1080.73 21.7762ZM1079.44 15.7125C1078.61 15.8641 1077.92 16.3189 1077.47 16.9252C1077.24 16.6978 1076.71 16.3189 1076.63 16.0915C1075.95 14.8029 1077.39 12.2258 1078.38 10.7857C1080.88 7.22326 1084.82 4.49458 1086.64 5.02516C1086.94 5.10096 1087.93 6.23791 1087.93 6.23791C1087.93 6.23791 1086.11 7.22326 1084.44 8.6634C1082.17 10.4067 1080.42 12.9838 1079.44 15.7125ZM1092.17 21.2456C1092.17 21.1699 1092.17 21.0941 1092.17 21.0941C1092.17 21.0941 1090.28 21.3972 1088.46 20.7151C1088.69 20.1087 1089.14 20.3361 1089.98 20.3361C1091.42 20.4119 1092.63 20.1845 1093.61 19.9571C1094.45 19.7297 1095.51 19.2749 1096.34 18.5928C1096.65 19.1991 1096.72 19.8813 1096.72 19.8813C1096.72 19.8813 1096.95 19.8055 1097.1 19.9571C1097.25 20.0329 1097.4 20.2603 1097.33 20.8667C1097.18 21.9278 1096.72 22.7616 1095.96 23.5953C1095.51 24.1259 1094.98 24.5049 1094.3 24.8081C1093.99 24.9597 1093.61 25.1113 1093.23 25.2629C1090.35 26.1724 1087.47 25.1871 1086.56 22.989C1086.49 22.8374 1086.41 22.6858 1086.41 22.4584C1086.03 21.0183 1086.34 19.2749 1087.4 18.2138C1087.47 18.138 1087.55 18.0622 1087.55 17.9864C1087.55 17.9106 1087.47 17.8348 1087.47 17.759C1087.09 17.2284 1085.81 16.3189 1086.11 14.4997C1086.26 13.2112 1087.4 12.3016 1088.46 12.3774H1088.69C1089.14 12.3774 1089.52 12.4532 1089.9 12.4532C1090.51 12.4532 1091.11 12.3774 1091.72 11.8469C1091.95 11.6953 1092.1 11.4679 1092.4 11.4679H1092.7C1092.86 11.4679 1093.01 11.5437 1093.16 11.6195C1093.69 11.9985 1093.76 12.8322 1093.76 13.4386C1093.76 13.8176 1093.84 14.6513 1093.84 14.8787C1093.84 15.4093 1093.99 15.5609 1094.3 15.6367C1094.45 15.7125 1094.6 15.7125 1094.83 15.7883C1095.51 16.0157 1095.96 16.1673 1096.19 16.4705C1096.34 16.6221 1096.42 16.7736 1096.42 17.001C1096.49 17.6074 1095.96 18.3654 1094.52 19.0475C1092.93 19.8055 1090.96 19.9571 1089.67 19.8055C1089.6 19.8055 1089.22 19.7297 1089.22 19.7297C1088.16 19.5781 1087.55 20.9425 1088.16 21.9278C1088.53 22.5342 1089.67 22.9132 1090.81 22.9132C1093.39 22.9132 1095.36 21.7762 1096.11 20.8667C1096.11 20.8667 1096.11 20.8667 1096.19 20.7909C1096.19 20.7151 1096.19 20.7151 1096.11 20.7151C1095.51 21.0941 1092.86 22.7616 1089.98 22.3068C1089.98 22.3068 1089.6 22.231 1089.29 22.1552C1089.07 22.0794 1088.53 21.7762 1088.46 21.2456C1090.66 21.9278 1092.17 21.2456 1092.17 21.2456ZM1084.06 10.7857C1084.97 9.72455 1086.03 8.89079 1087.02 8.36021C1087.02 8.36021 1087.09 8.36021 1087.09 8.43601C1087.02 8.5876 1086.87 8.89079 1086.79 9.11818C1086.79 9.11818 1086.79 9.19398 1086.87 9.19398C1087.47 8.81499 1088.53 8.36021 1089.44 8.28442C1089.52 8.28442 1089.52 8.36021 1089.44 8.36021C1089.29 8.43601 1089.14 8.5876 1089.07 8.7392V8.81499C1089.75 8.81499 1090.66 9.04238 1091.26 9.42137C1091.34 9.42137 1091.26 9.49716 1091.26 9.49716C1090.35 9.26977 1088.84 9.11818 1087.32 9.49716C1085.88 9.80035 1084.82 10.3309 1084.06 10.7857C1084.06 10.9373 1083.99 10.8615 1084.06 10.7857Z" fill="#101828"/>
</svg>
