<svg width="55" height="55" viewBox="0 0 55 55" fill="none" xmlns="http://www.w3.org/2000/svg">
<path d="M4.36328 22.6426C10.7383 21.1426 21.6883 20.1676 18.9883 28.2676C15.6133 38.3926 16.7383 36.1426 18.9883 40.6426C20.7883 44.2426 19.7383 48.1426 18.9883 49.6426M12.2383 9.14258C15.6133 8.39258 23.4883 7.79258 27.9883 11.3926C33.6133 15.8926 32.4883 22.6426 48.2383 13.6426M52.7383 27.1426C52.7383 40.8116 41.6573 51.8926 27.9883 51.8926C14.3192 51.8926 3.23828 40.8116 3.23828 27.1426C3.23828 13.4735 14.3192 2.39258 27.9883 2.39258C41.6573 2.39258 52.7383 13.4735 52.7383 27.1426ZM33.2244 27.8154C41.0994 26.6904 43.7383 26.0176 41.4883 31.6426C39.3992 36.8653 33.2244 47.3155 28.7244 36.8154C27.5994 34.1904 26.9244 28.7154 33.2244 27.8154Z" stroke="#FCA61F" stroke-width="2" stroke-linecap="round"/>
</svg>
