<svg width="1240" height="552" viewBox="0 0 1240 552" fill="none" xmlns="http://www.w3.org/2000/svg">
<g clip-path="url(#clip0_1254_30681)">
<rect width="1240" height="552" rx="30" fill="#E7F3BC"/>
<ellipse cx="1066.4" cy="587.541" rx="72.6863" ry="65.3588" transform="rotate(90 1066.4 587.541)" fill="white" fill-opacity="0.41"/>
<ellipse cx="1199.17" cy="440.191" rx="73.0912" ry="65.7229" transform="rotate(90 1199.17 440.191)" fill="white" fill-opacity="0.41"/>
<path opacity="0.1" d="M1001.04 294.008C1001.04 303.607 1002.74 313.111 1006.04 321.979C1009.34 330.847 1014.19 338.905 1020.29 345.692C1026.39 352.479 1033.64 357.863 1041.61 361.536C1049.58 365.209 1058.13 367.1 1066.76 367.1C1075.39 367.1 1083.94 365.209 1091.91 361.536C1099.89 357.863 1107.13 352.479 1113.24 345.692C1119.34 338.905 1124.18 330.847 1127.48 321.979C1130.78 313.111 1132.48 303.607 1132.48 294.008L1066.76 294.008L1001.04 294.008Z" fill="white"/>
<path opacity="0.1" d="M934.999 513.412C943.664 513.412 952.243 511.514 960.248 507.827C968.253 504.139 975.527 498.734 981.654 491.921C987.78 485.107 992.64 477.018 995.956 468.116C999.272 459.213 1000.98 449.672 1000.98 440.036C1000.98 430.4 999.272 420.858 995.956 411.956C992.64 403.053 987.78 394.964 981.654 388.151C975.527 381.337 968.253 375.932 960.248 372.245C952.243 368.557 943.664 366.659 934.999 366.659L934.999 440.036L934.999 513.412Z" fill="white"/>
<rect opacity="0.2" x="1132.96" y="366.704" width="146.704" height="131.916" transform="rotate(90 1132.96 366.704)" fill="white"/>
<path d="M1264.87 513.407L1194.6 589.424L1132.96 660.111L1132.96 513.407L1264.87 513.407Z" fill="white" fill-opacity="0.41"/>
<path d="M1132.96 366.704L1203.23 290.687L1264.87 220L1264.87 366.704L1132.96 366.704Z" fill="white" fill-opacity="0.41"/>
<ellipse cx="59.399" cy="205.542" rx="72.6863" ry="65.3588" transform="rotate(90 59.399 205.542)" fill="white" fill-opacity="0.41"/>
<ellipse cx="192.168" cy="58.1917" rx="73.0912" ry="65.7229" transform="rotate(90 192.168 58.1917)" fill="white" fill-opacity="0.41"/>
<rect opacity="0.2" x="125.955" y="-15.2949" width="146.704" height="131.916" transform="rotate(90 125.955 -15.2949)" fill="white"/>
<path d="M257.873 131.408L187.596 207.425L125.958 278.112L125.958 131.408L257.873 131.408Z" fill="white" fill-opacity="0.41"/>
</g>
<defs>
<clipPath id="clip0_1254_30681">
<rect width="1240" height="552" rx="30" fill="white"/>
</clipPath>
</defs>
</svg>
