<svg width="39" height="39" viewBox="0 0 39 39" fill="none" xmlns="http://www.w3.org/2000/svg">
<g id="globe">
<path id="Icon" d="M19.5 37.375C29.3721 37.375 37.375 29.3721 37.375 19.5C37.375 9.62791 29.3721 1.625 19.5 1.625M19.5 37.375C9.62791 37.375 1.625 29.3721 1.625 19.5C1.625 9.62791 9.62791 1.625 19.5 1.625M19.5 37.375C23.0899 37.375 26 29.3721 26 19.5C26 9.62791 23.0899 1.625 19.5 1.625M19.5 37.375C15.9101 37.375 13 29.3721 13 19.5C13 9.62791 15.9101 1.625 19.5 1.625M3.25 13H35.75M3.25 24.375H35.75" stroke="#1E76FA" stroke-width="2" stroke-linecap="round"/>
</g>
</svg>
