<svg width="55" height="55" viewBox="0 0 55 55" fill="none" xmlns="http://www.w3.org/2000/svg">
<path fill-rule="evenodd" clip-rule="evenodd" d="M39.8604 31.3952C41.3786 31.3952 42.6528 32.6481 42.4207 34.1473C41.0588 42.9673 33.5083 49.516 24.4017 49.516C14.3265 49.516 6.16016 41.3497 6.16016 31.2768C6.16016 22.9779 12.4649 15.2473 19.5631 13.4994C21.0883 13.1229 22.6515 14.1958 22.6515 15.766C22.6515 26.405 23.0091 29.1571 25.0294 30.6539C27.0496 32.1508 29.4252 31.3952 39.8604 31.3952Z" stroke="#6DEDC3" stroke-width="2.5" stroke-linecap="round" stroke-linejoin="round"/>
<path fill-rule="evenodd" clip-rule="evenodd" d="M49.7897 22.5352C49.9105 15.7 41.5145 4.68208 31.2829 4.87155C30.4871 4.88576 29.85 5.54892 29.8145 6.34234C29.5563 11.9626 29.9045 19.2455 30.0987 22.5471C30.1579 23.575 30.9655 24.3826 31.9911 24.4418C35.385 24.636 42.9332 24.9013 48.4729 24.0629C49.2261 23.9492 49.7779 23.2955 49.7897 22.5352Z" stroke="#6DEDC3" stroke-width="2.5" stroke-linecap="round" stroke-linejoin="round"/>
</svg>
