<svg width="70" height="69" viewBox="0 0 70 69" fill="none" xmlns="http://www.w3.org/2000/svg">
<path fill-rule="evenodd" clip-rule="evenodd" d="M35 69C54.0538 69 69.5 53.5538 69.5 34.5C69.5 15.4462 54.0538 0 35 0C15.9462 0 0.5 15.4462 0.5 34.5C0.5 53.5538 15.9462 69 35 69Z" fill="#C2C2D2" fill-opacity="0.1"/>
<path d="M31.4994 35.333C30.6194 35.773 29.886 36.4263 29.3394 37.2397C29.0327 37.7063 29.0327 38.293 29.3394 38.7597C29.886 39.573 30.6194 40.2263 31.4994 40.6663" stroke="#5454D4" stroke-width="2" stroke-linecap="round" stroke-linejoin="round"/>
<path d="M39.7812 35.333C40.6613 35.773 41.3946 36.4263 41.9412 37.2397C42.2479 37.7063 42.2479 38.293 41.9412 38.7597C41.3946 39.573 40.6613 40.2263 39.7812 40.6663" stroke="#5454D4" stroke-width="2" stroke-linecap="round" stroke-linejoin="round"/>
<path d="M31.4998 47.3337H39.4998C46.1665 47.3337 48.8332 44.667 48.8332 38.0003V30.0003C48.8332 23.3337 46.1665 20.667 39.4998 20.667H31.4998C24.8332 20.667 22.1665 23.3337 22.1665 30.0003V38.0003C22.1665 44.667 24.8332 47.3337 31.4998 47.3337Z" stroke="#5454D4" stroke-width="2" stroke-linecap="round" stroke-linejoin="round"/>
<path d="M22.4741 28.6803L48.1008 28.667" stroke="#5454D4" stroke-width="2" stroke-linecap="round" stroke-linejoin="round"/>
</svg>
