<svg width="69" height="69" viewBox="0 0 69 69" fill="none" xmlns="http://www.w3.org/2000/svg">
<path fill-rule="evenodd" clip-rule="evenodd" d="M34.5 69C53.5538 69 69 53.5538 69 34.5C69 15.4462 53.5538 0 34.5 0C15.4462 0 0 15.4462 0 34.5C0 53.5538 15.4462 69 34.5 69Z" fill="#9D9DA8" fill-opacity="0.1"/>
<path d="M48.3332 37.9998V29.9998C48.3332 23.3332 45.6665 20.6665 38.9998 20.6665H30.9998C24.3332 20.6665 21.6665 23.3332 21.6665 29.9998V37.9998C21.6665 44.6665 24.3332 47.3332 30.9998 47.3332H38.9998C45.6665 47.3332 48.3332 44.6665 48.3332 37.9998Z" stroke="#F04037" stroke-width="2" stroke-linecap="round" stroke-linejoin="round"/>
<path d="M22.3599 27.48H47.6399" stroke="#F04037" stroke-width="2" stroke-linecap="round" stroke-linejoin="round"/>
<path d="M30.3599 20.813V27.293" stroke="#F04037" stroke-width="2" stroke-linecap="round" stroke-linejoin="round"/>
<path d="M39.6401 20.813V26.693" stroke="#F04037" stroke-width="2" stroke-linecap="round" stroke-linejoin="round"/>
<path d="M32 37.2667V35.6667C32 33.6133 33.4533 32.7733 35.2267 33.8L36.6133 34.6L38 35.4C39.7733 36.4267 39.7733 38.1067 38 39.1333L36.6133 39.9333L35.2267 40.7333C33.4533 41.76 32 40.92 32 38.8667V37.2667V37.2667Z" stroke="#F04037" stroke-width="2" stroke-miterlimit="10" stroke-linecap="round" stroke-linejoin="round"/>
</svg>
