<svg width="70" height="69" viewBox="0 0 70 69" fill="none" xmlns="http://www.w3.org/2000/svg">
<path fill-rule="evenodd" clip-rule="evenodd" d="M35 69C54.0538 69 69.5 53.5538 69.5 34.5C69.5 15.4462 54.0538 0 35 0C15.9462 0 0.5 15.4462 0.5 34.5C0.5 53.5538 15.9462 69 35 69Z" fill="#9D9DA8" fill-opacity="0.1"/>
<path d="M36.8459 21.8928L44.7125 25.3861C46.9792 26.3861 46.9792 28.0394 44.7125 29.0394L36.8459 32.5328C35.9525 32.9328 34.4859 32.9328 33.5925 32.5328L25.7259 29.0394C23.4592 28.0394 23.4592 26.3861 25.7259 25.3861L33.5925 21.8928C34.4859 21.4928 35.9525 21.4928 36.8459 21.8928Z" stroke="#F04037" stroke-width="2" stroke-linecap="round" stroke-linejoin="round"/>
<path d="M23.5 32.667C23.5 33.787 24.34 35.0803 25.3667 35.5337L34.42 39.5603C35.1133 39.867 35.9 39.867 36.58 39.5603L45.6333 35.5337C46.66 35.0803 47.5 33.787 47.5 32.667" stroke="#F04037" stroke-width="2" stroke-linecap="round" stroke-linejoin="round"/>
<path d="M23.5 39.333C23.5 40.573 24.2333 41.693 25.3667 42.1997L34.42 46.2263C35.1133 46.533 35.9 46.533 36.58 46.2263L45.6333 42.1997C46.7667 41.693 47.5 40.573 47.5 39.333" stroke="#F04037" stroke-width="2" stroke-linecap="round" stroke-linejoin="round"/>
</svg>
