<svg width="70" height="69" viewBox="0 0 70 69" fill="none" xmlns="http://www.w3.org/2000/svg">
<path fill-rule="evenodd" clip-rule="evenodd" d="M35 69C54.0538 69 69.5 53.5538 69.5 34.5C69.5 15.4462 54.0538 0 35 0C15.9462 0 0.5 15.4462 0.5 34.5C0.5 53.5538 15.9462 69 35 69Z" fill="#9D9DA8" fill-opacity="0.1"/>
<path d="M28.5137 44.8337H42.4871C46.1671 44.8337 47.6337 43.0028 47.8071 40.7712L48.5004 31.8228C48.6871 29.4828 46.3937 27.5003 43.5004 27.5003C42.6871 27.5003 41.9404 27.1212 41.5671 26.5362L40.6071 24.9653C39.9937 23.9795 38.3937 23.167 37.0337 23.167H33.9804C32.6071 23.167 31.0071 23.9795 30.3937 24.9653L29.4337 26.5362C29.0604 27.1212 28.3137 27.5003 27.5004 27.5003C24.6071 27.5003 22.3137 29.4828 22.5004 31.8228L23.1937 40.7712C23.3537 43.0028 24.8337 44.8337 28.5137 44.8337Z" stroke="#5454D4" stroke-width="2" stroke-linecap="round" stroke-linejoin="round"/>
<path d="M33.5 29.667H37.5" stroke="#5454D4" stroke-width="2" stroke-linecap="round" stroke-linejoin="round"/>
<path d="M35.4998 40.5002C37.8865 40.5002 39.8332 38.9185 39.8332 36.9793C39.8332 35.0402 37.8865 33.4585 35.4998 33.4585C33.1132 33.4585 31.1665 35.0402 31.1665 36.9793C31.1665 38.9185 33.1132 40.5002 35.4998 40.5002Z" stroke="#5454D4" stroke-width="2" stroke-linecap="round" stroke-linejoin="round"/>
</svg>
