<svg width="37" height="37" viewBox="0 0 37 37" fill="none" xmlns="http://www.w3.org/2000/svg">
<path fill-rule="evenodd" clip-rule="evenodd" d="M35.7906 22.3099C35.5618 22.219 35.3006 22.2759 35.1306 22.4539L32.568 25.1472V9.1493H32.571L35.0161 6.50948C35.241 6.26642 35.2262 5.8866 34.9828 5.66167L34.9823 5.66112L34.1023 4.84215L35.325 3.52224C35.5497 3.27891 35.5346 2.89936 35.2913 2.67471L32.6512 0.229883C32.4082 0.00495414 32.0286 0.01951 31.8036 0.262839L27.5377 4.86879H6.76801C6.76608 3.21272 5.4241 1.87084 3.76791 1.86892H3.16806C1.51187 1.87084 0.169891 3.21272 0.167969 4.86879V30.6669C0.167969 30.9981 0.436584 31.2667 0.768097 31.2667H9.85077L8.59064 32.7797C8.37888 33.0346 8.41348 33.4127 8.66809 33.6245L11.4347 35.9279C11.6893 36.1399 12.0678 36.1053 12.2798 35.8507L12.2801 35.8504L15.3511 32.1612C15.5631 31.9058 15.6996 31.5957 15.7447 31.2667H26.739L23.133 35.0531C22.9047 35.2932 22.9143 35.673 23.1544 35.9012C23.2659 36.0072 23.4139 36.0666 23.568 36.0663H35.5678C35.8994 36.0663 36.168 35.7977 36.168 35.4665V22.8675C36.168 22.6219 36.0186 22.4011 35.7906 22.3099ZM33.7279 6.12855L32.568 7.38309V6.50068L33.2879 5.72071L33.7279 6.12855ZM31.368 6.03023V6.02171H31.3752L32.4065 4.90833L30.6443 3.27808L24.5315 9.88367L26.2937 11.5139L31.368 6.03023ZM25.1413 12.0813L23.7611 12.4839L24.0558 11.0764L25.1413 12.0813ZM34.0361 3.14625L32.2747 1.51683L31.4592 2.39759L33.2209 4.02867L34.0361 3.14625ZM3.16806 3.06881H3.76791C4.76218 3.06881 5.56802 3.87459 5.56802 4.86878V27.6827C5.05167 27.2856 4.41913 27.0691 3.76791 27.0669H3.16806C2.51657 27.0691 1.88431 27.2856 1.36795 27.6827V4.86878C1.36795 3.87459 2.1738 3.06881 3.16806 3.06881ZM3.76791 28.2668H3.16806C2.1738 28.2668 1.36795 29.0729 1.36795 30.0668H5.56802C5.56802 29.0729 4.76218 28.2668 3.76791 28.2668ZM14.4293 31.3939L14.0453 31.8547L12.201 30.3195L12.5844 29.8581C12.7965 29.6035 13.1747 29.5689 13.4293 29.7809L13.4296 29.781L13.4298 29.7812L14.3519 30.5469C14.6068 30.7586 14.6416 31.1368 14.4299 31.3917L14.4293 31.3922V31.3939ZM9.89746 33.0865L11.7421 34.6217L13.2774 32.7769L11.4331 31.2414L9.89746 33.0865ZM15.4925 30.0668C15.3928 29.9007 15.2668 29.7521 15.1193 29.6266L14.1972 28.8592C13.4331 28.2232 12.2982 28.3267 11.6621 29.0907L10.8481 30.0668H6.76801V6.06868H26.4275L23.2434 9.50934C23.1978 9.5607 23.1615 9.62002 23.1365 9.68401C23.1294 9.70131 23.1239 9.71751 23.1179 9.73564C23.1156 9.74251 23.1129 9.74942 23.1102 9.75641C23.1058 9.7676 23.1013 9.77901 23.0986 9.79084L22.3823 13.2153C22.3148 13.5396 22.5229 13.8574 22.8473 13.925C22.9437 13.945 23.0434 13.9412 23.1376 13.9137L26.4978 12.9346C26.5062 12.932 26.5138 12.9282 26.5214 12.9244C26.528 12.9211 26.5346 12.9178 26.5415 12.9154C26.5566 12.9099 26.5722 12.9022 26.5884 12.8943C26.6557 12.8638 26.7167 12.8206 26.7683 12.7676L31.368 7.79697V26.407L27.8821 30.0668H15.4925ZM24.9677 34.8664H34.968V24.3672L24.9677 34.8664ZM28.9681 33.6665C28.7253 33.6665 28.5064 33.5204 28.4135 33.2963C28.3207 33.0722 28.3721 32.814 28.5437 32.6424L32.7438 28.4429C32.8561 28.3303 33.0089 28.2671 33.1679 28.2671C33.4991 28.2671 33.768 28.5354 33.768 28.8669V33.0667C33.768 33.3979 33.4994 33.6665 33.1679 33.6665H28.9681ZM32.568 32.4666V30.3151L30.4164 32.4666H32.568ZM22.368 22.8675H26.5678C26.8994 22.8675 27.168 23.136 27.168 23.4673C27.168 23.7987 26.8994 24.0673 26.5681 24.0673H9.7681C9.43658 24.0673 9.16797 23.7987 9.16797 23.4673C9.16797 23.136 9.43658 22.8675 9.7681 22.8675H13.9679V16.2679C13.9684 16.1089 14.0313 15.9562 14.1431 15.843L17.7431 12.2434C17.9774 12.0091 18.3572 12.0091 18.5915 12.2434L22.1914 15.843C22.3038 15.9559 22.3672 16.1086 22.368 16.2679V22.8675ZM20.3196 15.6678L18.168 13.5163L16.0163 15.6678H20.3196ZM21.1681 16.8677V22.8674H15.1679V16.8677H21.1681ZM17.5678 9.66835H18.7681V10.8682H17.5678V9.66835ZM18.7681 26.4671V25.2672H17.5678V26.4671H18.7681Z" fill="black"/>
</svg>
