<svg width="27" height="26" viewBox="0 0 27 26" fill="none" xmlns="http://www.w3.org/2000/svg">
<rect width="27" height="26" rx="13" fill="#F5F7AE" fill-opacity="0.43"/>
<path d="M8.75033 8.91927L13.2841 12.4455C13.7054 12.7732 14.2953 12.7732 14.7166 12.4455L19.2503 8.91927M10.0337 17.6693H17.967C18.6204 17.6693 18.9471 17.6693 19.1966 17.5421C19.4162 17.4303 19.5946 17.2518 19.7065 17.0323C19.8337 16.7827 19.8337 16.456 19.8337 15.8026V10.2026C19.8337 9.54921 19.8337 9.22251 19.7065 8.97295C19.5946 8.75343 19.4162 8.57495 19.1966 8.4631C18.9471 8.33594 18.6204 8.33594 17.967 8.33594H10.0337C9.38026 8.33594 9.05357 8.33594 8.804 8.4631C8.58448 8.57495 8.406 8.75343 8.29415 8.97295C8.16699 9.22251 8.16699 9.54921 8.16699 10.2026V15.8026C8.16699 16.456 8.16699 16.7827 8.29415 17.0323C8.406 17.2518 8.58448 17.4303 8.804 17.5421C9.05357 17.6693 9.38026 17.6693 10.0337 17.6693Z" stroke="#F7D116"/>
</svg>
