<svg width="27" height="26" viewBox="0 0 27 26" fill="none" xmlns="http://www.w3.org/2000/svg">
<rect width="27" height="26" rx="13" fill="#F7C4AE" fill-opacity="0.43"/>
<path d="M18 8.49063V16.9818C18.0001 17.0577 17.9851 17.1326 17.9564 17.2006C17.9277 17.2686 17.8859 17.3277 17.8344 17.3735C17.7829 17.4192 17.723 17.4503 17.6596 17.4642C17.5961 17.478 17.5308 17.4744 17.4687 17.4535L8.30208 14.3107C8.21498 14.2814 8.13836 14.2195 8.08385 14.1344C8.02934 14.0492 7.99991 13.9455 8 13.839V11.6335C7.99991 11.5269 8.02934 11.4232 8.08385 11.3381C8.13836 11.2529 8.21498 11.191 8.30208 11.1617L17.4687 8.0189C17.5308 7.99802 17.5961 7.99438 17.6596 8.00828C17.723 8.02217 17.7829 8.05321 17.8344 8.09894C17.8859 8.14468 17.9277 8.20387 17.9564 8.27184C17.9851 8.33982 18.0001 8.41471 18 8.49063Z" stroke="#FF80AD" stroke-width="0.714286" stroke-linecap="round" stroke-linejoin="round"/>
<path d="M10.2727 15.303V17.5123C10.2727 17.6414 10.3126 17.7652 10.3836 17.8566C10.4547 17.9479 10.551 17.9992 10.6515 17.9992H12.1666C12.2671 17.9992 12.3634 17.9479 12.4345 17.8566C12.5055 17.7652 12.5454 17.6414 12.5454 17.5123V10.1055" stroke="#FF80AD" stroke-width="0.714286" stroke-linecap="round" stroke-linejoin="round"/>
</svg>
