<svg width="39" height="39" viewBox="0 0 39 39" fill="none" xmlns="http://www.w3.org/2000/svg">
<g id="message/circle/2/text ">
<path id="Icon" d="M13 16.25H26M13 22.75H19.5M34.125 19.5C34.125 27.5772 27.5772 34.125 19.5 34.125C17.6199 34.125 15.8226 33.7702 14.1715 33.124C13.551 32.8811 12.8797 32.7769 12.2226 32.8876L6.00073 33.9354C5.44982 34.0282 4.97181 33.5502 5.06458 32.9993L6.11239 26.7774C6.22306 26.1203 6.11889 25.449 5.87602 24.8284C5.22977 23.1774 4.875 21.3801 4.875 19.5C4.875 11.4228 11.4228 4.875 19.5 4.875C27.5772 4.875 34.125 11.4228 34.125 19.5Z" stroke="#FFC700" stroke-width="3.25" stroke-linecap="round"/>
</g>
</svg>
