<svg width="39" height="39" viewBox="0 0 39 39" fill="none" xmlns="http://www.w3.org/2000/svg">
<g id="chart/trend">
<path id="Icon" d="M18.4495 15.1995L19.1566 14.4924L18.4495 15.1995ZM23.8005 20.5505L23.0934 21.2576L23.8005 20.5505ZM24.9495 20.5505L25.6566 21.2576L25.6566 21.2576L24.9495 20.5505ZM34.8321 12.0821C35.2226 11.6916 35.2226 11.0584 34.8321 10.6679C34.4416 10.2774 33.8084 10.2774 33.4179 10.6679L34.8321 12.0821ZM9.04289 22.0429C8.65237 22.4334 8.65237 23.0666 9.04289 23.4571C9.43342 23.8476 10.0666 23.8476 10.4571 23.4571L9.04289 22.0429ZM17.3005 15.1995L18.0076 15.9066V15.9066L17.3005 15.1995ZM27.625 8.75C27.0727 8.75 26.625 9.19772 26.625 9.75C26.625 10.3023 27.0727 10.75 27.625 10.75V8.75ZM34.75 17.875C34.75 18.4273 35.1977 18.875 35.75 18.875C36.3023 18.875 36.75 18.4273 36.75 17.875H34.75ZM35.75 33.5C36.3023 33.5 36.75 33.0523 36.75 32.5C36.75 31.9477 36.3023 31.5 35.75 31.5V33.5ZM4.25 6.5C4.25 5.94772 3.80228 5.5 3.25 5.5C2.69772 5.5 2.25 5.94772 2.25 6.5H4.25ZM6.79906 31.7915L7.25305 30.9005L6.79906 31.7915ZM3.95846 28.9509L3.06745 29.4049H3.06745L3.95846 28.9509ZM17.7424 15.9066L23.0934 21.2576L24.5076 19.8434L19.1566 14.4924L17.7424 15.9066ZM25.6566 21.2576L34.8321 12.0821L33.4179 10.6679L24.2424 19.8434L25.6566 21.2576ZM10.4571 23.4571L18.0076 15.9066L16.5934 14.4924L9.04289 22.0429L10.4571 23.4571ZM23.0934 21.2576C23.8012 21.9654 24.9488 21.9654 25.6566 21.2576L24.2424 19.8434C24.3156 19.7701 24.4344 19.7701 24.5076 19.8434L23.0934 21.2576ZM19.1566 14.4924C18.4488 13.7846 17.3012 13.7846 16.5934 14.4924L18.0076 15.9066C17.9344 15.9799 17.8156 15.9799 17.7424 15.9066L19.1566 14.4924ZM27.625 10.75H34.9375V8.75H27.625V10.75ZM34.75 10.5625V17.875H36.75V10.5625H34.75ZM34.9375 10.75C34.8339 10.75 34.75 10.6661 34.75 10.5625H36.75C36.75 9.56148 35.9385 8.75 34.9375 8.75V10.75ZM35.75 31.5H13.65V33.5H35.75V31.5ZM4.25 22.1V6.5H2.25V22.1H4.25ZM13.65 31.5C11.8133 31.5 10.496 31.4992 9.46224 31.4148C8.4402 31.3313 7.7838 31.171 7.25305 30.9005L6.34507 32.6825C7.20475 33.1206 8.15365 33.3145 9.29938 33.4081C10.4334 33.5008 11.8463 33.5 13.65 33.5V31.5ZM2.25 22.1C2.25 23.9037 2.24922 25.3166 2.34188 26.4506C2.43549 27.5963 2.62942 28.5452 3.06745 29.4049L4.84946 28.4969C4.57904 27.9662 4.41874 27.3098 4.33524 26.2878C4.25078 25.254 4.25 23.9367 4.25 22.1H2.25ZM7.25305 30.9005C6.21816 30.3732 5.37677 29.5318 4.84946 28.4969L3.06745 29.4049C3.7865 30.8161 4.93386 31.9635 6.34507 32.6825L7.25305 30.9005Z" fill="#007CA4"/>
</g>
</svg>
