<svg width="39" height="39" viewBox="0 0 39 39" fill="none" xmlns="http://www.w3.org/2000/svg">
<g id="UsersThree-r">
<rect width="39" height="39" fill="#FFF0E9"/>
<g id="Vector">
<path fill-rule="evenodd" clip-rule="evenodd" d="M19.5 14.0156C19.5 14.0156 22.5289 14.0156 24.6707 16.1574C24.6707 16.1574 26.8125 18.2992 26.8125 21.3281C26.8125 21.3281 26.8125 24.3571 24.6707 26.4988C24.6707 26.4988 22.5289 28.6406 19.5 28.6406C19.5 28.6406 16.4711 28.6406 14.3293 26.4988C14.3293 26.4988 12.1875 24.3571 12.1875 21.3281C12.1875 21.3281 12.1875 18.2992 14.3293 16.1574C14.3293 16.1574 16.4711 14.0156 19.5 14.0156ZM19.5 16.4531C19.5 16.4531 17.4807 16.4531 16.0529 17.881C16.0529 17.881 14.625 19.3088 14.625 21.3281C14.625 21.3281 14.625 23.3474 16.0529 24.7753C16.0529 24.7753 17.4807 26.2031 19.5 26.2031C19.5 26.2031 21.5193 26.2031 22.9471 24.7753C22.9471 24.7753 24.375 23.3474 24.375 21.3281C24.375 21.3281 24.375 19.3088 22.9471 17.881C22.9471 17.881 21.5193 16.4531 19.5 16.4531Z" fill="#CD6132"/>
<path d="M36.1953 22.0572C36.3888 22.3161 36.6776 22.4881 36.9975 22.5344C37.0553 22.5427 37.1136 22.5469 37.1719 22.5469L37.174 22.5469C37.4363 22.5464 37.6914 22.4614 37.9015 22.3044C38.2094 22.0743 38.3907 21.7125 38.3907 21.3281L38.3906 21.3142C38.3876 21.056 38.3027 20.8054 38.1481 20.5985L38.1471 20.5971C36.6822 18.6377 34.4939 17.5436 34.4939 17.5436C32.3048 16.449 29.8574 16.4531 29.8574 16.4531L29.8594 16.4531C30.5325 16.4531 31.0782 16.9988 31.0782 17.6719C31.0782 18.3439 30.5341 18.8891 29.8621 18.8906L36.1953 22.0572Z" fill="#CD6132"/>
<path d="M5.59624 19.7237C7.26871 18.8875 9.13859 18.8906 9.13859 18.8906L9.14029 18.8906C9.15914 18.8906 9.17831 18.8902 9.19713 18.8893C9.49979 18.8753 9.78637 18.749 10.001 18.5351C10.2299 18.3069 10.3588 17.9972 10.3594 17.6739L10.3594 17.6722C10.3594 17.5985 10.3527 17.5246 10.3394 17.4521C10.2334 16.8742 9.73023 16.4541 9.14266 16.4531L9.14062 16.4531C6.69431 16.4495 4.50616 17.5436 4.50616 17.5436C2.31787 18.6377 0.852942 20.5971 0.852942 20.5971L0.852061 20.5983C0.694453 20.8092 0.609375 21.0651 0.609375 21.3281L0.609442 21.3409C0.610008 21.395 0.614175 21.449 0.621914 21.5025C0.668161 21.8224 0.839597 22.1109 1.09851 22.3044C1.30917 22.4618 1.56512 22.5469 1.82812 22.5469C1.84442 22.5469 1.86071 22.5466 1.87699 22.5459C2.24386 22.5312 2.58454 22.3519 2.80435 22.0578C3.92377 20.56 5.59624 19.7237 5.59624 19.7237Z" fill="#CD6132"/>
<path d="M24.0273 29.9421C26.104 31.2391 27.1788 33.4388 27.1788 33.4388L27.1795 33.4402C27.3838 33.8588 27.8092 34.125 28.275 34.125L28.3084 34.1245C28.4824 34.1197 28.6533 34.0778 28.8097 34.0014C29.2283 33.797 29.4937 33.372 29.4937 32.9062L29.4933 32.8728C29.4885 32.6988 29.4465 32.5279 29.3701 32.3715C27.9888 29.5431 25.3185 27.8747 25.3185 27.8747C22.6482 26.207 19.5 26.207 19.5 26.207C16.3517 26.207 13.6815 27.8747 13.6815 27.8747C11.0117 29.5422 9.63029 32.3705 9.63029 32.3705C9.54892 32.5371 9.50624 32.7209 9.50624 32.9062L9.50634 32.9221C9.50803 33.0516 9.53034 33.18 9.57246 33.3025C9.67755 33.6082 9.89977 33.8596 10.1902 34.0014C10.3568 34.0827 10.5397 34.125 10.725 34.125L10.753 34.1246C11.2085 34.1142 11.6202 33.8505 11.8201 33.441C12.895 31.2398 14.9727 29.9421 14.9727 29.9421C17.0504 28.6445 19.5 28.6445 19.5 28.6445C21.9496 28.6445 24.0273 29.9421 24.0273 29.9421Z" fill="#CD6132"/>
<path d="M11.8004 10.2934C12.5278 11.0677 12.7271 12.1113 12.7271 12.1113C12.7877 12.4288 12.9719 12.7092 13.2393 12.8909C13.4413 13.0281 13.6799 13.1015 13.9242 13.1015L13.9321 13.1015C14.0061 13.101 14.08 13.0938 14.1527 13.0799C14.7273 12.9702 15.1429 12.4678 15.1429 11.8828L15.1429 11.8759C15.1425 11.8015 15.1353 11.7273 15.1213 11.6543C14.7893 9.91491 13.5768 8.62435 13.5768 8.62435C12.3644 7.3338 10.6491 6.89402 10.6491 6.89402C8.93379 6.45424 7.24994 7.00221 7.24994 7.00221C5.56609 7.55017 4.43813 8.91521 4.43813 8.91521C3.31018 10.2803 3.08944 12.0372 3.08944 12.0372C2.8687 13.7942 3.62392 15.3958 3.62392 15.3958C4.37914 16.9974 5.87511 17.9449 5.87511 17.9449C7.37055 18.8921 9.14029 18.8906 9.14029 18.8906L9.14184 18.8906C9.46507 18.8903 9.77493 18.7615 10.0033 18.5328C10.2313 18.3043 10.3594 17.995 10.3594 17.6722L10.3593 17.6706C10.3587 16.998 9.81324 16.4531 9.14062 16.4531L9.13936 16.4531C8.0769 16.4542 7.17933 15.8857 7.17933 15.8857C6.28175 15.3172 5.82861 14.3562 5.82861 14.3562C5.37548 13.3952 5.50792 12.3411 5.50792 12.3411C5.64037 11.2869 6.31714 10.4679 6.31714 10.4679C6.99391 9.64884 8.00422 9.32006 8.00422 9.32006C9.01453 8.99128 10.0437 9.25515 10.0437 9.25515C11.0729 9.51902 11.8004 10.2934 11.8004 10.2934Z" fill="#CD6132"/>
<path d="M31.8207 15.8857C30.9231 16.4542 29.8606 16.4531 29.8606 16.4531L29.8594 16.4531C29.8403 16.4531 29.8212 16.4535 29.8021 16.4544L28.642 17.7292C28.6562 18.0318 28.7827 18.3183 28.9967 18.5328C29.2251 18.7615 29.5349 18.8903 29.8582 18.8906L29.8594 18.8906C31.6294 18.8921 33.1249 17.9449 33.1249 17.9449C34.6208 16.9974 35.3761 15.3958 35.3761 15.3958C36.1313 13.7942 35.9106 12.0372 35.9106 12.0372C35.6898 10.2803 34.5619 8.91521 34.5619 8.91521C33.4339 7.55017 31.75 7.00221 31.75 7.00221C30.0662 6.45424 28.3509 6.89402 28.3509 6.89402C26.6356 7.3338 25.4232 8.62435 25.4232 8.62435C24.2107 9.9149 23.8787 11.6543 23.8787 11.6543C23.8643 11.7296 23.857 11.8061 23.857 11.8828C23.857 11.9194 23.8587 11.956 23.862 11.9925C23.911 12.5342 24.313 12.9779 24.8473 13.0799C24.9226 13.0943 24.9991 13.1015 25.0758 13.1015C25.1124 13.1015 25.149 13.0999 25.1855 13.0966C25.7272 13.0476 26.1709 12.6456 26.2729 12.1113C26.4721 11.0677 27.1996 10.2934 27.1996 10.2934C27.9271 9.51902 28.9563 9.25515 28.9563 9.25515C29.9855 8.99128 30.9958 9.32006 30.9958 9.32006C32.0061 9.64884 32.6828 10.4679 32.6828 10.4679C33.3596 11.2869 33.4921 12.3411 33.4921 12.3411C33.6245 13.3952 33.1714 14.3562 33.1714 14.3562C32.7182 15.3172 31.8207 15.8857 31.8207 15.8857Z" fill="#CD6132"/>
</g>
</g>
</svg>
