<svg width="171" height="171" viewBox="0 0 171 171" fill="none" xmlns="http://www.w3.org/2000/svg">
<g filter="url(#filter0_d_1790_27809)">
<rect x="40.9883" y="15.1426" width="90" height="90" rx="16" fill="white"/>
</g>
<path fill-rule="evenodd" clip-rule="evenodd" d="M82.1798 81.7511C82.1798 81.7511 78.5995 81.1231 75.4307 79.3826L69.1086 81.1726C69.1086 81.1726 68.2404 81.4266 67.3499 81.1988C67.3499 81.1988 66.4595 80.971 65.8095 80.3211C65.8095 80.3211 65.1596 79.6711 64.9318 78.7807C64.9318 78.7807 64.704 77.8902 64.9621 77.008L66.748 70.6999C66.748 70.6999 65.0075 67.5311 64.3795 63.9508C64.3795 63.9508 63.6877 60.0069 64.4351 56.0733C64.4351 56.0733 65.1825 52.1396 67.2726 48.7244C67.2726 48.7244 69.3626 45.3091 72.5252 42.8535C72.5252 42.8535 75.6878 40.3978 79.5144 39.2191C79.5144 39.2191 83.341 38.0403 87.3371 38.2908C87.3371 38.2908 91.3333 38.5412 94.9828 40.1885C94.9828 40.1885 98.6323 41.8358 101.464 44.667C101.464 44.667 104.295 47.4983 105.942 51.1478C105.942 51.1478 107.589 54.7973 107.84 58.7935C107.84 58.7935 108.09 62.7896 106.912 66.6162C106.912 66.6162 105.733 70.4428 103.277 73.6054C103.277 73.6054 100.821 76.768 97.4062 78.8581C97.4062 78.8581 93.991 80.9481 90.0573 81.6955C90.0573 81.6955 86.1237 82.4429 82.1798 81.7511ZM89.4273 78.3798C89.4273 78.3798 82.5424 79.688 76.5136 76.1151C76.1157 75.8793 75.6373 75.8164 75.1923 75.9424L68.2117 77.9189L70.1882 70.9383C70.3142 70.4933 70.252 70.0161 70.0162 69.6182C70.0162 69.6182 66.4425 63.5889 67.7508 56.7033C67.7508 56.7033 69.0591 49.8177 74.595 45.5192C74.595 45.5192 80.131 41.2208 87.1261 41.6592C87.1261 41.6592 94.1211 42.0976 99.0771 47.0535C99.0771 47.0535 104.033 52.0095 104.471 59.0046C104.471 59.0046 104.91 65.9996 100.611 71.5356C100.611 71.5356 96.3129 77.0715 89.4273 78.3798Z" fill="#C06EF3"/>
<path d="M88.5193 60.1427C88.5193 61.5407 87.386 62.6739 85.988 62.6739C84.59 62.6739 83.4568 61.5407 83.4568 60.1427C83.4568 58.7447 84.59 57.6114 85.988 57.6114C87.386 57.6114 88.5193 58.7447 88.5193 60.1427Z" fill="#C06EF3"/>
<path d="M78.3943 60.1427C78.3943 61.5407 77.261 62.6739 75.863 62.6739C74.465 62.6739 73.3318 61.5407 73.3318 60.1427C73.3318 58.7447 74.465 57.6114 75.863 57.6114C77.261 57.6114 78.3943 58.7447 78.3943 60.1427Z" fill="#C06EF3"/>
<path d="M98.6443 60.1427C98.6443 61.5407 97.511 62.6739 96.113 62.6739C94.715 62.6739 93.5818 61.5407 93.5818 60.1427C93.5818 58.7447 94.715 57.6114 96.113 57.6114C97.511 57.6114 98.6443 58.7447 98.6443 60.1427Z" fill="#C06EF3"/>
<defs>
<filter id="filter0_d_1790_27809" x="0.988281" y="0.142578" width="170" height="170" filterUnits="userSpaceOnUse" color-interpolation-filters="sRGB">
<feFlood flood-opacity="0" result="BackgroundImageFix"/>
<feColorMatrix in="SourceAlpha" type="matrix" values="0 0 0 0 0 0 0 0 0 0 0 0 0 0 0 0 0 0 127 0" result="hardAlpha"/>
<feOffset dy="25"/>
<feGaussianBlur stdDeviation="20"/>
<feComposite in2="hardAlpha" operator="out"/>
<feColorMatrix type="matrix" values="0 0 0 0 0 0 0 0 0 0 0 0 0 0 0 0 0 0 0.03 0"/>
<feBlend mode="normal" in2="BackgroundImageFix" result="effect1_dropShadow_1790_27809"/>
<feBlend mode="normal" in="SourceGraphic" in2="effect1_dropShadow_1790_27809" result="shape"/>
</filter>
</defs>
</svg>
