<svg width="83" height="83" viewBox="0 0 83 83" fill="none" xmlns="http://www.w3.org/2000/svg">
<g opacity="0.7" clip-path="url(#clip0_1790_27758)">
<path d="M62.0192 23.6322C71.7723 35.3078 70.162 52.8542 58.3549 62.7173C46.5854 72.5489 29.0261 71.0792 19.2417 59.3662C9.45731 47.6532 11.0988 30.1442 22.906 20.2811C34.7132 10.418 52.2348 11.9192 62.0192 23.6322ZM62.3964 23.3171C52.4557 11.417 34.6582 9.89217 22.6624 19.9128C10.6666 29.9335 8.99923 47.7182 18.9399 59.6183C28.8806 71.5184 46.6781 73.0432 58.6739 63.0226C70.6697 53.0019 72.3371 35.2172 62.3964 23.3171Z" fill="black"/>
<path d="M62.0192 23.6322C71.7723 35.3078 70.162 52.8542 58.3549 62.7173C46.5854 72.5489 29.0261 71.0792 19.2417 59.3662C9.45731 47.6532 11.0988 30.1442 22.906 20.2811C34.7132 10.418 52.2348 11.9192 62.0192 23.6322ZM62.3964 23.3171C52.4557 11.417 34.6582 9.89217 22.6624 19.9128C10.6666 29.9335 8.99923 47.7182 18.9399 59.6183C28.8806 71.5184 46.6781 73.0432 58.6739 63.0226C70.6697 53.0019 72.3371 35.2172 62.3964 23.3171Z" fill="black" fill-opacity="0.2"/>
<path d="M56.3185 28.39C63.477 36.9596 62.2749 49.7812 53.6365 56.9973C44.998 64.2134 32.1673 63.1141 25.0087 54.5445C17.8502 45.9749 19.0521 33.1534 27.6906 25.9373C36.3291 18.7212 49.1286 19.7831 56.3185 28.39ZM56.6957 28.0749C49.3496 19.2808 36.1739 18.152 27.309 25.5572C18.4442 32.9624 17.2099 46.1285 24.556 54.9226C31.9021 63.7167 45.0778 64.8456 53.9426 57.4404C62.7762 49.9978 64.0105 36.8316 56.6957 28.0749Z" fill="black"/>
<path d="M56.3185 28.39C63.477 36.9596 62.2749 49.7812 53.6365 56.9973C44.998 64.2134 32.1673 63.1141 25.0087 54.5445C17.8502 45.9749 19.0521 33.1534 27.6906 25.9373C36.3291 18.7212 49.1286 19.7831 56.3185 28.39ZM56.6957 28.0749C49.3496 19.2808 36.1739 18.152 27.309 25.5572C18.4442 32.9624 17.2099 46.1285 24.556 54.9226C31.9021 63.7167 45.0778 64.8456 53.9426 57.4404C62.7762 49.9978 64.0105 36.8316 56.6957 28.0749Z" fill="black" fill-opacity="0.2"/>
<path d="M55.4904 29.0841C62.3051 37.242 61.1677 49.3742 52.9441 56.2438L59.4149 63.99C71.9389 53.5282 73.6773 34.9852 63.299 22.5612C52.9207 10.1372 34.3643 8.54739 21.8404 19.0092L28.3112 26.7555C36.5348 19.886 48.6757 20.9262 55.4904 29.0841Z" fill="black"/>
<path d="M55.4904 29.0841C62.3051 37.242 61.1677 49.3742 52.9441 56.2438L59.4149 63.99C71.9389 53.5282 73.6773 34.9852 63.299 22.5612C52.9207 10.1372 34.3643 8.54739 21.8404 19.0092L28.3112 26.7555C36.5348 19.886 48.6757 20.9262 55.4904 29.0841Z" fill="black" fill-opacity="0.2"/>
</g>
<defs>
<clipPath id="clip0_1790_27758">
<rect width="59" height="58" fill="white" transform="translate(44.5117 0.0708008) rotate(50.1264)"/>
</clipPath>
</defs>
</svg>
