<svg width="27" height="26" viewBox="0 0 27 26" fill="none" xmlns="http://www.w3.org/2000/svg">
<rect width="27" height="26" rx="13" fill="#B0BCFF" fill-opacity="0.43"/>
<path d="M14 10.0794V7.74609M16.3333 10.6628L17.5 8.32943M11.6667 10.6628L10.5 8.32943M14 14.7461C14.793 14.7461 15.5544 14.8964 16.2624 15.1727C16.3233 15.1964 16.3538 15.2083 16.3874 15.2288C16.5069 15.3017 16.6011 15.4494 16.6234 15.5988C16.6296 15.6408 16.6296 15.6827 16.6296 15.7666C16.6296 16.0229 16.6296 16.1511 16.6499 16.2575C16.7264 16.6585 17.0084 16.9719 17.3694 17.0569C17.4651 17.0794 17.5805 17.0794 17.8112 17.0794H17.9398C18.2905 17.0794 18.4659 17.0794 18.6077 17.0277C18.8897 16.9249 19.1109 16.6791 19.2035 16.3658C19.25 16.2082 19.25 16.0134 19.25 15.6237V15.5081C19.25 15.1197 19.25 14.9255 19.1979 14.7194C19.1402 14.4906 18.9887 14.2039 18.837 14.0364C18.7003 13.8855 18.5808 13.8114 18.3416 13.6631C17.0566 12.8666 15.576 12.4128 14 12.4128C12.424 12.4128 10.9434 12.8666 9.65836 13.6631C9.41923 13.8114 9.29967 13.8855 9.163 14.0364C9.01135 14.2039 8.85984 14.4906 8.80207 14.7194C8.75 14.9255 8.75 15.1197 8.75 15.5081V15.6237C8.75 16.0134 8.75 16.2082 8.79654 16.3658C8.8891 16.6791 9.11027 16.9249 9.39229 17.0277C9.53409 17.0794 9.70946 17.0794 10.0602 17.0794L10.1888 17.0794C10.4195 17.0794 10.5349 17.0794 10.6306 17.0569C10.9916 16.9719 11.2736 16.6585 11.3501 16.2575C11.3704 16.1511 11.3704 16.0229 11.3704 15.7666C11.3704 15.6827 11.3704 15.6408 11.3766 15.5988C11.3989 15.4494 11.4931 15.3017 11.6126 15.2288C11.6462 15.2083 11.6767 15.1964 11.7376 15.1727C12.4456 14.8964 13.207 14.7461 14 14.7461Z" stroke="#0261FF" stroke-linecap="round"/>
</svg>
