<svg width="950" height="565" viewBox="0 0 950 565" fill="none" xmlns="http://www.w3.org/2000/svg">
<path d="M592.199 398.486C655.645 335.04 655.645 232.174 592.199 168.729C528.753 105.283 425.887 105.283 362.441 168.729C298.995 232.174 298.995 335.04 362.441 398.486C425.887 461.932 528.753 461.932 592.199 398.486Z" stroke="#C1C111" stroke-width="2" stroke-miterlimit="10"/>
<path d="M618.562 423.75C696.573 345.74 696.573 219.26 618.562 141.25C540.552 63.2398 414.073 63.2398 336.062 141.25C258.052 219.26 258.052 345.74 336.062 423.75C414.073 501.76 540.552 501.76 618.562 423.75Z" stroke="#C1C111" stroke-width="2" stroke-miterlimit="10"/>
<path d="M477.326 511.485C603.792 511.485 706.314 408.963 706.314 282.497C706.314 156.03 603.792 53.5088 477.326 53.5088C350.859 53.5088 248.338 156.03 248.338 282.497C248.338 408.963 350.859 511.485 477.326 511.485Z" stroke="#C1C111" stroke-width="2" stroke-miterlimit="10"/>
<path d="M74.6953 286.133H314.961" stroke="#C1C111" stroke-width="2" stroke-miterlimit="10"/>
<path d="M639.713 288.679H891.781" stroke="#C1C111" stroke-width="2" stroke-miterlimit="10"/>
<path d="M83.1807 286.436C83.1807 290.191 80.1375 293.231 76.3856 293.231C72.6337 293.231 69.5879 290.188 69.5879 286.436C69.5879 282.684 72.6311 279.641 76.3856 279.641C80.1401 279.641 83.1807 282.684 83.1807 286.436Z" fill="#C1C111"/>
<path d="M892.097 288.516C892.097 292.271 889.054 295.311 885.299 295.311C881.545 295.311 878.504 292.268 878.504 288.516C878.504 284.764 881.547 281.721 885.299 281.721C889.054 281.719 892.097 284.762 892.097 288.516Z" fill="#C1C111"/>
<path d="M528.283 215.532V292.917C528.283 293.675 528.254 294.405 528.226 295.134C527.074 322.257 504.724 343.878 477.32 343.878C449.944 343.878 427.592 322.257 426.44 295.134C426.411 294.405 426.383 293.675 426.383 292.917V215.532C426.383 193.012 441.013 173.891 461.286 167.179C463.112 166.533 464.993 166.027 466.901 165.634C469.399 165.129 471.927 164.792 474.537 164.623C475.465 164.594 476.39 164.568 477.317 164.568C478.271 164.568 479.198 164.597 480.152 164.652C482.737 164.792 485.29 165.129 487.763 165.634C489.672 166.027 491.554 166.562 493.377 167.179C500.988 169.678 507.809 173.945 513.369 179.506C522.582 188.716 528.283 201.465 528.283 215.532Z" fill="#D9E021"/>
<path d="M528.217 295.133C527.066 322.256 504.716 343.877 477.311 343.877C449.936 343.877 427.583 322.256 426.432 295.133H528.217Z" fill="#C1C111"/>
<path d="M547.906 292.329V223.536C547.906 221.986 546.651 220.728 545.098 220.728C543.545 220.728 542.289 221.986 542.289 223.536V292.329H412.369V223.536C412.369 221.986 411.114 220.728 409.561 220.728C408.01 220.728 406.752 221.986 406.752 223.536V306.041C406.752 334.423 429.842 357.513 458.223 357.513H475.656V402.038H449.583C446.704 402.038 444.37 404.372 444.37 407.251C444.37 410.13 446.704 412.465 449.583 412.465H508.949C511.828 412.465 514.163 410.13 514.163 407.251C514.163 404.372 511.828 402.038 508.949 402.038H481.274V357.513H496.433C524.817 357.513 547.906 334.423 547.906 306.041V297.946V292.329ZM542.289 306.039C542.289 331.322 521.719 351.895 496.43 351.895H478.465H476.196H458.226C432.942 351.895 412.369 331.325 412.369 306.039V297.944H542.289V306.039Z" fill="#D9E021"/>
<path d="M462.69 224.435C462.69 226.008 461.427 227.243 459.881 227.243H426.383V221.628H459.881C461.427 221.626 462.69 222.889 462.69 224.435Z" fill="#C1C111"/>
<path d="M462.69 250.911C462.69 252.456 461.427 253.72 459.881 253.72H426.383V248.105H459.881C461.427 248.102 462.69 249.366 462.69 250.911Z" fill="#C1C111"/>
<path d="M455.754 237.687C455.754 239.232 454.519 240.495 452.946 240.495H426.383V234.88H452.946C454.519 234.878 455.754 236.113 455.754 237.687Z" fill="#C1C111"/>
<path d="M528.279 221.625V227.24H495.174C493.629 227.24 492.365 226.005 492.365 224.431C492.365 222.886 493.629 221.623 495.174 221.623L528.279 221.625Z" fill="#C1C111"/>
<path d="M528.279 248.102V253.717H495.174C493.629 253.717 492.365 252.453 492.365 250.908C492.365 249.363 493.629 248.099 495.174 248.099H528.279V248.102Z" fill="#C1C111"/>
<path d="M528.282 234.879V240.494H502.084C500.539 240.494 499.275 239.23 499.275 237.685C499.275 236.111 500.539 234.876 502.084 234.876H528.282V234.879Z" fill="#C1C111"/>
<path d="M466.901 165.637V193.153C466.901 194.698 465.637 195.962 464.092 195.962C462.547 195.962 461.283 194.698 461.283 193.153V167.179C463.11 166.533 464.991 166.028 466.901 165.637Z" fill="#C1C111"/>
<path d="M493.377 167.179V193.153C493.377 194.698 492.114 195.962 490.568 195.962C489.023 195.962 487.76 194.698 487.76 193.153V165.637C489.672 166.028 491.553 166.562 493.377 167.179Z" fill="#C1C111"/>
<path d="M480.155 164.652V186.243C480.155 187.788 478.891 189.052 477.346 189.052C475.772 189.052 474.537 187.788 474.537 186.243V164.623C475.465 164.594 476.39 164.568 477.317 164.568C478.273 164.568 479.201 164.597 480.155 164.652Z" fill="#C1C111"/>
<path d="M143.624 204.867C148.022 185.505 135.89 166.243 116.528 161.845C97.1654 157.447 77.9038 169.579 73.506 188.941C69.1081 208.304 81.2394 227.565 100.602 231.963C119.964 236.361 139.226 224.23 143.624 204.867Z" stroke="#D9E021" stroke-width="2" stroke-miterlimit="10"/>
<path d="M82.0566 188.424C82.0566 188.424 84.9071 182.204 91.9028 182.335C98.8985 182.465 101.34 189.859 101.34 189.859" stroke="#D9E021" stroke-width="2" stroke-miterlimit="10" stroke-linecap="round"/>
<path d="M133.799 188.402C133.799 188.402 130.948 182.183 123.953 182.313C116.957 182.443 114.516 189.838 114.516 189.838" stroke="#D9E021" stroke-width="2" stroke-miterlimit="10" stroke-linecap="round"/>
<path d="M82.0566 199.175H133.801C133.801 199.175 129.344 224.127 108.552 224.127C86.3323 224.127 82.0566 199.175 82.0566 199.175Z" stroke="#D9E021" stroke-width="2" stroke-miterlimit="10" stroke-linecap="round" stroke-linejoin="round"/>
<path d="M87.9492 213.146C87.9492 213.146 97.1023 204.972 107.925 210.608C107.925 210.608 117.756 204.626 128.834 211.877" stroke="#D9E021" stroke-width="2" stroke-miterlimit="10" stroke-linecap="round" stroke-linejoin="round"/>
<path d="M201.226 377.805C211.213 366.68 210.291 349.565 199.166 339.578C188.041 329.59 170.926 330.513 160.939 341.638C150.952 352.763 151.874 369.877 162.999 379.865C174.124 389.852 191.239 388.929 201.226 377.805Z" stroke="#D9E021" stroke-width="2" stroke-miterlimit="10"/>
<path d="M217.668 374.717C221.087 360.162 212.06 345.592 197.505 342.172C182.951 338.753 168.38 347.78 164.961 362.335C161.541 376.89 170.568 391.46 185.123 394.88C199.678 398.299 214.249 389.272 217.668 374.717Z" stroke="#D9E021" stroke-width="2" stroke-miterlimit="10"/>
<path d="M146.123 324.371L162.827 339.785" stroke="#D9E021" stroke-width="2" stroke-miterlimit="10" stroke-linecap="round" stroke-linejoin="round"/>
<path d="M145.416 337.204V323.364H158.678" stroke="#D9E021" stroke-width="2" stroke-miterlimit="10" stroke-linecap="round" stroke-linejoin="round"/>
<path d="M191.32 395.623V423.043" stroke="#D9E021" stroke-width="2" stroke-miterlimit="10" stroke-linecap="round" stroke-linejoin="round"/>
<path d="M183.125 411.913H200.272" stroke="#D9E021" stroke-width="2" stroke-miterlimit="10" stroke-linecap="round" stroke-linejoin="round"/>
<path d="M212.701 219.7H206.372V213.372C206.372 212.306 205.51 211.446 204.447 211.446C203.383 211.446 202.521 212.309 202.521 213.372V219.7H196.195C195.132 219.7 194.27 220.563 194.27 221.626C194.27 222.689 195.132 223.551 196.195 223.551H202.521V229.877C202.521 230.94 203.383 231.803 204.447 231.803C205.512 231.803 206.372 230.94 206.372 229.877V223.551H212.701C213.766 223.551 214.626 222.689 214.626 221.626C214.626 220.56 213.764 219.7 212.701 219.7Z" fill="#C1C111"/>
<path d="M71.9263 322.492H64.9436V315.509C64.9436 314.334 63.9926 313.383 62.8175 313.383C61.6425 313.383 60.6941 314.334 60.6941 315.509V322.492H53.714C52.5389 322.492 51.5879 323.443 51.5879 324.616C51.5879 325.791 52.5389 326.742 53.714 326.742H60.6941V333.722C60.6941 334.897 61.6451 335.848 62.8175 335.848C63.9926 335.848 64.9436 334.897 64.9436 333.722V326.742H71.9263C73.1014 326.742 74.0497 325.791 74.0497 324.616C74.0524 323.443 73.1014 322.492 71.9263 322.492Z" fill="#C1C111"/>
<path d="M267.209 439.429H260.227V432.446C260.227 431.271 259.276 430.32 258.103 430.32C256.928 430.32 255.977 431.271 255.977 432.446V439.429H248.997C247.822 439.429 246.871 440.38 246.871 441.553C246.871 442.728 247.822 443.679 248.997 443.679H255.977V450.659C255.977 451.834 256.928 452.785 258.103 452.785C259.278 452.785 260.227 451.834 260.227 450.659V443.679H267.209C268.385 443.679 269.333 442.728 269.333 441.553C269.333 440.377 268.385 439.429 267.209 439.429Z" fill="#D9E021"/>
<path d="M152.467 123.871H146.36V117.764C146.36 116.737 145.529 115.906 144.502 115.906C143.476 115.906 142.645 116.737 142.645 117.764V123.871H136.537C135.511 123.871 134.68 124.702 134.68 125.729C134.68 126.755 135.511 127.587 136.537 127.587H142.645V133.694C142.645 134.72 143.476 135.552 144.502 135.552C145.529 135.552 146.36 134.72 146.36 133.694V127.587H152.467C153.494 127.587 154.325 126.755 154.325 125.729C154.325 124.705 153.494 123.871 152.467 123.871Z" fill="#D9E021"/>
<path d="M20.3358 162.444H13.3531V155.461C13.3531 154.286 12.4021 153.338 11.227 153.338C10.0519 153.338 9.10356 154.289 9.10356 155.461V162.444H2.12347C0.948401 162.444 0 163.395 0 164.568C0 165.743 0.951007 166.694 2.12347 166.694H9.10356V173.674C9.10356 174.849 10.0545 175.797 11.227 175.797C12.4021 175.797 13.3531 174.846 13.3531 173.674V166.694H20.3358C21.5108 166.694 22.4592 165.743 22.4592 164.568C22.4592 163.395 21.5082 162.444 20.3358 162.444Z" fill="#C1C111"/>
<path d="M327.683 51.391H320.7V44.4083C320.7 43.2332 319.749 42.2822 318.574 42.2822C317.399 42.2822 316.448 43.2332 316.448 44.4083V51.391H309.468C308.293 51.391 307.342 52.342 307.342 53.5144C307.342 54.6869 308.293 55.6379 309.468 55.6379H316.448V62.618C316.448 63.7931 317.399 64.7441 318.574 64.7441C319.749 64.7441 320.7 63.7931 320.7 62.618V55.6379H327.683C328.858 55.6379 329.806 54.6869 329.806 53.5144C329.806 52.342 328.858 51.391 327.683 51.391Z" fill="#C1C111"/>
<path d="M257.155 144.863H199.879C196.255 144.863 193.318 141.927 193.318 138.302V56.9566C193.318 53.335 196.255 50.396 199.879 50.396H257.155C260.779 50.396 263.716 53.3324 263.716 56.9566V138.302C263.716 141.924 260.779 144.863 257.155 144.863Z" stroke="#D9E021" stroke-width="2" stroke-miterlimit="10"/>
<path d="M203.246 50.396V79.5774L210.468 73.2617L218.29 79.5774V50.396" stroke="#D9E021" stroke-width="2" stroke-miterlimit="10"/>
<path d="M246.956 100.787H210.083C206.808 100.787 204.15 98.1322 204.15 94.8545V93.9322C204.15 90.6571 206.805 87.9995 210.083 87.9995H246.956C250.231 87.9995 252.888 90.6545 252.888 93.9322V94.8545C252.886 98.1296 250.231 100.787 246.956 100.787Z" stroke="#D9E021" stroke-width="2" stroke-miterlimit="10"/>
<path d="M207.359 109.162H247.875" stroke="#D9E021" stroke-width="2" stroke-miterlimit="10" stroke-linecap="round"/>
<path d="M873.342 227.617V190.622C873.342 173.108 859.142 158.908 841.628 158.908C824.112 158.908 809.914 173.108 809.914 190.622V234.319C809.914 234.319 808.752 242.659 804.542 247.872C800.329 253.086 809.555 258.703 815.774 255.694C821.991 252.685 822.994 251.163 828.809 256.538C834.625 261.913 842.048 259.706 844.252 254.493C846.459 249.279 853.679 254.292 856.889 258.104C860.099 261.916 867.318 259.709 869.924 254.493C872.529 249.277 878.147 257.502 880.955 251.885C883.761 246.267 873.342 238.646 873.342 227.617Z" stroke="#D9E021" stroke-width="2" stroke-miterlimit="10"/>
<path d="M833.021 188.806C833.021 188.806 831.518 203.397 823.845 200.239C816.174 197.081 825.199 180.534 828.433 178.126C831.666 175.722 834.73 181.91 833.021 188.806Z" stroke="#D9E021" stroke-width="2" stroke-miterlimit="10"/>
<path d="M847.54 188.806C847.54 188.806 849.044 203.397 856.717 200.239C864.39 197.081 855.362 180.534 852.129 178.126C848.895 175.722 845.831 181.91 847.54 188.806Z" stroke="#D9E021" stroke-width="2" stroke-miterlimit="10"/>
<path d="M828.455 212.371C828.741 209.593 831.295 205.602 835.958 204.098C840.622 202.595 849.796 203.046 852.203 211.469C854.611 219.893 845.002 211.318 840.33 211.769C835.656 212.219 827.715 219.533 828.455 212.371Z" stroke="#D9E021" stroke-width="2" stroke-miterlimit="10"/>
<path d="M737.293 223.076H743.621V216.747C743.621 215.684 744.484 214.822 745.547 214.822C746.612 214.822 747.472 215.684 747.472 216.747V223.076H753.798C754.864 223.076 755.724 223.938 755.724 225.001C755.724 226.067 754.861 226.927 753.798 226.927H747.472V233.253C747.472 234.319 746.612 235.178 745.547 235.178C744.481 235.178 743.621 234.316 743.621 233.253V226.927H737.293C736.227 226.927 735.367 226.064 735.367 225.001C735.367 223.936 736.23 223.076 737.293 223.076Z" fill="#C1C111"/>
<path d="M878.071 325.87H885.054V318.888C885.054 317.713 886.005 316.762 887.178 316.762C888.353 316.762 889.304 317.713 889.304 318.888V325.87H896.284C897.459 325.87 898.41 326.822 898.41 327.997C898.41 329.172 897.459 330.123 896.284 330.123H889.304V337.103C889.304 338.278 888.353 339.229 887.178 339.229C886.002 339.229 885.054 338.278 885.054 337.103V330.123H878.071C876.896 330.123 875.945 329.172 875.945 327.997C875.945 326.822 876.896 325.87 878.071 325.87Z" fill="#C1C111"/>
<path d="M682.788 442.806H689.771V435.823C689.771 434.648 690.722 433.697 691.894 433.697C693.069 433.697 694.02 434.648 694.02 435.823V442.806H701C702.176 442.806 703.124 443.757 703.124 444.932C703.124 446.107 702.173 447.056 701 447.056H694.02V454.036C694.02 455.211 693.069 456.162 691.894 456.162C690.719 456.162 689.771 455.211 689.771 454.036V447.056H682.788C681.613 447.056 680.662 446.105 680.662 444.932C680.665 443.754 681.613 442.806 682.788 442.806Z" fill="#D9E021"/>
<path d="M797.532 127.246H803.639V121.139C803.639 120.112 804.47 119.281 805.497 119.281C806.523 119.281 807.357 120.112 807.357 121.139V127.246H813.464C814.491 127.246 815.324 128.077 815.324 129.104C815.324 130.13 814.493 130.962 813.464 130.962H807.357V137.069C807.357 138.095 806.526 138.927 805.497 138.927C804.47 138.927 803.639 138.095 803.639 137.069V130.962H797.532C796.505 130.962 795.674 130.13 795.674 129.104C795.674 128.077 796.505 127.246 797.532 127.246Z" fill="#D9E021"/>
<path d="M929.663 165.82H936.646V158.837C936.646 157.662 937.597 156.711 938.769 156.711C939.944 156.711 940.893 157.662 940.893 158.837V165.82H947.873C949.048 165.82 949.999 166.771 949.999 167.946C949.999 169.121 949.048 170.069 947.873 170.069H940.893V177.049C940.893 178.224 939.942 179.173 938.769 179.173C937.594 179.173 936.646 178.222 936.646 177.049V170.069H929.663C928.488 170.069 927.537 169.118 927.537 167.946C927.54 166.771 928.491 165.82 929.663 165.82Z" fill="#C1C111"/>
<path d="M622.318 54.7655H629.3V47.7828C629.3 46.6077 630.251 45.6567 631.426 45.6567C632.601 45.6567 633.55 46.6077 633.55 47.7828V54.7655H640.53C641.705 54.7655 642.656 55.7165 642.656 56.889C642.656 58.064 641.705 59.015 640.53 59.015H633.55V65.9951C633.55 67.1702 632.599 68.1212 631.426 68.1212C630.254 68.1212 629.3 67.1702 629.3 65.9951V59.015H622.318C621.142 59.015 620.191 58.064 620.191 56.889C620.191 55.7165 621.142 54.7655 622.318 54.7655Z" fill="#C1C111"/>
<path d="M751.904 65.4429C736.029 64.8411 729.596 82.9283 729.596 82.9283C729.596 82.9283 723.166 64.8411 707.288 65.4429C691.41 66.0448 682.619 85.4843 688.8 99.8092C699.05 123.563 729.596 146.234 729.596 146.234C729.596 146.234 762.355 118.702 770.393 99.8092C776.5 85.4556 767.782 66.0474 751.904 65.4429Z" stroke="#D9E021" stroke-width="2" stroke-miterlimit="10" stroke-linecap="round" stroke-linejoin="round"/>
<path d="M694.201 109.717H703.868L709.081 93.8468L714.295 114.104L717.505 102.872L719.912 110.894H724.724L729.586 92.8437L735.154 119.284L738.364 104.277L742.775 112.7L745.985 104.878H750.196L753.606 86.8276L757.418 109.691H764.437" stroke="#D9E021" stroke-width="2" stroke-miterlimit="10" stroke-linecap="round" stroke-linejoin="round"/>
<path d="M812.703 387.211H729.82C727.619 387.211 725.834 385.426 725.834 383.225V344.028C725.834 341.826 727.619 340.042 729.82 340.042H812.703C814.905 340.042 816.69 341.826 816.69 344.028V383.225C816.687 385.426 814.902 387.211 812.703 387.211Z" stroke="#D9E021" stroke-width="2" stroke-miterlimit="10"/>
<path d="M786.613 364.734C786.613 374.059 779.054 381.617 769.729 381.617C760.404 381.617 752.846 374.059 752.846 364.734C752.846 355.409 760.404 347.85 769.729 347.85C779.054 347.85 786.613 355.411 786.613 364.734Z" stroke="#D9E021" stroke-width="2" stroke-miterlimit="10"/>
<path d="M808.77 346.162H796.529V351.227H808.77V346.162Z" fill="#D9E021"/>
<path d="M742.61 376.552H730.369V381.617H742.61V376.552Z" fill="#D9E021"/>
</svg>
