<svg width="602" height="487" viewBox="0 0 602 487" fill="none" xmlns="http://www.w3.org/2000/svg">
<g filter="url(#filter0_b_1383_22716)">
<ellipse cx="142.036" cy="145.448" rx="141.663" ry="145.448" fill="url(#paint0_radial_1383_22716)" fill-opacity="0.1"/>
</g>
<path d="M87.5195 242.492L99.2558 253.384" stroke="#408CD2" stroke-width="1.24717" stroke-miterlimit="10" stroke-linecap="round" stroke-linejoin="round"/>
<path d="M46.8711 205.666L68.6262 225.635" stroke="#408CD2" stroke-width="1.24717" stroke-miterlimit="10" stroke-linecap="round" stroke-linejoin="round"/>
<path d="M83.5137 208.26L165.668 282.43" stroke="#408CD2" stroke-width="1.24717" stroke-miterlimit="10" stroke-linecap="round" stroke-linejoin="round"/>
<path d="M41.7188 170.398L58.6076 185.44" stroke="#408CD2" stroke-width="1.24717" stroke-miterlimit="10" stroke-linecap="round" stroke-linejoin="round"/>
<path d="M142.482 230.562L214.618 295.915" stroke="#38D2B7" stroke-width="1.24717" stroke-miterlimit="10" stroke-linecap="round" stroke-linejoin="round"/>
<path d="M142.482 230.562L214.618 295.915" stroke="black" stroke-opacity="0.2" stroke-width="1.24717" stroke-miterlimit="10" stroke-linecap="round" stroke-linejoin="round"/>
<path d="M33.707 132.016L110.709 201.517" stroke="#38D2B7" stroke-width="1.24717" stroke-miterlimit="10" stroke-linecap="round" stroke-linejoin="round"/>
<path d="M33.707 132.016L110.709 201.517" stroke="black" stroke-opacity="0.2" stroke-width="1.24717" stroke-miterlimit="10" stroke-linecap="round" stroke-linejoin="round"/>
<path d="M94.1035 155.615L221.199 270.76" stroke="#408CD2" stroke-width="1.24717" stroke-miterlimit="10" stroke-linecap="round" stroke-linejoin="round"/>
<path d="M41.4336 107.898L68.3413 132.276" stroke="#408CD2" stroke-width="1.24717" stroke-miterlimit="10" stroke-linecap="round" stroke-linejoin="round"/>
<path d="M199.158 219.672L229.501 247.421" stroke="#408CD2" stroke-width="1.24717" stroke-miterlimit="10" stroke-linecap="round" stroke-linejoin="round"/>
<path d="M10.8047 49.2881L166.812 190.625" stroke="#408CD2" stroke-width="1.24717" stroke-miterlimit="10" stroke-linecap="round" stroke-linejoin="round"/>
<path d="M135.898 131.498L288.471 269.723" stroke="#38D2B7" stroke-width="1.24717" stroke-miterlimit="10" stroke-linecap="round" stroke-linejoin="round"/>
<path d="M135.898 131.498L288.471 269.723" stroke="black" stroke-opacity="0.2" stroke-width="1.24717" stroke-miterlimit="10" stroke-linecap="round" stroke-linejoin="round"/>
<path d="M68.6289 70.5547L104.124 102.712" stroke="#38D2B7" stroke-width="1.24717" stroke-miterlimit="10" stroke-linecap="round" stroke-linejoin="round"/>
<path d="M68.6289 70.5547L104.124 102.712" stroke="black" stroke-opacity="0.2" stroke-width="1.24717" stroke-miterlimit="10" stroke-linecap="round" stroke-linejoin="round"/>
<path d="M165.666 127.348L264.137 216.559" stroke="#408CD2" stroke-width="1.24717" stroke-miterlimit="10" stroke-linecap="round" stroke-linejoin="round"/>
<path d="M65.1934 36.3213L137.901 102.192" stroke="#408CD2" stroke-width="1.24717" stroke-miterlimit="10" stroke-linecap="round" stroke-linejoin="round"/>
<path d="M246.678 169.879L298.202 216.559" stroke="#38D2B7" stroke-width="1.24717" stroke-miterlimit="10" stroke-linecap="round" stroke-linejoin="round"/>
<path d="M246.678 169.879L298.202 216.559" stroke="black" stroke-opacity="0.2" stroke-width="1.24717" stroke-miterlimit="10" stroke-linecap="round" stroke-linejoin="round"/>
<path d="M109.562 45.6562L209.464 135.905" stroke="#38D2B7" stroke-width="1.24717" stroke-miterlimit="10" stroke-linecap="round" stroke-linejoin="round"/>
<path d="M109.562 45.6562L209.464 135.905" stroke="black" stroke-opacity="0.2" stroke-width="1.24717" stroke-miterlimit="10" stroke-linecap="round" stroke-linejoin="round"/>
<path d="M196.867 93.6328L266.426 156.651" stroke="#408CD2" stroke-width="1.24717" stroke-miterlimit="10" stroke-linecap="round" stroke-linejoin="round"/>
<path d="M117.865 22.0576L169.677 68.9972" stroke="#408CD2" stroke-width="1.24717" stroke-miterlimit="10" stroke-linecap="round" stroke-linejoin="round"/>
<path d="M258.697 118.531L285.605 143.168" stroke="#38D2B7" stroke-width="1.24717" stroke-miterlimit="10" stroke-linecap="round" stroke-linejoin="round"/>
<path d="M258.697 118.531L285.605 143.168" stroke="black" stroke-opacity="0.2" stroke-width="1.24717" stroke-miterlimit="10" stroke-linecap="round" stroke-linejoin="round"/>
<path d="M159.371 28.541L227.785 90.7813" stroke="#38D2B7" stroke-width="1.24717" stroke-miterlimit="10" stroke-linecap="round" stroke-linejoin="round"/>
<path d="M159.371 28.541L227.785 90.7813" stroke="black" stroke-opacity="0.2" stroke-width="1.24717" stroke-miterlimit="10" stroke-linecap="round" stroke-linejoin="round"/>
<path d="M244.674 74.9629L261.276 90.0043" stroke="#408CD2" stroke-width="1.24717" stroke-miterlimit="10" stroke-linecap="round" stroke-linejoin="round"/>
<path d="M215.477 48.5107L226.927 58.8841" stroke="#408CD2" stroke-width="1.24717" stroke-miterlimit="10" stroke-linecap="round" stroke-linejoin="round"/>
<g filter="url(#filter1_d_1383_22716)">
<rect x="107.432" y="98.4062" width="282.244" height="366.593" rx="28.1163" fill="white"/>
</g>
<g clip-path="url(#clip0_1383_22716)">
<path d="M538.537 255.319C519.964 287.179 491.03 316.394 452.323 329.359C440.989 333.155 426.943 334.577 415.218 334.703C412.741 334.73 410.338 334.382 407.931 334.089C405.732 333.821 414.281 344.785 415.19 346.116C424.913 360.343 414.873 344.778 410.318 339.892C406.784 336.1 401.443 333.067 398.691 328.714C396.475 325.208 405.745 322.18 408.705 320.625C411.749 319.026 430.313 306.103 430.092 313.13C429.695 325.737 423.128 336.868 418.142 348.743" stroke="#A2A2A2" stroke-opacity="0.6" stroke-width="2.16279" stroke-linecap="round"/>
</g>
<rect x="349" y="49" width="253" height="184" rx="20" fill="white"/>
<rect x="349.5" y="49.5" width="252" height="183" rx="19.5" stroke="#757575" stroke-opacity="0.5"/>
<path d="M432.959 109.507V115H408.643V110.312L420.142 97.9834C421.297 96.6976 422.209 95.5664 422.876 94.5898C423.543 93.597 424.023 92.71 424.316 91.9287C424.626 91.1312 424.78 90.3743 424.78 89.6582C424.78 88.584 424.601 87.6644 424.243 86.8994C423.885 86.1182 423.356 85.516 422.656 85.0928C421.973 84.6696 421.126 84.458 420.117 84.458C419.043 84.458 418.115 84.7184 417.334 85.2393C416.569 85.7601 415.983 86.4844 415.576 87.4121C415.186 88.3398 414.99 89.3896 414.99 90.5615H407.935C407.935 88.4456 408.439 86.5088 409.448 84.751C410.457 82.9769 411.882 81.569 413.721 80.5273C415.56 79.4694 417.741 78.9404 420.264 78.9404C422.754 78.9404 424.854 79.3473 426.562 80.1611C428.288 80.9587 429.59 82.1143 430.469 83.6279C431.364 85.1253 431.812 86.9157 431.812 88.999C431.812 90.1709 431.624 91.3184 431.25 92.4414C430.876 93.5482 430.339 94.6549 429.639 95.7617C428.955 96.8522 428.125 97.959 427.148 99.082C426.172 100.205 425.09 101.369 423.901 102.573L417.725 109.507H432.959ZM461.279 94.1016V100.254C461.279 102.923 460.994 105.226 460.425 107.163C459.855 109.084 459.033 110.662 457.959 111.899C456.901 113.12 455.64 114.023 454.175 114.609C452.71 115.195 451.082 115.488 449.292 115.488C447.86 115.488 446.525 115.309 445.288 114.951C444.051 114.577 442.936 113.999 441.943 113.218C440.967 112.437 440.12 111.452 439.404 110.264C438.704 109.059 438.167 107.627 437.793 105.967C437.419 104.307 437.231 102.402 437.231 100.254V94.1016C437.231 91.4323 437.516 89.1455 438.086 87.2412C438.672 85.3206 439.494 83.75 440.552 82.5293C441.626 81.3086 442.896 80.4134 444.36 79.8438C445.825 79.2578 447.453 78.9648 449.243 78.9648C450.675 78.9648 452.002 79.152 453.223 79.5264C454.46 79.8844 455.575 80.446 456.567 81.2109C457.56 81.9759 458.407 82.9606 459.106 84.165C459.806 85.3532 460.343 86.7773 460.718 88.4375C461.092 90.0814 461.279 91.9694 461.279 94.1016ZM454.224 101.182V93.1494C454.224 91.8636 454.15 90.7406 454.004 89.7803C453.874 88.82 453.67 88.0062 453.394 87.3389C453.117 86.6553 452.775 86.1019 452.368 85.6787C451.961 85.2555 451.497 84.9463 450.977 84.751C450.456 84.5557 449.878 84.458 449.243 84.458C448.446 84.458 447.738 84.6126 447.119 84.9219C446.517 85.2311 446.004 85.7275 445.581 86.4111C445.158 87.0785 444.832 87.9736 444.604 89.0967C444.393 90.2035 444.287 91.5544 444.287 93.1494V101.182C444.287 102.467 444.352 103.599 444.482 104.575C444.629 105.552 444.84 106.39 445.117 107.09C445.41 107.773 445.752 108.335 446.143 108.774C446.549 109.198 447.013 109.507 447.534 109.702C448.071 109.897 448.657 109.995 449.292 109.995C450.073 109.995 450.765 109.84 451.367 109.531C451.986 109.206 452.507 108.701 452.93 108.018C453.369 107.318 453.695 106.406 453.906 105.283C454.118 104.16 454.224 102.793 454.224 101.182ZM466.699 111.606C466.699 110.565 467.057 109.694 467.773 108.994C468.506 108.294 469.474 107.944 470.679 107.944C471.883 107.944 472.843 108.294 473.56 108.994C474.292 109.694 474.658 110.565 474.658 111.606C474.658 112.648 474.292 113.519 473.56 114.219C472.843 114.919 471.883 115.269 470.679 115.269C469.474 115.269 468.506 114.919 467.773 114.219C467.057 113.519 466.699 112.648 466.699 111.606ZM497.705 79.3799V115H490.674V87.4854L482.227 90.1709V84.6289L496.948 79.3799H497.705ZM509.18 88.1689V86.2891C509.18 84.9382 509.473 83.7093 510.059 82.6025C510.645 81.4958 511.507 80.6087 512.646 79.9414C513.786 79.2741 515.186 78.9404 516.846 78.9404C518.555 78.9404 519.979 79.2741 521.118 79.9414C522.274 80.6087 523.136 81.4958 523.706 82.6025C524.292 83.7093 524.585 84.9382 524.585 86.2891V88.1689C524.585 89.4873 524.292 90.6999 523.706 91.8066C523.136 92.9134 522.282 93.8005 521.143 94.4678C520.003 95.1351 518.595 95.4688 516.919 95.4688C515.226 95.4688 513.802 95.1351 512.646 94.4678C511.507 93.8005 510.645 92.9134 510.059 91.8066C509.473 90.6999 509.18 89.4873 509.18 88.1689ZM513.843 86.2891V88.1689C513.843 88.7386 513.949 89.2839 514.16 89.8047C514.388 90.3092 514.73 90.7243 515.186 91.0498C515.658 91.359 516.227 91.5137 516.895 91.5137C517.594 91.5137 518.164 91.359 518.604 91.0498C519.043 90.7243 519.368 90.3092 519.58 89.8047C519.792 89.2839 519.897 88.7386 519.897 88.1689V86.2891C519.897 85.6868 519.784 85.1335 519.556 84.6289C519.344 84.1081 519.01 83.693 518.555 83.3838C518.115 83.0583 517.546 82.8955 516.846 82.8955C516.195 82.8955 515.641 83.0583 515.186 83.3838C514.73 83.693 514.388 84.1081 514.16 84.6289C513.949 85.1335 513.843 85.6868 513.843 86.2891ZM526.172 108.164V106.284C526.172 104.95 526.465 103.729 527.051 102.622C527.653 101.515 528.524 100.628 529.663 99.9609C530.819 99.2936 532.235 98.96 533.911 98.96C535.604 98.96 537.02 99.2936 538.159 99.9609C539.299 100.628 540.161 101.515 540.747 102.622C541.333 103.729 541.626 104.95 541.626 106.284V108.164C541.626 109.499 541.333 110.719 540.747 111.826C540.177 112.933 539.323 113.82 538.184 114.487C537.044 115.155 535.636 115.488 533.96 115.488C532.267 115.488 530.843 115.155 529.688 114.487C528.532 113.82 527.653 112.933 527.051 111.826C526.465 110.719 526.172 109.499 526.172 108.164ZM530.859 106.284V108.164C530.859 108.75 530.99 109.303 531.25 109.824C531.51 110.345 531.868 110.76 532.324 111.069C532.796 111.379 533.341 111.533 533.96 111.533C534.741 111.533 535.352 111.379 535.791 111.069C536.23 110.76 536.532 110.345 536.694 109.824C536.873 109.303 536.963 108.75 536.963 108.164V106.284C536.963 105.698 536.849 105.153 536.621 104.648C536.393 104.128 536.051 103.713 535.596 103.403C535.156 103.078 534.595 102.915 533.911 102.915C533.228 102.915 532.658 103.078 532.202 103.403C531.763 103.713 531.429 104.128 531.201 104.648C530.973 105.153 530.859 105.698 530.859 106.284ZM535.645 84.5312L518.286 112.314L514.868 110.508L532.227 82.7246L535.645 84.5312Z" fill="#272D37"/>
<path d="M444.143 149.871V152.959H447.777V154.367H444.143V157.592H448.231V159H442.417V148.463H448.231V149.871H444.143ZM454.565 150.522C455.221 150.522 455.807 150.658 456.322 150.931C456.846 151.203 457.255 151.607 457.548 152.142C457.841 152.677 457.987 153.323 457.987 154.08V159H456.276V154.337C456.276 153.59 456.089 153.02 455.716 152.626C455.343 152.223 454.833 152.021 454.187 152.021C453.541 152.021 453.026 152.223 452.643 152.626C452.269 153.02 452.082 153.59 452.082 154.337V159H450.357V150.658H452.082V151.612C452.365 151.269 452.723 151.001 453.157 150.81C453.601 150.618 454.071 150.522 454.565 150.522ZM463.549 150.522C464.195 150.522 464.766 150.653 465.26 150.915C465.765 151.168 466.158 151.486 466.441 151.869V150.658H468.182V159.136C468.182 159.903 468.021 160.585 467.698 161.18C467.375 161.786 466.905 162.26 466.29 162.603C465.684 162.946 464.957 163.118 464.11 163.118C462.979 163.118 462.04 162.85 461.294 162.316C460.547 161.791 460.123 161.074 460.022 160.166H461.733C461.864 160.6 462.141 160.948 462.565 161.21C462.999 161.483 463.514 161.619 464.11 161.619C464.806 161.619 465.366 161.407 465.79 160.983C466.224 160.559 466.441 159.944 466.441 159.136V157.743C466.148 158.137 465.75 158.47 465.245 158.743C464.75 159.005 464.185 159.136 463.549 159.136C462.823 159.136 462.157 158.955 461.551 158.591C460.955 158.218 460.481 157.703 460.128 157.047C459.785 156.381 459.613 155.629 459.613 154.791C459.613 153.953 459.785 153.212 460.128 152.566C460.481 151.92 460.955 151.42 461.551 151.067C462.157 150.704 462.823 150.522 463.549 150.522ZM466.441 154.821C466.441 154.246 466.32 153.747 466.078 153.323C465.846 152.899 465.538 152.576 465.154 152.354C464.771 152.132 464.357 152.021 463.913 152.021C463.469 152.021 463.055 152.132 462.671 152.354C462.288 152.566 461.975 152.884 461.733 153.308C461.5 153.721 461.384 154.216 461.384 154.791C461.384 155.367 461.5 155.871 461.733 156.305C461.975 156.739 462.288 157.072 462.671 157.304C463.065 157.526 463.479 157.637 463.913 157.637C464.357 157.637 464.771 157.526 465.154 157.304C465.538 157.082 465.846 156.759 466.078 156.335C466.32 155.901 466.441 155.397 466.441 154.821ZM469.874 154.791C469.874 153.953 470.045 153.212 470.388 152.566C470.742 151.92 471.216 151.42 471.812 151.067C472.417 150.704 473.083 150.522 473.81 150.522C474.466 150.522 475.036 150.653 475.521 150.915C476.015 151.168 476.409 151.486 476.702 151.869V150.658H478.443V159H476.702V157.759C476.409 158.152 476.01 158.48 475.506 158.743C475.001 159.005 474.426 159.136 473.78 159.136C473.063 159.136 472.407 158.955 471.812 158.591C471.216 158.218 470.742 157.703 470.388 157.047C470.045 156.381 469.874 155.629 469.874 154.791ZM476.702 154.821C476.702 154.246 476.58 153.747 476.338 153.323C476.106 152.899 475.798 152.576 475.415 152.354C475.031 152.132 474.617 152.021 474.173 152.021C473.729 152.021 473.315 152.132 472.932 152.354C472.548 152.566 472.235 152.884 471.993 153.308C471.761 153.721 471.645 154.216 471.645 154.791C471.645 155.367 471.761 155.871 471.993 156.305C472.235 156.739 472.548 157.072 472.932 157.304C473.325 157.526 473.739 157.637 474.173 157.637C474.617 157.637 475.031 157.526 475.415 157.304C475.798 157.082 476.106 156.759 476.338 156.335C476.58 155.901 476.702 155.397 476.702 154.821ZM484.071 150.522C484.717 150.522 485.287 150.653 485.781 150.915C486.286 151.168 486.68 151.486 486.962 151.869V150.658H488.703V159.136C488.703 159.903 488.542 160.585 488.219 161.18C487.896 161.786 487.426 162.26 486.811 162.603C486.205 162.946 485.479 163.118 484.631 163.118C483.5 163.118 482.562 162.85 481.815 162.316C481.068 161.791 480.644 161.074 480.543 160.166H482.254C482.385 160.6 482.663 160.948 483.086 161.21C483.52 161.483 484.035 161.619 484.631 161.619C485.327 161.619 485.887 161.407 486.311 160.983C486.745 160.559 486.962 159.944 486.962 159.136V157.743C486.67 158.137 486.271 158.47 485.766 158.743C485.272 159.005 484.706 159.136 484.071 159.136C483.344 159.136 482.678 158.955 482.072 158.591C481.477 158.218 481.002 157.703 480.649 157.047C480.306 156.381 480.134 155.629 480.134 154.791C480.134 153.953 480.306 153.212 480.649 152.566C481.002 151.92 481.477 151.42 482.072 151.067C482.678 150.704 483.344 150.522 484.071 150.522ZM486.962 154.821C486.962 154.246 486.841 153.747 486.599 153.323C486.367 152.899 486.059 152.576 485.675 152.354C485.292 152.132 484.878 152.021 484.434 152.021C483.99 152.021 483.576 152.132 483.192 152.354C482.809 152.566 482.496 152.884 482.254 153.308C482.022 153.721 481.906 154.216 481.906 154.791C481.906 155.367 482.022 155.871 482.254 156.305C482.496 156.739 482.809 157.072 483.192 157.304C483.586 157.526 484 157.637 484.434 157.637C484.878 157.637 485.292 157.526 485.675 157.304C486.059 157.082 486.367 156.759 486.599 156.335C486.841 155.901 486.962 155.397 486.962 154.821ZM498.616 154.625C498.616 154.938 498.595 155.22 498.555 155.472H492.181C492.232 156.139 492.479 156.674 492.923 157.077C493.367 157.481 493.912 157.683 494.558 157.683C495.487 157.683 496.143 157.294 496.526 156.517H498.389C498.136 157.284 497.677 157.915 497.011 158.41C496.355 158.894 495.537 159.136 494.558 159.136C493.761 159.136 493.044 158.96 492.408 158.606C491.783 158.243 491.288 157.738 490.925 157.092C490.571 156.436 490.395 155.679 490.395 154.821C490.395 153.964 490.566 153.212 490.91 152.566C491.263 151.91 491.752 151.405 492.378 151.052C493.014 150.698 493.741 150.522 494.558 150.522C495.345 150.522 496.047 150.693 496.663 151.037C497.278 151.38 497.758 151.864 498.101 152.49C498.444 153.106 498.616 153.817 498.616 154.625ZM496.814 154.08C496.804 153.444 496.577 152.934 496.133 152.551C495.689 152.167 495.139 151.975 494.483 151.975C493.887 151.975 493.377 152.167 492.953 152.551C492.53 152.924 492.277 153.434 492.196 154.08H496.814ZM510.412 150.522C511.068 150.522 511.654 150.658 512.168 150.931C512.693 151.203 513.102 151.607 513.395 152.142C513.697 152.677 513.849 153.323 513.849 154.08V159H512.138V154.337C512.138 153.59 511.951 153.02 511.578 152.626C511.204 152.223 510.695 152.021 510.049 152.021C509.403 152.021 508.888 152.223 508.505 152.626C508.131 153.02 507.944 153.59 507.944 154.337V159H506.234V154.337C506.234 153.59 506.047 153.02 505.673 152.626C505.3 152.223 504.79 152.021 504.144 152.021C503.498 152.021 502.984 152.223 502.6 152.626C502.227 153.02 502.04 153.59 502.04 154.337V159H500.314V150.658H502.04V151.612C502.323 151.269 502.681 151.001 503.115 150.81C503.549 150.618 504.013 150.522 504.508 150.522C505.174 150.522 505.769 150.663 506.294 150.946C506.819 151.228 507.223 151.637 507.505 152.172C507.758 151.667 508.151 151.269 508.686 150.976C509.221 150.673 509.796 150.522 510.412 150.522ZM523.69 154.625C523.69 154.938 523.67 155.22 523.63 155.472H517.256C517.307 156.139 517.554 156.674 517.998 157.077C518.442 157.481 518.987 157.683 519.633 157.683C520.562 157.683 521.218 157.294 521.601 156.517H523.463C523.211 157.284 522.752 157.915 522.086 158.41C521.43 158.894 520.612 159.136 519.633 159.136C518.836 159.136 518.119 158.96 517.483 158.606C516.857 158.243 516.363 157.738 516 157.092C515.646 156.436 515.47 155.679 515.47 154.821C515.47 153.964 515.641 153.212 515.984 152.566C516.338 151.91 516.827 151.405 517.453 151.052C518.089 150.698 518.816 150.522 519.633 150.522C520.42 150.522 521.122 150.693 521.737 151.037C522.353 151.38 522.833 151.864 523.176 152.49C523.519 153.106 523.69 153.817 523.69 154.625ZM521.889 154.08C521.879 153.444 521.652 152.934 521.208 152.551C520.763 152.167 520.213 151.975 519.557 151.975C518.962 151.975 518.452 152.167 518.028 152.551C517.604 152.924 517.352 153.434 517.271 154.08H521.889ZM529.598 150.522C530.254 150.522 530.839 150.658 531.354 150.931C531.879 151.203 532.288 151.607 532.58 152.142C532.873 152.677 533.019 153.323 533.019 154.08V159H531.309V154.337C531.309 153.59 531.122 153.02 530.748 152.626C530.375 152.223 529.865 152.021 529.219 152.021C528.573 152.021 528.059 152.223 527.675 152.626C527.302 153.02 527.115 153.59 527.115 154.337V159H525.389V150.658H527.115V151.612C527.397 151.269 527.756 151.001 528.19 150.81C528.634 150.618 529.103 150.522 529.598 150.522ZM537.234 152.066V156.684C537.234 156.997 537.305 157.224 537.446 157.365C537.598 157.496 537.85 157.562 538.203 157.562H539.263V159H537.9C537.123 159 536.528 158.818 536.114 158.455C535.7 158.092 535.493 157.501 535.493 156.684V152.066H534.509V150.658H535.493V148.584H537.234V150.658H539.263V152.066H537.234Z" fill="#868686"/>
<path d="M445.685 192.484C445.732 191.25 446.135 190.299 446.897 189.629C447.658 188.96 448.69 188.626 449.994 188.626C450.859 188.626 451.597 188.776 452.208 189.076C452.831 189.376 453.298 189.785 453.61 190.304C453.933 190.823 454.094 191.406 454.094 192.052C454.094 192.813 453.904 193.436 453.523 193.92C453.143 194.393 452.699 194.716 452.191 194.889V194.959C452.849 195.178 453.368 195.541 453.748 196.049C454.129 196.556 454.319 197.208 454.319 198.004C454.319 198.719 454.152 199.353 453.818 199.907C453.495 200.449 453.016 200.876 452.381 201.187C451.759 201.499 451.015 201.655 450.149 201.655C448.765 201.655 447.658 201.314 446.827 200.634C446.008 199.953 445.576 198.927 445.53 197.554H448.402C448.413 198.061 448.558 198.465 448.834 198.765C449.111 199.053 449.515 199.198 450.046 199.198C450.495 199.198 450.842 199.071 451.084 198.817C451.338 198.552 451.464 198.206 451.464 197.779C451.464 197.225 451.286 196.827 450.928 196.585C450.582 196.331 450.023 196.204 449.25 196.204H448.696V193.799H449.25C449.838 193.799 450.311 193.701 450.668 193.505C451.038 193.298 451.222 192.934 451.222 192.415C451.222 192 451.107 191.677 450.876 191.446C450.645 191.216 450.328 191.1 449.924 191.1C449.486 191.1 449.157 191.233 448.938 191.498C448.731 191.763 448.61 192.092 448.575 192.484H445.685ZM456.058 195.062C456.058 193.078 456.438 191.515 457.2 190.373C457.972 189.232 459.212 188.661 460.92 188.661C462.627 188.661 463.861 189.232 464.622 190.373C465.395 191.515 465.782 193.078 465.782 195.062C465.782 197.069 465.395 198.644 464.622 199.786C463.861 200.928 462.627 201.499 460.92 201.499C459.212 201.499 457.972 200.928 457.2 199.786C456.438 198.644 456.058 197.069 456.058 195.062ZM462.875 195.062C462.875 193.897 462.748 193.003 462.494 192.381C462.24 191.746 461.715 191.429 460.92 191.429C460.124 191.429 459.599 191.746 459.345 192.381C459.091 193.003 458.964 193.897 458.964 195.062C458.964 195.847 459.011 196.499 459.103 197.018C459.195 197.525 459.38 197.94 459.657 198.263C459.945 198.575 460.366 198.731 460.92 198.731C461.473 198.731 461.889 198.575 462.165 198.263C462.454 197.94 462.644 197.525 462.736 197.018C462.829 196.499 462.875 195.847 462.875 195.062ZM469.023 201.689C468.504 201.689 468.077 201.539 467.743 201.239C467.42 200.928 467.258 200.547 467.258 200.097C467.258 199.636 467.42 199.25 467.743 198.938C468.077 198.627 468.504 198.471 469.023 198.471C469.531 198.471 469.946 198.627 470.269 198.938C470.603 199.25 470.771 199.636 470.771 200.097C470.771 200.547 470.603 200.928 470.269 201.239C469.946 201.539 469.531 201.689 469.023 201.689ZM472.228 195.062C472.228 193.078 472.609 191.515 473.37 190.373C474.143 189.232 475.383 188.661 477.09 188.661C478.797 188.661 480.031 189.232 480.793 190.373C481.565 191.515 481.952 193.078 481.952 195.062C481.952 197.069 481.565 198.644 480.793 199.786C480.031 200.928 478.797 201.499 477.09 201.499C475.383 201.499 474.143 200.928 473.37 199.786C472.609 198.644 472.228 197.069 472.228 195.062ZM479.045 195.062C479.045 193.897 478.918 193.003 478.664 192.381C478.411 191.746 477.886 191.429 477.09 191.429C476.294 191.429 475.769 191.746 475.515 192.381C475.262 193.003 475.135 193.897 475.135 195.062C475.135 195.847 475.181 196.499 475.273 197.018C475.365 197.525 475.55 197.94 475.827 198.263C476.115 198.575 476.536 198.731 477.09 198.731C477.643 198.731 478.059 198.575 478.336 198.263C478.624 197.94 478.814 197.525 478.907 197.018C478.999 196.499 479.045 195.847 479.045 195.062ZM492.408 191.498H487.01V193.886C487.241 193.632 487.564 193.424 487.979 193.263C488.394 193.101 488.844 193.021 489.329 193.021C490.194 193.021 490.909 193.217 491.474 193.609C492.051 194.001 492.472 194.509 492.737 195.132C493.002 195.755 493.135 196.429 493.135 197.156C493.135 198.506 492.754 199.578 491.993 200.374C491.232 201.159 490.159 201.551 488.775 201.551C487.852 201.551 487.05 201.395 486.37 201.084C485.689 200.761 485.164 200.317 484.795 199.751C484.426 199.186 484.224 198.534 484.19 197.796H487.079C487.148 198.154 487.316 198.454 487.581 198.696C487.846 198.927 488.21 199.042 488.671 199.042C489.213 199.042 489.617 198.869 489.882 198.523C490.147 198.177 490.28 197.715 490.28 197.139C490.28 196.573 490.142 196.141 489.865 195.841C489.588 195.541 489.184 195.391 488.654 195.391C488.262 195.391 487.939 195.489 487.685 195.685C487.431 195.87 487.264 196.118 487.183 196.429H484.328V188.903H492.408V191.498ZM494.526 192.104C494.526 191.169 494.791 190.448 495.322 189.941C495.864 189.433 496.562 189.18 497.415 189.18C498.269 189.18 498.961 189.433 499.492 189.941C500.022 190.448 500.288 191.169 500.288 192.104C500.288 193.038 500.022 193.759 499.492 194.267C498.961 194.774 498.269 195.028 497.415 195.028C496.562 195.028 495.864 194.774 495.322 194.267C494.791 193.759 494.526 193.038 494.526 192.104ZM506.274 189.37L499.613 201.551H496.758L503.419 189.37H506.274ZM497.398 190.91C496.844 190.91 496.568 191.308 496.568 192.104C496.568 192.888 496.844 193.28 497.398 193.28C497.663 193.28 497.871 193.182 498.021 192.986C498.171 192.79 498.246 192.496 498.246 192.104C498.246 191.308 497.963 190.91 497.398 190.91ZM502.762 198.817C502.762 197.883 503.027 197.162 503.558 196.654C504.088 196.147 504.78 195.893 505.634 195.893C506.488 195.893 507.18 196.147 507.71 196.654C508.241 197.162 508.506 197.883 508.506 198.817C508.506 199.751 508.241 200.472 507.71 200.98C507.18 201.487 506.488 201.741 505.634 201.741C504.78 201.741 504.088 201.487 503.558 200.98C503.027 200.472 502.762 199.751 502.762 198.817ZM505.617 197.623C505.351 197.623 505.144 197.721 504.994 197.917C504.855 198.113 504.786 198.413 504.786 198.817C504.786 199.601 505.063 199.994 505.617 199.994C505.882 199.994 506.09 199.896 506.24 199.699C506.39 199.503 506.465 199.209 506.465 198.817C506.465 198.425 506.39 198.131 506.24 197.935C506.09 197.727 505.882 197.623 505.617 197.623Z" fill="#2B9954"/>
<path d="M415.866 159.019L415.866 148.475M411 152.53L415.293 148.238C415.61 147.921 416.123 147.921 416.44 148.238L420.733 152.53" stroke="#2B9954" stroke-width="2.16279" stroke-linecap="round"/>
<path d="M146.684 146.734V157.256H144.958V150.049L141.749 157.256H140.553L137.328 150.049V157.256H135.602V146.734H137.464L141.158 154.985L144.837 146.734H146.684ZM148.378 153.047C148.378 152.209 148.549 151.468 148.892 150.822C149.246 150.176 149.72 149.676 150.315 149.323C150.921 148.959 151.587 148.778 152.314 148.778C152.97 148.778 153.54 148.909 154.025 149.171C154.519 149.424 154.913 149.742 155.205 150.125V148.914H156.947V157.256H155.205V156.014C154.913 156.408 154.514 156.736 154.009 156.998C153.505 157.261 152.93 157.392 152.284 157.392C151.567 157.392 150.911 157.21 150.315 156.847C149.72 156.474 149.246 155.959 148.892 155.303C148.549 154.637 148.378 153.885 148.378 153.047ZM155.205 153.077C155.205 152.502 155.084 152.002 154.842 151.579C154.61 151.155 154.302 150.832 153.919 150.61C153.535 150.388 153.121 150.277 152.677 150.277C152.233 150.277 151.819 150.388 151.436 150.61C151.052 150.822 150.739 151.139 150.497 151.563C150.265 151.977 150.149 152.472 150.149 153.047C150.149 153.622 150.265 154.127 150.497 154.561C150.739 154.995 151.052 155.328 151.436 155.56C151.829 155.782 152.243 155.893 152.677 155.893C153.121 155.893 153.535 155.782 153.919 155.56C154.302 155.338 154.61 155.015 154.842 154.591C155.084 154.157 155.205 153.653 155.205 153.077ZM160.939 150.125C161.192 149.701 161.525 149.373 161.939 149.141C162.362 148.899 162.862 148.778 163.437 148.778V150.564H162.998C162.322 150.564 161.807 150.736 161.454 151.079C161.111 151.422 160.939 152.018 160.939 152.865V157.256H159.213V148.914H160.939V150.125ZM169.683 154.909C170.652 154.072 171.414 153.385 171.969 152.85C172.535 152.305 173.004 151.74 173.377 151.155C173.751 150.569 173.937 149.984 173.937 149.398C173.937 148.793 173.791 148.318 173.498 147.975C173.216 147.632 172.767 147.461 172.151 147.461C171.556 147.461 171.091 147.652 170.758 148.036C170.435 148.409 170.264 148.914 170.243 149.55H168.578C168.608 148.399 168.952 147.521 169.608 146.916C170.274 146.3 171.116 145.992 172.136 145.992C173.236 145.992 174.094 146.295 174.71 146.9C175.335 147.506 175.648 148.313 175.648 149.323C175.648 150.049 175.462 150.751 175.088 151.427C174.725 152.093 174.286 152.694 173.771 153.229C173.266 153.754 172.62 154.364 171.833 155.061L171.152 155.666H175.951V157.104H168.593V155.848L169.683 154.909ZM177.437 148.944C177.497 148.006 177.856 147.274 178.512 146.749C179.178 146.224 180.026 145.962 181.055 145.962C181.762 145.962 182.372 146.088 182.887 146.34C183.402 146.593 183.79 146.936 184.053 147.37C184.315 147.804 184.447 148.293 184.447 148.838C184.447 149.464 184.28 149.999 183.947 150.443C183.614 150.887 183.215 151.185 182.751 151.336V151.397C183.346 151.579 183.811 151.912 184.144 152.396C184.477 152.87 184.643 153.481 184.643 154.228C184.643 154.823 184.507 155.353 184.235 155.818C183.962 156.282 183.558 156.65 183.023 156.923C182.488 157.185 181.848 157.316 181.101 157.316C180.011 157.316 179.112 157.039 178.406 156.484C177.709 155.919 177.336 155.111 177.286 154.061H178.951C178.991 154.596 179.198 155.035 179.572 155.379C179.945 155.712 180.45 155.878 181.086 155.878C181.701 155.878 182.176 155.712 182.509 155.379C182.842 155.035 183.008 154.596 183.008 154.061C183.008 153.355 182.781 152.855 182.327 152.563C181.883 152.26 181.197 152.108 180.268 152.108H179.874V150.685H180.283C181.101 150.675 181.721 150.539 182.145 150.277C182.579 150.014 182.796 149.6 182.796 149.035C182.796 148.551 182.64 148.167 182.327 147.884C182.014 147.592 181.57 147.445 180.995 147.445C180.43 147.445 179.99 147.592 179.678 147.884C179.365 148.167 179.178 148.52 179.117 148.944H177.437ZM193.087 151.049V152.502H186.865V151.049H193.087ZM205.816 155.106H201.41L200.653 157.256H198.851L202.621 146.719H204.62L208.389 157.256H206.573L205.816 155.106ZM205.331 153.698L203.62 148.808L201.895 153.698H205.331ZM211.754 150.14C212.047 149.757 212.446 149.434 212.95 149.171C213.455 148.909 214.025 148.778 214.661 148.778C215.388 148.778 216.049 148.959 216.644 149.323C217.25 149.676 217.724 150.176 218.068 150.822C218.411 151.468 218.582 152.209 218.582 153.047C218.582 153.885 218.411 154.637 218.068 155.303C217.724 155.959 217.25 156.474 216.644 156.847C216.049 157.21 215.388 157.392 214.661 157.392C214.025 157.392 213.46 157.266 212.966 157.014C212.471 156.751 212.067 156.428 211.754 156.045V161.222H210.028V148.914H211.754V150.14ZM216.826 153.047C216.826 152.472 216.705 151.977 216.463 151.563C216.231 151.139 215.918 150.822 215.524 150.61C215.141 150.388 214.727 150.277 214.283 150.277C213.849 150.277 213.435 150.388 213.041 150.61C212.658 150.832 212.345 151.155 212.103 151.579C211.87 152.002 211.754 152.502 211.754 153.077C211.754 153.653 211.87 154.157 212.103 154.591C212.345 155.015 212.658 155.338 213.041 155.56C213.435 155.782 213.849 155.893 214.283 155.893C214.727 155.893 215.141 155.782 215.524 155.56C215.918 155.328 216.231 154.995 216.463 154.561C216.705 154.127 216.826 153.622 216.826 153.047ZM222.015 150.125C222.267 149.701 222.6 149.373 223.014 149.141C223.438 148.899 223.938 148.778 224.513 148.778V150.564H224.074C223.398 150.564 222.883 150.736 222.53 151.079C222.187 151.422 222.015 152.018 222.015 152.865V157.256H220.289V148.914H222.015V150.125ZM229.805 151.594C229.805 149.848 230.098 148.485 230.683 147.506C231.279 146.517 232.298 146.022 233.741 146.022C235.185 146.022 236.199 146.517 236.784 147.506C237.38 148.485 237.678 149.848 237.678 151.594C237.678 153.36 237.38 154.743 236.784 155.742C236.199 156.731 235.185 157.226 233.741 157.226C232.298 157.226 231.279 156.731 230.683 155.742C230.098 154.743 229.805 153.36 229.805 151.594ZM235.982 151.594C235.982 150.776 235.926 150.085 235.815 149.52C235.715 148.954 235.503 148.495 235.18 148.142C234.857 147.779 234.377 147.597 233.741 147.597C233.105 147.597 232.626 147.779 232.303 148.142C231.98 148.495 231.763 148.954 231.652 149.52C231.551 150.085 231.501 150.776 231.501 151.594C231.501 152.441 231.551 153.153 231.652 153.728C231.753 154.304 231.965 154.768 232.288 155.121C232.621 155.474 233.105 155.651 233.741 155.651C234.377 155.651 234.857 155.474 235.18 155.121C235.513 154.768 235.73 154.304 235.831 153.728C235.932 153.153 235.982 152.441 235.982 151.594ZM239.277 147.794V146.219H242.426V157.256H240.685V147.794H239.277Z" fill="#868686"/>
<path d="M357.234 319.012C357.234 378.735 308.576 427.151 248.553 427.151C188.531 427.151 139.873 378.735 139.873 319.012C139.873 259.288 188.531 210.872 248.553 210.872C308.576 210.872 357.234 259.288 357.234 319.012ZM175.831 319.012C175.831 358.975 208.39 391.372 248.553 391.372C288.716 391.372 321.275 358.975 321.275 319.012C321.275 279.048 288.716 246.652 248.553 246.652C208.39 246.652 175.831 279.048 175.831 319.012Z" fill="#00676C"/>
<path d="M141.033 366.63C131.348 350.392 126.105 331.913 125.826 313.033C125.547 294.153 130.241 275.529 139.441 259.015C148.641 242.5 162.027 228.67 178.266 218.901C194.506 209.132 213.033 203.764 232.004 203.331L233.168 253.865C223.065 254.096 213.198 256.955 204.549 262.157C195.9 267.36 188.772 274.726 183.872 283.521C178.972 292.316 176.472 302.235 176.621 312.29C176.77 322.345 179.562 332.186 184.719 340.834L141.033 366.63Z" fill="#1C9F60"/>
<g filter="url(#filter2_d_1383_22716)">
<ellipse cx="160.42" cy="238.448" rx="36.7674" ry="37.3081" fill="white"/>
</g>
<path d="M139.882 123.551C141.151 123.551 142.264 123.799 143.222 124.295C144.191 124.791 144.935 125.5 145.454 126.423C145.984 127.334 146.25 128.396 146.25 129.607C146.25 130.818 145.984 131.879 145.454 132.79C144.935 133.69 144.191 134.388 143.222 134.884C142.264 135.38 141.151 135.628 139.882 135.628H135.661V123.551H139.882ZM139.796 133.569C141.065 133.569 142.045 133.223 142.737 132.531C143.429 131.839 143.775 130.864 143.775 129.607C143.775 128.349 143.429 127.369 142.737 126.665C142.045 125.95 141.065 125.593 139.796 125.593H138.083V133.569H139.796ZM147.44 130.801C147.44 129.832 147.63 128.972 148.011 128.223C148.403 127.473 148.928 126.896 149.586 126.492C150.255 126.089 150.999 125.887 151.818 125.887C152.533 125.887 153.156 126.031 153.686 126.319C154.228 126.608 154.661 126.971 154.984 127.409V126.042H157.423V135.628H154.984V134.226C154.672 134.676 154.24 135.051 153.686 135.351C153.144 135.639 152.515 135.784 151.8 135.784C150.993 135.784 150.255 135.576 149.586 135.161C148.928 134.746 148.403 134.163 148.011 133.413C147.63 132.652 147.44 131.781 147.44 130.801ZM154.984 130.835C154.984 130.247 154.868 129.745 154.638 129.33C154.407 128.903 154.096 128.58 153.703 128.361C153.311 128.13 152.89 128.015 152.44 128.015C151.991 128.015 151.575 128.124 151.195 128.344C150.814 128.563 150.503 128.886 150.26 129.313C150.03 129.728 149.914 130.224 149.914 130.801C149.914 131.377 150.03 131.885 150.26 132.323C150.503 132.75 150.814 133.079 151.195 133.309C151.587 133.54 152.002 133.655 152.44 133.655C152.89 133.655 153.311 133.546 153.703 133.327C154.096 133.096 154.407 132.773 154.638 132.358C154.868 131.931 154.984 131.423 154.984 130.835ZM162.61 128.032V132.669C162.61 132.992 162.685 133.229 162.835 133.379C162.996 133.517 163.261 133.586 163.63 133.586H164.755V135.628H163.232C161.191 135.628 160.17 134.636 160.17 132.652V128.032H159.028V126.042H160.17V123.672H162.61V126.042H164.755V128.032H162.61ZM165.874 130.801C165.874 129.832 166.065 128.972 166.445 128.223C166.838 127.473 167.362 126.896 168.02 126.492C168.689 126.089 169.433 125.887 170.252 125.887C170.967 125.887 171.59 126.031 172.121 126.319C172.663 126.608 173.095 126.971 173.418 127.409V126.042H175.858V135.628H173.418V134.226C173.107 134.676 172.674 135.051 172.121 135.351C171.578 135.639 170.95 135.784 170.235 135.784C169.427 135.784 168.689 135.576 168.02 135.161C167.362 134.746 166.838 134.163 166.445 133.413C166.065 132.652 165.874 131.781 165.874 130.801ZM173.418 130.835C173.418 130.247 173.303 129.745 173.072 129.33C172.842 128.903 172.53 128.58 172.138 128.361C171.746 128.13 171.325 128.015 170.875 128.015C170.425 128.015 170.01 128.124 169.629 128.344C169.248 128.563 168.937 128.886 168.695 129.313C168.464 129.728 168.349 130.224 168.349 130.801C168.349 131.377 168.464 131.885 168.695 132.323C168.937 132.75 169.248 133.079 169.629 133.309C170.021 133.54 170.436 133.655 170.875 133.655C171.325 133.655 171.746 133.546 172.138 133.327C172.53 133.096 172.842 132.773 173.072 132.358C173.303 131.931 173.418 131.423 173.418 130.835ZM189.752 133.327H184.942L184.146 135.628H181.603L185.945 123.534H188.766L193.109 135.628H190.548L189.752 133.327ZM189.094 131.389L187.347 126.337L185.599 131.389H189.094ZM200.044 125.904C201.186 125.904 202.108 126.267 202.812 126.994C203.516 127.709 203.868 128.713 203.868 130.005V135.628H201.445V130.333C201.445 129.572 201.255 128.99 200.874 128.586C200.494 128.171 199.974 127.963 199.317 127.963C198.648 127.963 198.117 128.171 197.725 128.586C197.345 128.99 197.154 129.572 197.154 130.333V135.628H194.732V126.042H197.154V127.236C197.477 126.821 197.887 126.498 198.383 126.267C198.89 126.025 199.444 125.904 200.044 125.904ZM205.548 130.801C205.548 129.832 205.738 128.972 206.119 128.223C206.511 127.473 207.036 126.896 207.694 126.492C208.363 126.089 209.107 125.887 209.926 125.887C210.641 125.887 211.264 126.031 211.794 126.319C212.336 126.608 212.769 126.971 213.092 127.409V126.042H215.532V135.628H213.092V134.226C212.781 134.676 212.348 135.051 211.794 135.351C211.252 135.639 210.623 135.784 209.908 135.784C209.101 135.784 208.363 135.576 207.694 135.161C207.036 134.746 206.511 134.163 206.119 133.413C205.738 132.652 205.548 131.781 205.548 130.801ZM213.092 130.835C213.092 130.247 212.977 129.745 212.746 129.33C212.515 128.903 212.204 128.58 211.812 128.361C211.419 128.13 210.998 128.015 210.549 128.015C210.099 128.015 209.683 128.124 209.303 128.344C208.922 128.563 208.611 128.886 208.368 129.313C208.138 129.728 208.022 130.224 208.022 130.801C208.022 131.377 208.138 131.885 208.368 132.323C208.611 132.75 208.922 133.079 209.303 133.309C209.695 133.54 210.11 133.655 210.549 133.655C210.998 133.655 211.419 133.546 211.812 133.327C212.204 133.096 212.515 132.773 212.746 132.358C212.977 131.931 213.092 131.423 213.092 130.835ZM220.32 122.824V135.628H217.897V122.824H220.32ZM231.883 126.042L225.949 140.161H223.37L225.447 135.386L221.606 126.042H224.322L226.796 132.738L229.305 126.042H231.883ZM236.009 128.032V132.669C236.009 132.992 236.084 133.229 236.234 133.379C236.396 133.517 236.661 133.586 237.03 133.586H238.155V135.628H236.632C234.59 135.628 233.57 134.636 233.57 132.652V128.032H232.428V126.042H233.57V123.672H236.009V126.042H238.155V128.032H236.009ZM241.125 124.9C240.699 124.9 240.341 124.768 240.053 124.503C239.776 124.226 239.637 123.885 239.637 123.482C239.637 123.078 239.776 122.743 240.053 122.478C240.341 122.201 240.699 122.063 241.125 122.063C241.552 122.063 241.904 122.201 242.181 122.478C242.469 122.743 242.613 123.078 242.613 123.482C242.613 123.885 242.469 124.226 242.181 124.503C241.904 124.768 241.552 124.9 241.125 124.9ZM242.319 126.042V135.628H239.897V126.042H242.319ZM244.09 130.835C244.09 129.843 244.292 128.978 244.695 128.24C245.099 127.49 245.658 126.913 246.374 126.51C247.089 126.094 247.908 125.887 248.831 125.887C250.019 125.887 250.999 126.187 251.772 126.786C252.556 127.375 253.081 128.205 253.346 129.278H250.734C250.595 128.863 250.359 128.54 250.024 128.309C249.701 128.067 249.298 127.946 248.813 127.946C248.121 127.946 247.573 128.199 247.17 128.707C246.766 129.203 246.564 129.912 246.564 130.835C246.564 131.746 246.766 132.456 247.17 132.963C247.573 133.459 248.121 133.707 248.813 133.707C249.794 133.707 250.434 133.269 250.734 132.392H253.346C253.081 133.431 252.556 134.255 251.772 134.867C250.988 135.478 250.007 135.784 248.831 135.784C247.908 135.784 247.089 135.582 246.374 135.178C245.658 134.763 245.099 134.186 244.695 133.448C244.292 132.698 244.09 131.827 244.09 130.835ZM258.789 135.784C258.005 135.784 257.301 135.645 256.678 135.368C256.055 135.08 255.559 134.694 255.19 134.209C254.833 133.725 254.637 133.188 254.602 132.6H257.042C257.088 132.969 257.267 133.275 257.578 133.517C257.901 133.759 258.299 133.88 258.772 133.88C259.233 133.88 259.591 133.788 259.845 133.604C260.11 133.419 260.243 133.183 260.243 132.894C260.243 132.583 260.081 132.352 259.758 132.202C259.447 132.041 258.945 131.868 258.253 131.683C257.538 131.51 256.949 131.331 256.488 131.147C256.038 130.962 255.646 130.679 255.311 130.299C254.988 129.918 254.827 129.405 254.827 128.759C254.827 128.228 254.977 127.744 255.277 127.306C255.588 126.867 256.027 126.521 256.592 126.267C257.168 126.014 257.843 125.887 258.616 125.887C259.758 125.887 260.669 126.175 261.35 126.752C262.03 127.317 262.405 128.084 262.475 129.053H260.156C260.121 128.672 259.96 128.372 259.672 128.153C259.395 127.923 259.02 127.807 258.547 127.807C258.109 127.807 257.768 127.888 257.526 128.05C257.295 128.211 257.18 128.436 257.18 128.724C257.18 129.047 257.342 129.295 257.664 129.468C257.987 129.63 258.489 129.797 259.17 129.97C259.862 130.143 260.433 130.322 260.883 130.506C261.333 130.691 261.719 130.979 262.042 131.372C262.376 131.752 262.55 132.26 262.561 132.894C262.561 133.448 262.405 133.944 262.094 134.382C261.794 134.82 261.356 135.167 260.779 135.42C260.214 135.663 259.55 135.784 258.789 135.784Z" fill="#292727"/>
<g filter="url(#filter3_d_1383_22716)">
<ellipse cx="320.467" cy="401.738" rx="36.7674" ry="37.3081" fill="white"/>
</g>
<mask id="mask0_1383_22716" style="mask-type:luminance" maskUnits="userSpaceOnUse" x="480" y="291" width="43" height="40">
<path d="M522.234 291H480.373V330.224H522.234V291Z" fill="white"/>
</mask>
<g mask="url(#mask0_1383_22716)">
<path d="M490.373 295.23L490.042 295.173L489.71 295.115L489.379 295.058L489.048 295.001L488.998 294.993L488.768 291.926L488.166 291.82L488.396 294.892L488.166 294.852L484.246 294.171L484.016 291.105L483.414 290.999L483.644 294.071L480.373 293.501L480.415 294.066L483.689 294.631L483.976 298.521L480.708 297.955L480.749 298.52L484.021 299.086L484.31 302.974L481.038 302.41L481.081 302.974L484.351 303.539L484.639 307.434L481.368 306.868L481.409 307.432L484.68 307.998L484.969 311.883L481.699 311.319L481.74 311.883L485.01 312.449L485.299 316.339L482.029 315.774L482.07 316.338L485.341 316.902L485.357 317.114L485.631 320.793L482.36 320.227L482.402 320.792L485.673 321.358L485.781 322.817L485.962 325.247L482.692 324.681L482.734 325.244L486.005 325.81L486.294 329.699L483.024 329.135L483.066 329.698L486.102 330.228L486.88 329.593L486.607 325.921L488.162 326.184L489.047 326.336L489.378 326.394L489.709 326.452L490.041 326.509L490.371 326.566L490.522 326.591L490.704 326.442L491.298 325.953L491.135 323.747L491.02 322.286L492.908 322.613L493.793 322.765L494.125 322.823L494.456 322.88L494.786 322.937L494.937 322.962L495.118 322.813L495.713 322.325L495.44 318.653L497.335 318.974H497.344L498.552 319.186L498.884 319.243L499.215 319.3L499.364 319.327L499.545 319.177L500.14 318.688L499.867 315.017L501.755 315.343L503.298 315.608L503.631 315.666L503.78 315.691L503.961 315.542L504.556 315.053L504.423 313.268L504.284 311.382L506.171 311.707L508.051 312.033L508.2 312.058L508.381 311.909L508.976 311.419L508.704 307.752L510.592 308.078L512.62 308.429L512.801 308.279L513.396 307.79L513.124 304.118L515.011 304.445L517.039 304.795L517.816 304.16L517.543 300.488L521.458 301.165L522.236 300.53L522.023 297.681L521.421 297.575L521.651 300.642L517.502 299.925L517.272 296.858L516.672 296.752L516.901 299.819L515.011 299.489L512.801 299.107L512.75 299.098L512.52 296.032L511.92 295.926L512.149 298.991L510.592 298.723L508.382 298.342L508.052 298.285L508 298.276L507.771 295.21L507.169 295.104L507.398 298.176L506.172 297.964L503.962 297.583L503.632 297.525L503.3 297.468L503.249 297.46L503.02 294.393L502.418 294.287L502.647 297.359L501.753 297.204L499.543 296.823L499.213 296.766L498.881 296.709L498.55 296.651L498.498 296.643L498.269 293.576L497.668 293.47L497.897 296.542L497.335 296.433L495.126 296.051L494.792 295.994L494.462 295.936L494.13 295.879L493.799 295.822L493.747 295.814L493.518 292.747L492.916 292.641L493.145 295.713L492.916 295.674L492.863 295.664L490.707 295.291L490.373 295.23ZM484.288 294.735L488.162 295.405L488.436 295.452L488.725 299.342L488.162 299.245L484.578 298.625L484.288 294.735ZM484.619 299.19L488.162 299.807L488.767 299.913L489.047 303.676L489.057 303.803H489.047L488.162 303.642L484.907 303.079L484.619 299.19ZM484.951 303.639L488.162 304.195L489.047 304.347L489.099 304.356L489.378 308.121L489.387 308.247H489.378L489.047 308.189L488.162 308.038L485.239 307.534L484.951 303.639ZM485.282 308.088L488.162 308.599L489.047 308.753L489.378 308.81L489.43 308.819L489.709 312.581L489.719 312.708H489.71L489.379 312.651L489.048 312.594L488.162 312.435L485.571 311.989L485.282 308.088ZM499.213 306.222L499.204 306.097H499.213L499.543 306.154L501.753 306.537L503.298 306.814L503.35 306.823L503.631 310.588L503.643 310.718H503.633L503.301 310.661L501.754 310.394L499.544 310.011L499.492 310.003L499.213 306.222ZM499.213 314.209L499.222 314.337H499.213L498.881 314.279L498.55 314.222L497.333 314.01L496.967 313.948L495.123 313.63L495.073 313.621L494.792 309.87L494.784 309.745H494.792L495.123 309.803L497.333 310.184L498.55 310.396L498.881 310.453L498.932 310.462L499.073 312.347L499.213 314.209ZM490.373 313.488L490.363 313.363H490.373L490.705 313.42L492.914 313.802L493.799 313.955L494.13 314.011L494.228 314.028L494.457 314.07L494.509 314.078L494.787 317.843L494.797 317.968H494.787L494.512 317.919L494.457 317.909L494.126 317.853L493.794 317.795L492.909 317.642L490.701 317.26L490.649 317.252L490.373 313.488ZM498.881 309.881L498.55 309.824L497.333 309.612L495.123 309.23L494.792 309.172L494.742 309.164L494.462 305.399L494.451 305.273H494.462L494.792 305.33L495.123 305.388L497.335 305.784L498.552 305.996L498.604 306.005L498.881 309.765L498.89 309.892L498.881 309.881ZM494.462 313.389L494.471 313.516H494.462L494.185 313.468L494.13 313.458L493.799 313.401L492.914 313.26L490.705 312.878L490.373 312.821L490.321 312.811L490.042 309.044L490.033 308.917H490.042L490.373 308.974L490.705 309.031L492.914 309.413L493.799 309.566L493.896 309.583L494.126 309.624L494.177 309.632L494.462 313.389ZM490.051 317.158H490.042L489.71 317.101L489.379 317.044L489.048 316.987L488.162 316.832L485.903 316.438L485.614 312.548L488.162 312.992L489.047 313.146L489.378 313.202L489.709 313.26L489.76 313.269L490.041 317.034L490.051 317.158ZM494.13 309.07L493.854 309.022L493.799 309.012L492.914 308.859L490.705 308.477L490.373 308.42L490.042 308.363L489.991 308.355L489.71 304.59L489.702 304.468H489.71L490.042 304.525L490.373 304.582L490.705 304.64L492.914 305.022L493.565 305.134L493.794 305.175L493.846 305.183L494.126 308.948L494.135 309.074L494.13 309.07ZM485.944 317.006L488.162 317.391L489.047 317.544L489.378 317.601L489.709 317.659L490.041 317.716L490.093 317.725L490.108 317.937L490.371 321.489L490.382 321.616H490.371L490.041 321.56L489.709 321.502L489.378 321.444L489.047 321.387L488.162 321.229L486.233 320.896L485.96 317.217L485.944 317.006ZM490.705 326.065L490.373 326.008L490.042 325.951L489.71 325.893L489.379 325.836L489.048 325.779L488.162 325.626L486.563 325.35L486.384 322.921L486.27 321.46L488.162 321.786L489.047 321.939L489.378 321.996L489.709 322.053L490.041 322.111L490.371 322.168L490.423 322.176L490.538 323.637L490.71 325.941L490.719 326.067L490.705 326.065ZM495.123 322.432L494.792 322.374L494.462 322.317L494.13 322.26L493.799 322.203L492.914 322.052L490.984 321.719L490.711 318.038V317.952L490.701 317.827H490.711L492.919 318.209L493.805 318.362L494.136 318.419L494.468 318.476L494.564 318.493L494.793 318.533L494.845 318.543L495.125 322.306L495.135 322.433L495.123 322.432ZM499.543 318.799L499.213 318.742L498.881 318.685L498.55 318.628L497.333 318.416L497.299 318.409L495.403 318.082L495.123 314.32L495.114 314.193H495.123L497.01 314.519L497.333 314.575L498.55 314.787L498.881 314.844L499.213 314.901L499.264 314.91L499.543 318.672L499.553 318.799H499.543ZM503.962 315.167L503.632 315.11L503.3 315.053L501.753 314.786L499.824 314.452L499.675 312.448L499.543 310.687L499.534 310.561H499.543L501.753 310.944L503.298 311.212L503.631 311.269L503.683 311.277L503.823 313.163L503.961 315.041L503.97 315.168L503.962 315.167ZM508.382 311.534L508.052 311.476L506.172 311.152L504.243 310.819L503.962 307.054L503.953 306.929H503.962L506.172 307.31L508.052 307.635L508.102 307.645L508.382 311.409L508.391 311.535L508.382 311.534ZM512.801 299.669L515.011 300.051L516.944 300.378L517.234 304.268L515.015 303.884L513.085 303.552L512.805 299.787L512.796 299.661L512.801 299.669ZM512.801 307.78L512.811 307.908H512.801L510.592 307.525L508.663 307.191L508.382 303.427L508.373 303.302H508.382L510.592 303.683L512.522 304.017L512.801 307.78ZM508.052 298.842L508.382 298.899L510.592 299.277L512.19 299.553L512.48 303.443L510.592 303.116L508.382 302.735L508.33 302.725L508.052 298.962L508.041 298.836L508.052 298.842ZM508.052 306.953L508.061 307.08H508.052L506.172 306.755L503.962 306.375L503.911 306.366L503.632 302.602L503.622 302.477H503.632L503.962 302.535L506.172 302.916L507.771 303.191L508.052 306.953ZM503.298 298.021L503.631 298.078L503.961 298.136L506.171 298.517L507.439 298.736L507.728 302.626L506.171 302.357L503.961 301.976L503.631 301.918L503.579 301.909L503.298 298.145L503.289 298.019L503.298 298.021ZM503.298 306.133L503.309 306.259H503.298L501.752 305.992L499.542 305.61L499.212 305.553L499.16 305.544L498.88 301.78L498.87 301.655H498.88L499.212 301.712L499.542 301.769L501.752 302.151L503.02 302.371L503.298 306.133ZM498.55 297.199L498.881 297.257L499.213 297.315L499.543 297.372L501.753 297.753L502.688 297.915L502.979 301.805L501.753 301.593L499.543 301.212L499.213 301.155L498.881 301.096L498.83 301.088L498.55 297.323L498.541 297.198L498.55 297.199ZM498.55 305.313L498.559 305.438H498.55L497.333 305.226L495.123 304.845L494.792 304.787L494.462 304.731L494.41 304.721L494.13 300.955L494.121 300.831H494.13L494.462 300.889L494.792 300.946L495.123 301.003L497.335 301.387L498.272 301.549L498.55 305.313ZM493.799 296.378L494.13 296.436L494.462 296.494L494.792 296.551L495.123 296.608L497.335 296.989L497.941 297.095L498.23 300.985L497.335 300.83L495.126 300.449L494.794 300.392L494.464 300.335L494.133 300.276L494.081 300.268L493.799 296.502L493.79 296.377L493.799 296.378ZM493.799 304.49L493.808 304.617H493.799L493.524 304.57L492.914 304.464L490.705 304.082L490.373 304.024L490.042 303.967L489.71 303.91L489.659 303.901L489.379 300.135L489.37 300.011H489.379L489.71 300.068L490.042 300.125L490.373 300.182L490.705 300.239L492.914 300.622L493.234 300.677L493.519 300.726L493.799 304.49ZM492.903 296.228H492.914L493.188 296.275L493.478 300.165L493.192 300.115L492.914 300.068L490.705 299.686L490.373 299.628L490.042 299.572L489.71 299.514L489.379 299.456L489.328 299.448L489.048 295.682L489.039 295.556H489.048L489.379 295.613L489.71 295.676L490.042 295.732L490.373 295.79L490.705 295.847L492.903 296.228Z" fill="#81CEE6"/>
</g>
<path d="M303.19 391.893L299.451 400.651H297.455L301.222 392.118H296.414V390.431H303.19V391.893ZM309.683 392.962C309.589 392.568 309.425 392.273 309.191 392.076C308.966 391.879 308.638 391.781 308.207 391.781C307.56 391.781 307.082 392.043 306.773 392.568C306.473 393.083 306.319 393.927 306.309 395.098C306.534 394.724 306.862 394.433 307.293 394.227C307.724 394.011 308.193 393.903 308.699 393.903C309.308 393.903 309.847 394.035 310.316 394.297C310.784 394.56 311.15 394.944 311.412 395.45C311.675 395.947 311.806 396.546 311.806 397.249C311.806 397.915 311.67 398.51 311.398 399.035C311.136 399.55 310.747 399.953 310.231 400.244C309.716 400.534 309.102 400.679 308.39 400.679C307.415 400.679 306.647 400.464 306.084 400.033C305.531 399.602 305.142 399.002 304.917 398.233C304.702 397.455 304.594 396.5 304.594 395.366C304.594 393.65 304.889 392.357 305.48 391.485C306.07 390.604 307.003 390.164 308.277 390.164C309.261 390.164 310.025 390.431 310.569 390.965C311.112 391.5 311.426 392.165 311.511 392.962H309.683ZM308.249 395.52C307.752 395.52 307.335 395.665 306.998 395.956C306.661 396.246 306.492 396.668 306.492 397.221C306.492 397.774 306.647 398.21 306.956 398.529C307.274 398.847 307.72 399.007 308.291 399.007C308.797 399.007 309.196 398.852 309.486 398.543C309.786 398.233 309.936 397.816 309.936 397.291C309.936 396.748 309.791 396.317 309.5 395.998C309.219 395.679 308.802 395.52 308.249 395.52ZM314.458 400.75C314.102 400.75 313.807 400.642 313.572 400.426C313.347 400.202 313.235 399.925 313.235 399.597C313.235 399.269 313.347 398.997 313.572 398.782C313.807 398.557 314.102 398.444 314.458 398.444C314.805 398.444 315.091 398.557 315.315 398.782C315.54 398.997 315.653 399.269 315.653 399.597C315.653 399.925 315.54 400.202 315.315 400.426C315.091 400.642 314.805 400.75 314.458 400.75ZM316.929 398.655V397.109L321.526 390.53H323.817V396.94H325.054V398.655H323.817V400.651H321.849V398.655H316.929ZM321.976 392.638L319.094 396.94H321.976V392.638ZM333.196 392.104H328.641V394.508C328.838 394.264 329.119 394.067 329.485 393.918C329.85 393.758 330.239 393.679 330.651 393.679C331.401 393.679 332.015 393.843 332.493 394.171C332.971 394.499 333.318 394.92 333.533 395.436C333.749 395.942 333.857 396.485 333.857 397.067C333.857 398.144 333.547 399.011 332.929 399.667C332.32 400.323 331.448 400.651 330.314 400.651C329.246 400.651 328.393 400.384 327.755 399.85C327.118 399.316 326.757 398.618 326.673 397.755H328.585C328.669 398.13 328.857 398.43 329.147 398.655C329.447 398.88 329.827 398.993 330.286 398.993C330.839 398.993 331.256 398.819 331.537 398.472C331.818 398.126 331.959 397.666 331.959 397.095C331.959 396.514 331.814 396.073 331.523 395.773C331.242 395.464 330.825 395.309 330.272 395.309C329.878 395.309 329.55 395.408 329.288 395.604C329.025 395.801 328.838 396.064 328.726 396.392H326.842V390.375H333.196V392.104ZM335.13 392.919C335.13 392.207 335.336 391.649 335.748 391.246C336.17 390.843 336.709 390.642 337.365 390.642C338.021 390.642 338.555 390.843 338.968 391.246C339.389 391.649 339.6 392.207 339.6 392.919C339.6 393.641 339.389 394.203 338.968 394.606C338.555 395.009 338.021 395.211 337.365 395.211C336.709 395.211 336.17 395.009 335.748 394.606C335.336 394.203 335.13 393.641 335.13 392.919ZM344.155 390.811L338.63 400.651H336.718L342.229 390.811H344.155ZM337.351 391.823C336.835 391.823 336.578 392.188 336.578 392.919C336.578 393.66 336.835 394.03 337.351 394.03C337.604 394.03 337.801 393.941 337.941 393.763C338.082 393.575 338.152 393.294 338.152 392.919C338.152 392.188 337.885 391.823 337.351 391.823ZM341.301 398.529C341.301 397.807 341.507 397.249 341.92 396.856C342.342 396.453 342.88 396.251 343.537 396.251C344.193 396.251 344.722 396.453 345.125 396.856C345.537 397.249 345.744 397.807 345.744 398.529C345.744 399.25 345.537 399.813 345.125 400.216C344.722 400.619 344.193 400.82 343.537 400.82C342.871 400.82 342.332 400.619 341.92 400.216C341.507 399.813 341.301 399.25 341.301 398.529ZM343.522 397.432C342.988 397.432 342.721 397.798 342.721 398.529C342.721 399.269 342.988 399.639 343.522 399.639C344.047 399.639 344.31 399.269 344.31 398.529C344.31 397.798 344.047 397.432 343.522 397.432Z" fill="black"/>
<path d="M143.143 235.297L139.404 244.056H137.408L141.175 235.522H136.367V233.835H143.143V235.297ZM149.636 236.366C149.543 235.972 149.378 235.677 149.144 235.48C148.919 235.283 148.591 235.185 148.16 235.185C147.513 235.185 147.035 235.447 146.726 235.972C146.426 236.488 146.272 237.331 146.262 238.503C146.487 238.128 146.815 237.837 147.246 237.631C147.677 237.416 148.146 237.308 148.652 237.308C149.261 237.308 149.8 237.439 150.269 237.701C150.737 237.964 151.103 238.348 151.365 238.854C151.628 239.351 151.759 239.951 151.759 240.654C151.759 241.319 151.623 241.914 151.351 242.439C151.089 242.954 150.7 243.357 150.184 243.648C149.669 243.939 149.055 244.084 148.343 244.084C147.368 244.084 146.6 243.868 146.037 243.437C145.484 243.006 145.095 242.406 144.871 241.638C144.655 240.86 144.547 239.904 144.547 238.77C144.547 237.055 144.842 235.761 145.433 234.89C146.023 234.009 146.956 233.568 148.23 233.568C149.214 233.568 149.978 233.835 150.522 234.37C151.065 234.904 151.379 235.569 151.464 236.366H149.636ZM148.202 238.924C147.706 238.924 147.289 239.07 146.951 239.36C146.614 239.651 146.445 240.073 146.445 240.625C146.445 241.178 146.6 241.614 146.909 241.933C147.228 242.252 147.673 242.411 148.244 242.411C148.751 242.411 149.149 242.256 149.439 241.947C149.739 241.638 149.889 241.221 149.889 240.696C149.889 240.152 149.744 239.721 149.453 239.402C149.172 239.084 148.755 238.924 148.202 238.924ZM154.411 244.154C154.055 244.154 153.76 244.046 153.525 243.831C153.3 243.606 153.188 243.329 153.188 243.001C153.188 242.673 153.3 242.401 153.525 242.186C153.76 241.961 154.055 241.849 154.411 241.849C154.758 241.849 155.044 241.961 155.269 242.186C155.494 242.401 155.606 242.673 155.606 243.001C155.606 243.329 155.494 243.606 155.269 243.831C155.044 244.046 154.758 244.154 154.411 244.154ZM156.882 242.059V240.513L161.479 233.934H163.77V240.344H165.008V242.059H163.77V244.056H161.802V242.059H156.882ZM161.929 236.043L159.047 240.344H161.929V236.043ZM173.149 235.508H168.594V237.912C168.791 237.669 169.072 237.472 169.438 237.322C169.803 237.162 170.192 237.083 170.605 237.083C171.354 237.083 171.968 237.247 172.446 237.575C172.924 237.903 173.271 238.325 173.487 238.84C173.702 239.346 173.81 239.89 173.81 240.471C173.81 241.549 173.501 242.416 172.882 243.072C172.273 243.728 171.401 244.056 170.267 244.056C169.199 244.056 168.346 243.789 167.709 243.254C167.071 242.72 166.71 242.022 166.626 241.16H168.538C168.622 241.535 168.81 241.834 169.1 242.059C169.4 242.284 169.78 242.397 170.239 242.397C170.792 242.397 171.209 242.223 171.49 241.877C171.771 241.53 171.912 241.071 171.912 240.499C171.912 239.918 171.767 239.477 171.476 239.177C171.195 238.868 170.778 238.714 170.225 238.714C169.831 238.714 169.503 238.812 169.241 239.009C168.979 239.206 168.791 239.468 168.679 239.796H166.795V233.779H173.149V235.508ZM175.083 236.324C175.083 235.611 175.289 235.054 175.701 234.651C176.123 234.248 176.662 234.046 177.318 234.046C177.974 234.046 178.508 234.248 178.921 234.651C179.343 235.054 179.553 235.611 179.553 236.324C179.553 237.045 179.343 237.608 178.921 238.011C178.508 238.414 177.974 238.615 177.318 238.615C176.662 238.615 176.123 238.414 175.701 238.011C175.289 237.608 175.083 237.045 175.083 236.324ZM184.108 234.215L178.583 244.056H176.671L182.182 234.215H184.108ZM177.304 235.227C176.789 235.227 176.531 235.593 176.531 236.324C176.531 237.064 176.789 237.434 177.304 237.434C177.557 237.434 177.754 237.345 177.895 237.167C178.035 236.98 178.105 236.699 178.105 236.324C178.105 235.593 177.838 235.227 177.304 235.227ZM181.254 241.933C181.254 241.211 181.461 240.654 181.873 240.26C182.295 239.857 182.834 239.655 183.49 239.655C184.146 239.655 184.675 239.857 185.078 240.26C185.491 240.654 185.697 241.211 185.697 241.933C185.697 242.655 185.491 243.217 185.078 243.62C184.675 244.023 184.146 244.224 183.49 244.224C182.824 244.224 182.285 244.023 181.873 243.62C181.461 243.217 181.254 242.655 181.254 241.933ZM183.476 240.836C182.941 240.836 182.674 241.202 182.674 241.933C182.674 242.673 182.941 243.043 183.476 243.043C184 243.043 184.263 242.673 184.263 241.933C184.263 241.202 184 240.836 183.476 240.836Z" fill="black"/>
<defs>
<filter id="filter0_b_1383_22716" x="-7.19672" y="-7.56977" width="298.466" height="306.035" filterUnits="userSpaceOnUse" color-interpolation-filters="sRGB">
<feFlood flood-opacity="0" result="BackgroundImageFix"/>
<feGaussianBlur in="BackgroundImageFix" stdDeviation="3.78488"/>
<feComposite in2="SourceAlpha" operator="in" result="effect1_backgroundBlur_1383_22716"/>
<feBlend mode="normal" in="SourceGraphic" in2="effect1_backgroundBlur_1383_22716" result="shape"/>
</filter>
<filter id="filter1_d_1383_22716" x="90.1293" y="85.4295" width="316.849" height="401.197" filterUnits="userSpaceOnUse" color-interpolation-filters="sRGB">
<feFlood flood-opacity="0" result="BackgroundImageFix"/>
<feColorMatrix in="SourceAlpha" type="matrix" values="0 0 0 0 0 0 0 0 0 0 0 0 0 0 0 0 0 0 127 0" result="hardAlpha"/>
<feOffset dy="4.32558"/>
<feGaussianBlur stdDeviation="8.65116"/>
<feComposite in2="hardAlpha" operator="out"/>
<feColorMatrix type="matrix" values="0 0 0 0 0.616667 0 0 0 0 0.616667 0 0 0 0 0.616667 0 0 0 0.25 0"/>
<feBlend mode="normal" in2="BackgroundImageFix" result="effect1_dropShadow_1383_22716"/>
<feBlend mode="normal" in="SourceGraphic" in2="effect1_dropShadow_1383_22716" result="shape"/>
</filter>
<filter id="filter2_d_1383_22716" x="110.676" y="188.163" width="108.14" height="109.221" filterUnits="userSpaceOnUse" color-interpolation-filters="sRGB">
<feFlood flood-opacity="0" result="BackgroundImageFix"/>
<feColorMatrix in="SourceAlpha" type="matrix" values="0 0 0 0 0 0 0 0 0 0 0 0 0 0 0 0 0 0 127 0" result="hardAlpha"/>
<feOffset dx="4.32558" dy="4.32558"/>
<feGaussianBlur stdDeviation="8.65116"/>
<feComposite in2="hardAlpha" operator="out"/>
<feColorMatrix type="matrix" values="0 0 0 0 0 0 0 0 0 0 0 0 0 0 0 0 0 0 0.25 0"/>
<feBlend mode="normal" in2="BackgroundImageFix" result="effect1_dropShadow_1383_22716"/>
<feBlend mode="normal" in="SourceGraphic" in2="effect1_dropShadow_1383_22716" result="shape"/>
</filter>
<filter id="filter3_d_1383_22716" x="270.722" y="351.453" width="108.14" height="109.221" filterUnits="userSpaceOnUse" color-interpolation-filters="sRGB">
<feFlood flood-opacity="0" result="BackgroundImageFix"/>
<feColorMatrix in="SourceAlpha" type="matrix" values="0 0 0 0 0 0 0 0 0 0 0 0 0 0 0 0 0 0 127 0" result="hardAlpha"/>
<feOffset dx="4.32558" dy="4.32558"/>
<feGaussianBlur stdDeviation="8.65116"/>
<feComposite in2="hardAlpha" operator="out"/>
<feColorMatrix type="matrix" values="0 0 0 0 0 0 0 0 0 0 0 0 0 0 0 0 0 0 0.25 0"/>
<feBlend mode="normal" in2="BackgroundImageFix" result="effect1_dropShadow_1383_22716"/>
<feBlend mode="normal" in="SourceGraphic" in2="effect1_dropShadow_1383_22716" result="shape"/>
</filter>
<radialGradient id="paint0_radial_1383_22716" cx="0" cy="0" r="1" gradientUnits="userSpaceOnUse" gradientTransform="translate(142.036 145.448) rotate(90) scale(145.448 141.663)">
<stop offset="0.876906" stop-color="#A0D4E4"/>
<stop offset="1" stop-color="#A0D4E4" stop-opacity="0"/>
</radialGradient>
<clipPath id="clip0_1383_22716">
<rect width="160.375" height="45.8522" fill="white" transform="translate(391.838 316.037) rotate(-23.1273)"/>
</clipPath>
</defs>
</svg>
