<svg width="27" height="26" viewBox="0 0 27 26" fill="none" xmlns="http://www.w3.org/2000/svg">
<rect width="27" height="26" rx="13" fill="#F6FFB7"/>
<path d="M9.32881 15.3949L9.77341 15.1661L9.32881 15.3949ZM8.89966 17.8511L8.4321 17.6739L8.4321 17.6739L8.89966 17.8511ZM9.42095 16.4752L8.95339 16.2981H8.95339L9.42095 16.4752ZM16.472 13.6435L16.1185 13.9971L16.1193 13.9978L16.472 13.6435ZM16.4211 13.5926L16.0671 13.9456L16.0676 13.9461L16.4211 13.5926ZM16.502 13.6734L16.1493 14.0277L16.1497 14.0281L16.502 13.6734ZM16.8081 14.0507L17.2543 13.825V13.825L16.8081 14.0507ZM16.8081 14.9612L16.3619 14.7355H16.3619L16.8081 14.9612ZM16.502 15.3385L16.1497 14.9838L16.1493 14.9841L16.502 15.3385ZM16.472 15.3683L16.1193 15.014L16.1184 15.0149L16.472 15.3683ZM16.4069 15.4335L16.0533 15.0801L16.0529 15.0804L16.4069 15.4335ZM16.0236 15.75L16.2685 16.186H16.2685L16.0236 15.75ZM15.3978 15.9128L15.3993 15.4128H15.3993L15.3978 15.9128ZM14.9582 15.8371L15.0952 15.3562L15.095 15.3562L14.9582 15.8371ZM14.9374 15.8312L15.0743 15.3503L15.074 15.3502L14.9374 15.8312ZM12.5621 14.434L12.9157 14.0804H12.9157L12.5621 14.434ZM11.1649 12.0587L11.6459 11.9221L11.6458 11.9218L11.1649 12.0587ZM11.159 12.0379L11.6399 11.9011L11.6399 11.9009L11.159 12.0379ZM11.0833 11.5983L11.5833 11.5968V11.5968L11.0833 11.5983ZM11.2461 10.9725L10.8101 10.7276L10.8101 10.7276L11.2461 10.9725ZM11.5626 10.5892L11.9157 10.9432L11.916 10.9428L11.5626 10.5892ZM11.6576 10.4941L12.0119 10.8468L12.0123 10.8464L11.6576 10.4941ZM11.6277 10.524L11.9812 10.8777L11.9821 10.8768L11.6277 10.524ZM12.0349 10.188L11.8092 9.74184L11.8092 9.74184L12.0349 10.188ZM12.9454 10.188L12.7197 10.6342L12.9454 10.188ZM13.3227 10.4941L12.968 10.8464L12.9684 10.8468L13.3227 10.4941ZM13.3526 10.524L12.9982 10.8768L12.999 10.8776L13.3526 10.524ZM13.4035 10.575L13.05 10.9285L13.0505 10.929L13.4035 10.575ZM13.4233 10.5947L13.0702 10.9488L13.0705 10.949L13.4233 10.5947ZM13.6342 10.8367L14.0534 10.5641L14.0534 10.5641L13.6342 10.8367ZM13.4882 12.1128L13.1287 11.7652C12.9785 11.9206 12.9451 12.155 13.046 12.3462L13.4882 12.1128ZM13.6342 11.9363L13.215 11.6637L13.215 11.6637L13.6342 11.9363ZM15.0598 13.3619L14.7873 12.9427L14.7873 12.9427L15.0598 13.3619ZM14.8833 13.5079L14.6499 13.9501C14.8411 14.051 15.0755 14.0176 15.2309 13.8674L14.8833 13.5079ZM16.1594 13.3619L16.432 12.9427L16.432 12.9427L16.1594 13.3619ZM16.4014 13.5728L16.0471 13.9256L16.0473 13.9259L16.4014 13.5728ZM14.0809 12.9151L14.4345 12.5616H14.4345L14.0809 12.9151ZM18.75 12.9961C18.75 15.6194 16.6234 17.7461 14 17.7461V18.7461C17.1756 18.7461 19.75 16.1717 19.75 12.9961H18.75ZM9.25 12.9961C9.25 10.3727 11.3766 8.24609 14 8.24609V7.24609C10.8244 7.24609 8.25 9.82046 8.25 12.9961H9.25ZM14 8.24609C16.6234 8.24609 18.75 10.3727 18.75 12.9961H19.75C19.75 9.82046 17.1756 7.24609 14 7.24609V8.24609ZM9.17241 18.7461H14V17.7461H9.17241V18.7461ZM9.77341 15.1661C9.43899 14.5162 9.25 13.7789 9.25 12.9961H8.25C8.25 13.9418 8.47869 14.8355 8.88422 15.6236L9.77341 15.1661ZM9.36723 18.0282L9.88852 16.6524L8.95339 16.2981L8.4321 17.6739L9.36723 18.0282ZM8.88422 15.6236C9.00672 15.8617 9.02661 16.1048 8.95339 16.2981L9.88852 16.6524C10.0827 16.1398 9.99626 15.5992 9.77341 15.1661L8.88422 15.6236ZM9.17241 17.7461C9.31817 17.7461 9.41887 17.8919 9.36723 18.0282L8.4321 17.6739C8.23585 18.1919 8.61852 18.7461 9.17241 18.7461V17.7461ZM16.8256 13.29L16.7747 13.239L16.0676 13.9461L16.1185 13.9971L16.8256 13.29ZM16.8548 13.319L16.8248 13.2892L16.1193 13.9978L16.1493 14.0277L16.8548 13.319ZM17.2543 13.825C17.137 13.5933 16.9498 13.4134 16.8544 13.3186L16.1497 14.0281C16.2669 14.1445 16.3301 14.2135 16.3619 14.2763L17.2543 13.825ZM17.2543 15.1869C17.4708 14.7587 17.4708 14.2531 17.2543 13.825L16.3619 14.2763C16.4349 14.4207 16.4349 14.5912 16.3619 14.7355L17.2543 15.1869ZM16.8544 15.6932C16.9498 15.5984 17.137 15.4186 17.2543 15.1869L16.3619 14.7355C16.3301 14.7983 16.2669 14.8673 16.1497 14.9838L16.8544 15.6932ZM16.8248 15.7227L16.8548 15.6928L16.1493 14.9841L16.1193 15.014L16.8248 15.7227ZM16.2685 16.186C16.4915 16.0607 16.6512 15.8966 16.761 15.7866L16.0529 15.0804C15.9323 15.2014 15.8636 15.2664 15.7787 15.3141L16.2685 16.186ZM15.3963 16.4128C15.6862 16.4136 16.0157 16.3279 16.2685 16.186L15.7787 15.3141C15.6764 15.3716 15.5166 15.4131 15.3993 15.4128L15.3963 16.4128ZM14.8212 16.318C14.9541 16.3558 15.1449 16.412 15.3963 16.4128L15.3993 15.4128C15.2991 15.4125 15.2259 15.3935 15.0952 15.3562L14.8212 16.318ZM14.8006 16.3121L14.8214 16.318L15.095 15.3562L15.0743 15.3503L14.8006 16.3121ZM12.2086 14.7875C12.9544 15.5334 13.8508 16.0425 14.8009 16.3122L15.074 15.3502C14.2836 15.1259 13.5379 14.7026 12.9157 14.0804L12.2086 14.7875ZM10.6839 12.1952C10.9536 13.1453 11.4627 14.0417 12.2086 14.7875L12.9157 14.0804C12.2935 13.4582 11.8702 12.7125 11.6459 11.9221L10.6839 12.1952ZM10.6781 12.1747L10.684 12.1955L11.6458 11.9218L11.6399 11.9011L10.6781 12.1747ZM10.5833 11.5998C10.5841 11.8512 10.6403 12.042 10.6781 12.1749L11.6399 11.9009C11.6026 11.7702 11.5836 11.697 11.5833 11.5968L10.5833 11.5998ZM10.8101 10.7276C10.6682 10.9804 10.5825 11.3099 10.5833 11.5998L11.5833 11.5968C11.583 11.4795 11.6245 11.3197 11.682 11.2174L10.8101 10.7276ZM11.2095 10.2351C11.0995 10.3449 10.9354 10.5046 10.8101 10.7276L11.682 11.2174C11.7297 11.1325 11.7947 11.0638 11.9157 10.9432L11.2095 10.2351ZM11.3033 10.1413L11.2734 10.1713L11.9821 10.8768L12.0119 10.8468L11.3033 10.1413ZM11.8092 9.74184C11.5775 9.85905 11.3977 10.0463 11.3029 10.1417L12.0123 10.8464C12.1288 10.7292 12.1978 10.666 12.2606 10.6342L11.8092 9.74184ZM13.1711 9.74184C12.743 9.52529 12.2374 9.52529 11.8092 9.74184L12.2606 10.6342C12.4049 10.5612 12.5754 10.5612 12.7197 10.6342L13.1711 9.74184ZM13.6774 10.1417C13.5827 10.0463 13.4028 9.85905 13.1711 9.74184L12.7197 10.6342C12.7826 10.666 12.8515 10.7292 12.968 10.8464L13.6774 10.1417ZM13.7069 10.1713L13.6771 10.1413L12.9684 10.8468L12.9983 10.8768L13.7069 10.1713ZM13.7571 10.2214L13.7061 10.1705L12.999 10.8776L13.05 10.9285L13.7571 10.2214ZM13.7763 10.2406L13.7565 10.2209L13.0505 10.929L13.0702 10.9488L13.7763 10.2406ZM14.0534 10.5641C13.9606 10.4214 13.8391 10.3031 13.7761 10.2404L13.0705 10.949C13.1474 11.0256 13.1898 11.0705 13.215 11.1092L14.0534 10.5641ZM13.8476 12.4604C13.9069 12.399 13.9858 12.3128 14.0534 12.2088L13.215 11.6637C13.1998 11.6871 13.1733 11.7192 13.1287 11.7652L13.8476 12.4604ZM14.0534 12.2088C14.3785 11.7088 14.3785 11.0642 14.0534 10.5641L13.215 11.1092C13.3246 11.2778 13.3246 11.4951 13.215 11.6637L14.0534 12.2088ZM14.7873 12.9427C14.6833 13.0103 14.5971 13.0892 14.5357 13.1485L15.2309 13.8674C15.2769 13.8228 15.309 13.7963 15.3324 13.7811L14.7873 12.9427ZM16.432 12.9427C15.9319 12.6176 15.2873 12.6176 14.7873 12.9427L15.3324 13.7811C15.5009 13.6715 15.7183 13.6715 15.8869 13.7811L16.432 12.9427ZM16.7557 13.22C16.693 13.157 16.5747 13.0355 16.432 12.9427L15.8869 13.7811C15.9256 13.8063 15.9705 13.8487 16.0471 13.9256L16.7557 13.22ZM16.7752 13.2396L16.7555 13.2198L16.0473 13.9259L16.0671 13.9456L16.7752 13.2396ZM15.1166 13.0657C14.8723 12.9368 14.642 12.7691 14.4345 12.5616L13.7274 13.2687C14.0065 13.5478 14.318 13.775 14.6499 13.9501L15.1166 13.0657ZM14.4345 12.5616C14.227 12.3541 14.0593 12.1238 13.9304 11.8795L13.046 12.3462C13.2211 12.6781 13.4483 12.9896 13.7274 13.2687L14.4345 12.5616ZM16.7606 15.7869L16.8257 15.7218L16.1184 15.0149L16.0533 15.0801L16.7606 15.7869ZM11.2743 10.1704L11.2092 10.2355L11.916 10.9428L11.9812 10.8777L11.2743 10.1704Z" fill="#016A16"/>
</svg>
